<svg width="417" height="378" viewBox="0 0 417 378" fill="none" xmlns="http://www.w3.org/2000/svg">
<path d="M291.959 370.785H125.031L137.261 336.743L148.876 304.407H268.114L279.73 336.743L291.959 370.785Z" fill="#42444C" style="fill:#42444C;fill:color(display-p3 0.2588 0.2667 0.2980);fill-opacity:1;"/>
<path d="M279.73 336.743H137.261L148.876 304.407L218.343 283.775L268.114 304.407L279.73 336.743Z" fill="#2C2E35" style="fill:#2C2E35;fill:color(display-p3 0.1725 0.1804 0.2078);fill-opacity:1;"/>
<path d="M340.492 377.17H76.5011C72.9761 377.17 70.1191 374.313 70.1191 370.788C70.1191 367.263 72.9761 364.403 76.5011 364.403H340.492C344.017 364.403 346.874 367.263 346.874 370.788C346.874 374.313 344.017 377.17 340.492 377.17Z" fill="#2C2E35" style="fill:#2C2E35;fill:color(display-p3 0.1725 0.1804 0.2078);fill-opacity:1;"/>
<path d="M417 32.2141V272.551C417 290.141 402.738 304.407 385.147 304.407H31.8464C14.2561 304.407 0 290.141 0 272.551V32.2141C0 14.6238 14.2561 0.361328 31.8464 0.361328H385.147C402.738 0.361328 417 14.6238 417 32.2141Z" fill="#4B6897" style="fill:#4B6897;fill:color(display-p3 0.2934 0.4077 0.5917);fill-opacity:1;"/>
<path d="M417 32.2141V272.551C417 290.141 402.738 304.407 385.148 304.407H162.961L241.161 0.361328H385.148C402.738 0.361328 417 14.6238 417 32.2141Z" fill="#374E73" style="fill:#374E73;fill:color(display-p3 0.2157 0.3059 0.4510);fill-opacity:1;"/>
<path d="M417 251.276V272.551C417 290.141 402.738 304.407 385.147 304.407H31.8464C14.2561 304.407 0 290.141 0 272.551V251.276H417Z" fill="#42444C" style="fill:#42444C;fill:color(display-p3 0.2588 0.2667 0.2980);fill-opacity:1;"/>
<path fill-rule="evenodd" clip-rule="evenodd" d="M300.875 72.975C300.875 69.4041 299.454 65.9741 296.931 63.4445C294.401 60.921 290.971 59.5 287.4 59.5C259.28 59.5 158.72 59.5 130.6 59.5C127.029 59.5 123.599 60.921 121.07 63.4445C118.546 65.9741 117.125 69.4041 117.125 72.975V193.025C117.125 196.596 118.546 200.026 121.07 202.556C123.599 205.079 127.029 206.5 130.6 206.5H287.4C290.971 206.5 294.401 205.079 296.931 202.556C299.454 200.026 300.875 196.596 300.875 193.025V72.975ZM129.375 96.25V193.025C129.375 193.35 129.504 193.662 129.736 193.889C129.963 194.121 130.275 194.25 130.6 194.25H287.4C287.725 194.25 288.037 194.121 288.264 193.889C288.496 193.662 288.625 193.35 288.625 193.025V102.375H247.483C245.395 102.375 243.331 101.885 241.456 100.954L232.312 96.3786C232.14 96.2929 231.956 96.25 231.767 96.25H129.375ZM288.625 90.125V72.975C288.625 72.6504 288.496 72.338 288.264 72.1114C288.037 71.8786 287.725 71.75 287.4 71.75H130.6C130.275 71.75 129.963 71.8786 129.736 72.1114C129.504 72.338 129.375 72.6504 129.375 72.975V84H231.767C233.855 84 235.919 84.49 237.794 85.421L246.938 89.9964C247.11 90.0821 247.294 90.125 247.483 90.125H288.625Z" fill="white" style="fill:white;fill-opacity:1;"/>
<path fill-rule="evenodd" clip-rule="evenodd" d="M166.652 136.062L161.794 140.92C159.406 143.308 159.406 147.192 161.794 149.58C164.183 151.969 168.066 151.969 170.455 149.58L175.312 144.723L180.169 149.58C182.558 151.969 186.441 151.969 188.83 149.58C191.219 147.192 191.219 143.308 188.83 140.92L183.973 136.062L188.83 131.205C191.219 128.817 191.219 124.933 188.83 122.545C186.441 120.156 182.558 120.156 180.169 122.545L175.312 127.402L170.455 122.545C168.066 120.156 164.183 120.156 161.794 122.545C159.406 124.933 159.406 128.817 161.794 131.205L166.652 136.062Z" fill="white" style="fill:white;fill-opacity:1;"/>
<path fill-rule="evenodd" clip-rule="evenodd" d="M234.027 136.062L229.169 140.92C226.781 143.308 226.781 147.192 229.169 149.58C231.558 151.969 235.442 151.969 237.83 149.58L242.687 144.723L247.544 149.58C249.933 151.969 253.817 151.969 256.205 149.58C258.594 147.192 258.594 143.308 256.205 140.92L251.348 136.062L256.205 131.205C258.594 128.817 258.594 124.933 256.205 122.545C253.817 120.156 249.933 120.156 247.544 122.545L242.687 127.402L237.83 122.545C235.442 120.156 231.558 120.156 229.169 122.545C226.781 124.933 226.781 128.817 229.169 131.205L234.027 136.062Z" fill="white" style="fill:white;fill-opacity:1;"/>
<path fill-rule="evenodd" clip-rule="evenodd" d="M181.763 175.226C181.763 175.226 187.098 177.896 190.724 179.709C194.515 181.608 198.987 181.608 202.778 179.709L208.456 176.873C208.799 176.702 209.203 176.702 209.546 176.873L215.224 179.709C219.015 181.608 223.487 181.608 227.278 179.709C230.904 177.896 236.239 175.226 236.239 175.226C239.265 173.719 240.49 170.032 238.977 167.012C237.47 163.986 233.783 162.761 230.763 164.274L221.796 168.752C221.453 168.923 221.049 168.923 220.706 168.752L215.028 165.916C211.237 164.017 206.765 164.017 202.974 165.916L197.296 168.752C196.953 168.923 196.549 168.923 196.206 168.752L187.239 164.274C184.219 162.761 180.532 163.986 179.025 167.012C177.512 170.032 178.737 173.719 181.763 175.226Z" fill="white" style="fill:white;fill-opacity:1;"/>
</svg>
