<svg width="235" height="37" viewBox="0 0 235 37" fill="none" xmlns="http://www.w3.org/2000/svg">
<path d="M58.4368 35.4528H50.2319V6.00508H53.504C54.3798 6.00508 55.7019 5.97158 57.4701 5.90458C59.2383 5.82083 60.6926 5.77895 61.8328 5.77895C65.0388 5.77895 67.4681 6.64161 69.1206 8.36693C70.7732 10.0922 71.5995 12.6802 71.5995 16.1309C71.5995 18.2079 71.3268 20.1008 70.7814 21.8093C70.2526 23.5012 69.5338 24.8915 68.6248 25.9803C67.7159 27.0691 66.6831 27.9066 65.5263 28.4929C64.3695 29.0791 63.1466 29.3723 61.8576 29.3723C61.6924 29.3723 61.5189 29.3723 61.3371 29.3723C61.1718 29.3723 61.0148 29.3723 60.8661 29.3723C60.7339 29.3555 60.5686 29.3471 60.3703 29.3471C60.1886 29.3304 60.0398 29.322 59.9241 29.322C59.825 29.3053 59.6763 29.2969 59.478 29.2969C59.2962 29.2801 59.1722 29.2718 59.1061 29.2718C59.04 29.2718 58.9161 29.2634 58.7343 29.2466C58.5525 29.2299 58.4534 29.2215 58.4368 29.2215V35.4528ZM63.4689 15.0253C63.4689 13.7858 63.1384 12.7807 62.4773 12.0102C61.8163 11.2397 60.8661 10.8544 59.6267 10.8544H58.4368V23.9199H59.354C60.6595 23.9199 61.6676 23.476 62.3782 22.5883C63.1053 21.7005 63.4689 20.419 63.4689 18.744V15.0253Z" fill="#29140C"/>
<path d="M84.8736 22.4626C84.8736 20.3353 84.7662 18.8277 84.5514 17.9399C84.3365 17.0522 83.9399 16.6083 83.3615 16.6083C82.8657 16.6083 82.4609 16.7004 82.1469 16.8846C81.8329 17.0522 81.6015 17.3285 81.4528 17.7138C81.3041 18.0823 81.2049 18.4676 81.1554 18.8696C81.1223 19.2549 81.1058 19.749 81.1058 20.352V22.4626H84.8736ZM82.8905 35.9804C81.0397 35.9804 79.4284 35.6957 78.0568 35.1261C76.7017 34.5566 75.6276 33.761 74.8343 32.7392C74.0576 31.7174 73.4875 30.5699 73.1239 29.2969C72.7604 28.0071 72.5786 26.5749 72.5786 25.0003C72.5786 21.2482 73.5205 18.409 75.4045 16.4826C77.2884 14.5563 79.9242 13.5931 83.3119 13.5931C86.5675 13.5931 88.8976 14.372 90.3023 15.9299C91.7069 17.4709 92.4093 19.9584 92.4093 23.3923V26.1813H81.081V26.6587C81.081 27.647 81.1802 28.4594 81.3785 29.0959C81.5933 29.7324 81.899 30.2014 82.2956 30.5029C82.6922 30.8045 83.0971 31.0055 83.5102 31.106C83.9234 31.2065 84.4274 31.2567 85.0223 31.2567C85.6007 31.2567 86.2204 31.1813 86.8815 31.0306C87.559 30.8798 88.2366 30.6453 88.9141 30.3271C89.6082 30.0088 90.1866 29.6319 90.6493 29.1964L92.1118 31.7341C91.5004 32.7392 90.5997 33.5851 89.4099 34.2718C88.2366 34.9419 87.1046 35.3941 86.0139 35.6287C84.9232 35.8632 83.8821 35.9804 82.8905 35.9804Z" fill="#29140C"/>
<path d="M100.895 35.9804C98.6641 35.9804 97.1024 35.302 96.21 33.9452C95.3342 32.5884 94.8962 30.2936 94.8962 27.0607V18.5178H93.1858V15.0253L96.1109 14.0957L98.6393 8.2413H103.002V14.0957H107.067V18.5178H102.928V27.8647C102.928 29.2048 103.118 30.0926 103.498 30.5281C103.878 30.9636 104.465 31.1813 105.258 31.1813C105.605 31.1813 105.919 31.1395 106.2 31.0557C106.481 30.972 106.712 30.8547 106.894 30.704V34.1211C106.646 34.3723 106.324 34.6236 105.927 34.8749C105.53 35.1094 104.869 35.3523 103.944 35.6035C103.035 35.8548 102.019 35.9804 100.895 35.9804Z" fill="#29140C"/>
<path d="M115.775 35.9804C114.222 35.9804 112.652 35.7208 111.065 35.2015C109.479 34.6655 108.463 34.1462 108.016 33.6437L108.661 29.5984C109.223 30.1512 110.156 30.6286 111.462 31.0306C112.784 31.4326 114.131 31.6336 115.503 31.6336C116.494 31.6336 117.172 31.508 117.535 31.2567C117.915 31.0055 118.105 30.6537 118.105 30.2014C118.105 29.7659 117.775 29.3806 117.114 29.0456C116.453 28.6939 115.379 28.2919 113.891 27.8396C110.041 26.667 108.116 24.2382 108.116 20.553C108.116 19.0455 108.545 17.7557 109.405 16.6836C110.264 15.5948 111.363 14.8076 112.701 14.3218C114.04 13.836 115.536 13.5931 117.188 13.5931C120.014 13.5931 122.096 14.1208 123.435 15.1761C123.732 15.4608 123.881 15.6032 123.881 15.6032L122.79 19.1962C121.7 18.1074 120.196 17.563 118.279 17.563C116.709 17.563 115.924 18.0321 115.924 18.9701C115.924 19.2381 115.982 19.4642 116.097 19.6485C116.213 19.816 116.403 19.9668 116.668 20.1008C116.948 20.218 117.221 20.3185 117.486 20.4023C117.75 20.4693 118.122 20.5698 118.601 20.7038C119.08 20.8211 119.493 20.9299 119.84 21.0304C121.774 21.6837 123.179 22.605 124.054 23.7943C124.93 24.9836 125.368 26.466 125.368 28.2416C125.368 33.4008 122.171 35.9804 115.775 35.9804Z" fill="#29140C"/>
<path d="M127.534 23.7943V17.4877H142.357V23.7943H127.534Z" fill="#29140C"/>
<path d="M153.978 35.4528H145.946V7.03525L144.459 6.13071V3.79399L152.416 2.53769H154.027V17.3369L154.325 16.96C154.523 16.692 154.812 16.3737 155.192 16.0052C155.589 15.6367 156.027 15.2766 156.506 14.9248C156.985 14.5563 157.555 14.2464 158.216 13.9952C158.894 13.7271 159.555 13.5931 160.199 13.5931C162.463 13.5931 164.058 14.2213 164.984 15.4776C165.925 16.7339 166.396 18.8361 166.396 21.7842C166.396 21.8847 166.396 22.0355 166.396 22.2365C166.38 22.4375 166.372 22.5966 166.372 22.7139V35.4528H158.192V21.9852C158.241 20.4107 157.58 19.6234 156.208 19.6234C156.076 19.6234 155.944 19.6318 155.812 19.6485C155.696 19.6653 155.572 19.7071 155.44 19.7741C155.308 19.8411 155.2 19.8914 155.118 19.9249C155.052 19.9584 154.944 20.0254 154.796 20.1259C154.663 20.2264 154.572 20.2934 154.523 20.3269C154.49 20.3604 154.391 20.4442 154.225 20.5782C154.077 20.7122 153.994 20.7876 153.978 20.8043V35.4528Z" fill="#29140C"/>
<path d="M180.59 22.4626C180.59 20.3353 180.482 18.8277 180.267 17.9399C180.052 17.0522 179.656 16.6083 179.077 16.6083C178.582 16.6083 178.177 16.7004 177.863 16.8846C177.549 17.0522 177.317 17.3285 177.169 17.7138C177.02 18.0823 176.921 18.4676 176.871 18.8696C176.838 19.2549 176.822 19.749 176.822 20.352V22.4626H180.59ZM178.606 35.9804C176.756 35.9804 175.144 35.6957 173.773 35.1261C172.418 34.5566 171.343 33.761 170.55 32.7392C169.774 31.7174 169.203 30.5699 168.84 29.2969C168.476 28.0071 168.295 26.5749 168.295 25.0003C168.295 21.2482 169.236 18.409 171.12 16.4826C173.004 14.5563 175.64 13.5931 179.028 13.5931C182.283 13.5931 184.613 14.372 186.018 15.9299C187.423 17.4709 188.125 19.9584 188.125 23.3923V26.1813H176.797V26.6587C176.797 27.647 176.896 28.4594 177.094 29.0959C177.309 29.7324 177.615 30.2014 178.012 30.5029C178.408 30.8045 178.813 31.0055 179.226 31.106C179.639 31.2065 180.143 31.2567 180.738 31.2567C181.317 31.2567 181.936 31.1813 182.597 31.0306C183.275 30.8798 183.952 30.6453 184.63 30.3271C185.324 30.0088 185.902 29.6319 186.365 29.1964L187.828 31.7341C187.216 32.7392 186.316 33.5851 185.126 34.2718C183.952 34.9419 182.82 35.3941 181.73 35.6287C180.639 35.8632 179.598 35.9804 178.606 35.9804Z" fill="#29140C"/>
<path d="M190.538 35.4528V7.03525L189.05 6.13071V3.79399L197.008 2.53769H198.619V35.4528H190.538Z" fill="#29140C"/>
<path d="M201.649 35.4528V7.03525L200.162 6.13071V3.79399L208.119 2.53769H209.73V35.4528H201.649Z" fill="#29140C"/>
<path d="M222.998 32.9653C223.725 32.9653 224.278 32.6638 224.659 32.0608C225.055 31.441 225.253 30.5951 225.253 29.523V21.5832C225.253 18.3168 224.493 16.6836 222.973 16.6836C222.262 16.6836 221.709 16.9768 221.312 17.563C220.916 18.1493 220.717 18.9785 220.717 20.0505V28.2165C220.717 31.3824 221.477 32.9653 222.998 32.9653ZM222.799 35.9804C219.015 35.9804 216.247 35.1094 214.495 33.3673C212.744 31.6252 211.868 28.8446 211.868 25.0255C211.868 21.2398 212.752 18.3922 214.52 16.4826C216.288 14.5563 219.164 13.5931 223.146 13.5931C227.03 13.5931 229.831 14.5144 231.55 16.357C233.285 18.1828 234.152 20.9551 234.152 24.6737C234.152 28.5264 233.235 31.374 231.401 33.2166C229.583 35.0591 226.716 35.9804 222.799 35.9804Z" fill="#29140C"/>
<path d="M27.4234 13.9127C24.3299 13.0782 21.1051 13.5195 18.3352 15.1501C12.6577 18.4992 10.7372 25.9615 14.0541 31.7847L14.8989 33.2679C16.0937 35.3655 18.2333 36.6387 20.6226 36.6737C23.0117 36.7088 25.1871 35.499 26.4412 33.4374C27.204 32.1835 28.5268 31.4093 29.9796 31.3667C31.1238 31.3331 32.2063 31.0164 33.1522 30.4628C34.1806 29.8609 35.0473 28.9788 35.6541 27.8771C36.8187 25.7623 36.8007 23.2473 35.606 21.1498L34.7029 19.5642C33.1021 16.7542 30.517 14.7471 27.4234 13.9127Z" fill="#FFCA42"/>
<path d="M5.82731 18.9624L5.03188 18.8776C2.53366 18.6115 0.287672 20.4551 0.0252021 22.9872C-0.237337 25.5193 1.58136 27.796 4.07957 28.0621L4.87501 28.1469C5.86681 28.2526 6.81885 28.0257 7.62289 27.5552C8.84392 26.8406 9.72343 25.564 9.88182 24.0372C10.1442 21.5051 8.32541 19.2285 5.82731 18.9624Z" fill="#FFCA42"/>
<path d="M34.3134 3.04818C32.0187 2.01258 29.3203 3.06237 28.2988 5.38842L27.9735 6.12905C26.9518 8.455 27.9875 11.1899 30.2823 12.2255C31.6661 12.85 33.1963 12.7162 34.4174 12.0016C35.2213 11.5311 35.8913 10.8087 36.2969 9.88531L36.6222 9.14468C37.6438 6.81866 36.6081 4.08379 34.3134 3.04818Z" fill="#FFCA42"/>
<path d="M13.2113 9.23572L11.6294 7.79202C10.7252 6.96668 9.55797 6.54774 8.34273 6.61235C7.12758 6.6768 6.00987 7.21722 5.19578 8.13381C4.38157 9.05037 3.96816 10.2335 4.03178 11.4653C4.09541 12.697 4.62853 13.8299 5.53284 14.6552L7.11469 16.0989C8.61737 17.4702 10.7804 17.6384 12.4437 16.665C12.8467 16.4292 13.2207 16.1261 13.5484 15.7571C14.3626 14.8406 14.776 13.6573 14.7124 12.4256C14.6486 11.1939 14.1155 10.061 13.2113 9.23572Z" fill="#FFCA42"/>
<path d="M19.0038 0.10142C16.5467 0.630802 14.9728 3.08767 15.4951 5.57813L15.9376 7.6885C16.1906 8.89491 16.892 9.92932 17.9124 10.6011C18.9329 11.2729 20.1505 11.5016 21.3407 11.2452C21.82 11.1419 22.2656 10.9654 22.6688 10.7294C24.332 9.75609 25.27 7.77318 24.8496 5.76841L24.407 3.65797C23.8847 1.16752 21.4609 -0.42792 19.0038 0.10142Z" fill="#FFCA42"/>
</svg>
