<svg width="151" height="32" viewBox="0 0 151 32" fill="none" xmlns="http://www.w3.org/2000/svg">
<g clip-path="url(#clip0_193_3765)">
<path d="M53.8157 23.0079C52.4763 23.0079 51.3393 22.7123 50.4049 22.1209C49.4861 21.549 48.7951 20.691 48.4453 19.6878L50.4144 18.5681C50.9707 20.0878 52.1247 20.8472 53.8764 20.8462C54.7385 20.8462 55.3847 20.6823 55.8152 20.3546C56.0199 20.2058 56.1847 20.0115 56.296 19.7881C56.4072 19.5647 56.4616 19.3186 56.4545 19.0705C56.4656 18.8186 56.4068 18.5685 56.2842 18.3461C56.1616 18.1238 55.9798 17.9375 55.7576 17.8067C55.2941 17.5172 54.4721 17.1988 53.2914 16.8514C52.747 16.6979 52.2108 16.5178 51.6851 16.3117C51.2273 16.1197 50.7904 15.8839 50.3809 15.6077C49.9424 15.326 49.5889 14.9364 49.3564 14.4787C49.1232 13.9839 49.009 13.444 49.0223 12.9001C49.0223 11.7029 49.4597 10.7538 50.3345 10.0529C51.2254 9.34675 52.3476 8.97373 53.4976 9.00144C54.5316 8.97954 55.5493 9.2547 56.4225 9.79233C57.2649 10.3265 57.9338 11.0815 58.3517 11.9696L56.4225 13.0551C55.8386 11.7928 54.8637 11.1622 53.4976 11.1632C52.8338 11.1632 52.301 11.3141 51.8993 11.616C51.7059 11.7593 51.5507 11.9454 51.4467 12.1589C51.3427 12.3723 51.2929 12.6068 51.3015 12.8427C51.2936 13.0738 51.3449 13.3031 51.4509 13.5102C51.5569 13.7173 51.7143 13.8956 51.9089 14.029C52.3127 14.3195 53.0453 14.625 54.1066 14.9455C54.6394 15.113 55.0272 15.2386 55.2702 15.3224C55.5163 15.4061 55.8599 15.5379 56.3043 15.7178C56.6638 15.8518 57.0022 16.034 57.3096 16.259C57.5668 16.4679 57.8092 16.6932 58.0353 16.9336C58.2901 17.1981 58.4779 17.5167 58.5835 17.8641C58.6944 18.247 58.7482 18.6433 58.7433 19.0411C58.7433 20.2651 58.2894 21.2333 57.3815 21.9457C56.4737 22.658 55.2851 23.0121 53.8157 23.0079Z" fill="black"/>
<path d="M74.8448 9.24609H77.132V22.7563H74.8448V16.9084H68.8767V22.7563H66.5879V9.24609H68.8767V14.7854H74.8448V9.24609Z" fill="black"/>
<path d="M94.9579 22.7563L93.9829 20.0348H88.0547L87.0798 22.7563H84.5928L89.6467 9.24609H92.391L97.4241 22.7563H94.9579ZM88.8108 17.949H93.2269L91.018 11.8498L88.8108 17.949Z" fill="black"/>
<path d="M113.041 11.3691H107.172V15.1514H112.843V17.2744H107.172V22.7563H104.885V9.24609H113.036L113.041 11.3691Z" fill="black"/>
<path d="M123.449 20.6333H129.616V22.7563H121.162V9.24609H129.517V11.3691H123.443V14.8816H129.013V16.9859H123.449V20.6333Z" fill="#A38B66"/>
<path d="M151 9.24609V22.7563H148.713V13.1246L144.474 19.92H144.196L139.959 13.1059V22.7563H137.675V9.24609H140.141L144.335 16.0012L148.553 9.24609H151Z" fill="#A38B66"/>
<path d="M41.2034 9.00218L33.6529 1.67637C32.5475 0.603425 31.0481 0.000425174 29.4845 0H12.619C11.8445 6.87061e-06 11.0776 0.148056 10.3621 0.435693C9.64658 0.72333 8.99649 1.14492 8.44895 1.67637L0.777 9.12004C0.527432 9.36226 0.330527 9.65063 0.197949 9.96805C0.0653714 10.2855 -0.000178406 10.6255 0.00518754 10.9679C0.0105535 11.3104 0.0867243 11.6483 0.229186 11.9617C0.371648 12.2751 0.5775 12.5575 0.834542 12.7922L13.5268 24.392C14.6606 25.4275 16.1655 25.9938 17.7224 25.971C19.2794 25.9481 20.7659 25.3378 21.8669 24.2694L28.8579 17.4864C27.4634 17.4867 26.1261 18.0245 25.1402 18.9813L20.8551 23.1389C20.0242 23.9456 18.9026 24.4074 17.7273 24.4267C16.552 24.4461 15.4149 24.0216 14.5561 23.2428L3.66517 13.3707C3.57338 13.2863 3.50899 13.1778 3.47989 13.0585C3.4508 12.9391 3.45826 12.8141 3.50138 12.6988C3.5445 12.5835 3.6214 12.4829 3.72262 12.4094C3.82383 12.336 3.94497 12.2927 4.07114 12.2851L28.973 10.9872H2.51278C2.39117 10.9874 2.27222 10.9527 2.17101 10.8873C2.0698 10.8218 1.9909 10.7287 1.94432 10.6197C1.89774 10.5108 1.88558 10.3908 1.90939 10.2751C1.9332 10.1594 1.9919 10.0531 2.07804 9.96985L9.08668 3.16821C9.63422 2.63675 10.2843 2.21516 10.9998 1.92753C11.7153 1.63989 12.4822 1.49184 13.2567 1.49183H28.8468C30.4104 1.49226 31.9098 2.09526 33.0152 3.16821L40.0382 9.98226C40.1753 10.1143 40.284 10.2713 40.3583 10.4443C40.4325 10.6173 40.4707 10.8029 40.4707 10.9903C40.4707 11.1776 40.4325 11.3632 40.3583 11.5362C40.284 11.7092 40.1753 11.8662 40.0382 11.9983L23.1343 28.3945C22.1493 29.3517 21.5958 30.6489 21.5952 32.0015L41.2034 12.9768C41.4724 12.7158 41.6859 12.406 41.8315 12.065C41.9771 11.7241 42.052 11.3586 42.052 10.9895C42.052 10.6204 41.9771 10.2549 41.8315 9.91392C41.6859 9.57294 41.4724 9.26312 41.2034 9.00218Z" fill="#A38B66"/>
</g>
<defs>
<clipPath id="clip0_193_3765">
<rect width="151" height="32" fill="white"/>
</clipPath>
</defs>
</svg>
