<?xml version="1.0" encoding="UTF-8"?>

<svg version="1.1" xmlns="http://www.w3.org/2000/svg" xmlns:xlink="http://www.w3.org/1999/xlink">
    <symbol viewBox="0 0 46 38" id="logo" xmlns="http://www.w3.org/2000/svg">
        <path d="M18.3144 38.0003H0V5.52885H2.714V35.1783L5.11842 35.1363C9.69069 34.9984 14.2259 35.9827 18.3144 38.0003ZM43.286 5.52885V35.1783L40.8843 35.1363C36.3111 34.9976 31.7748 35.9819 27.6856 38.0003H46V5.52885H43.286ZM5.0738 0.902345V32.8138C10.9791 32.6353 16.8058 34.182 21.8178 37.2584V2.25542C16.2716 -0.727585 9.87482 -0.271132 5.0738 0.902345ZM40.9262 32.8138V0.902345C36.1252 -0.269774 29.7284 -0.726228 24.1822 2.25542V37.2584C29.1942 34.182 35.0209 32.6353 40.9262 32.8138Z" fill="currentColor" />
    </symbol>

    <symbol viewBox="0 0 31 23" id="quote" xmlns="http://www.w3.org/2000/svg">
        <path d="M6.80488 8.59657C10.5464 8.59657 13.5795 11.6297 13.5795 15.3712C13.5795 19.1127 10.5464 22.1458 6.80488 22.1458C3.06334 22.1458 0.0302439 19.1127 0.0302439 15.3712L0 14.4034C0 6.92033 6.0662 0.854126 13.5493 0.854126V4.72535C10.9642 4.72535 8.5338 5.73204 6.70586 7.55999C6.354 7.9119 6.03287 8.28632 5.7432 8.67962C6.08913 8.62518 6.44364 8.59657 6.80488 8.59657ZM24.2254 8.59657C27.9668 8.59657 31 11.6297 31 15.3712C31 19.1127 27.9668 22.1458 24.2254 22.1458C20.4839 22.1458 17.4507 19.1127 17.4507 15.3712L17.4205 14.4034C17.4205 6.92033 23.4866 0.854126 30.9698 0.854126V4.72535C28.3847 4.72535 25.9542 5.73204 24.1263 7.55999C23.7744 7.9119 23.4533 8.28632 23.1636 8.67962C23.5096 8.62518 23.8641 8.59657 24.2254 8.59657Z" fill="currentColor"/>
    </symbol>

    <symbol viewBox="0 0 20 10" id="arrow-top" xmlns="http://www.w3.org/2000/svg">
        <path d="M10.9406 0.359787L19.11 7.90288C19.63 8.38271 19.63 9.16067 19.11 9.64027C18.5906 10.1199 17.748 10.1199 17.2286 9.64027L9.99986 2.9658L2.77141 9.64008C2.25171 10.1197 1.40925 10.1197 0.889769 9.64008C0.370077 9.16044 0.370077 8.38251 0.889768 7.90268L9.05934 0.359592C9.3192 0.119773 9.65943 -4.00371e-07 9.99982 -4.1525e-07C10.3404 -4.30137e-07 10.6809 0.120007 10.9406 0.359787Z" fill="currentColor"/>
    </symbol>

    <symbol viewBox="0 0 8 4" id="dropdown-arrow" xmlns="http://www.w3.org/2000/svg">
        <path d="M4.39604 3.85609L7.83581 0.83885C8.05473 0.646917 8.05473 0.335731 7.83581 0.143892C7.61708 -0.0479634 7.26232 -0.0479634 7.04361 0.143892L3.99994 2.81368L0.956381 0.143969C0.737564 -0.0478861 0.382842 -0.0478861 0.164113 0.143969C-0.0547044 0.335824 -0.0547044 0.646994 0.164113 0.838927L3.60393 3.85616C3.71335 3.95209 3.8566 4 3.99992 4C4.14332 4 4.28668 3.952 4.39604 3.85609Z" fill="currentColor"/>
    </symbol>

    <symbol viewBox="0 0 10 19" id="arrow-left" xmlns="http://www.w3.org/2000/svg">
        <path d="M0.359787 10.4406L7.90288 18.61C8.38271 19.13 9.16067 19.13 9.64027 18.61C10.1199 18.0906 10.1199 17.248 9.64027 16.7286L2.9658 9.49986L9.64008 2.27141C10.1197 1.75171 10.1197 0.90925 9.64008 0.389769C9.16044 -0.129923 8.38251 -0.129923 7.90268 0.389769L0.359592 8.55934C0.119774 8.81921 0 9.15943 0 9.49982C0 9.84038 0.120008 10.1809 0.359787 10.4406Z" fill="currentColor"/>
    </symbol>

    <symbol viewBox="0 0 10 19" id="arrow-right" xmlns="http://www.w3.org/2000/svg">
        <path d="M9.64021 10.4406L2.09712 18.61C1.61729 19.13 0.839327 19.13 0.359728 18.61C-0.119909 18.0906 -0.119909 17.248 0.359728 16.7286L7.0342 9.49986L0.359922 2.27141C-0.119715 1.75171 -0.119715 0.90925 0.359922 0.389769C0.83956 -0.129923 1.61749 -0.129923 2.09732 0.389769L9.64041 8.55934C9.88023 8.81921 10 9.15943 10 9.49982C10 9.84038 9.87999 10.1809 9.64021 10.4406Z" fill="currentColor"/>
    </symbol>

    <symbol viewBox="0 0 25 8" id="visa" xmlns="http://www.w3.org/2000/svg">
        <path fill-rule="evenodd" clip-rule="evenodd" d="M6.7503 7.85786H4.69056L3.146 1.79198C3.07269 1.51295 2.91703 1.26627 2.68806 1.15001C2.11664 0.857839 1.48696 0.625314 0.800049 0.508041V0.274505H4.11813C4.57607 0.274505 4.91953 0.625314 4.97677 1.03274L5.77817 5.40826L7.83691 0.274505H9.83941L6.7503 7.85786ZM10.9843 7.85786H9.03902L10.6408 0.274505H12.5861L10.9843 7.85786ZM15.1028 2.37532C15.16 1.96689 15.5035 1.73335 15.9042 1.73335C16.5338 1.67471 17.2197 1.79199 17.7922 2.08315L18.1356 0.450419C17.5632 0.216883 16.9335 0.0996094 16.3621 0.0996094C14.4741 0.0996094 13.1003 1.15002 13.1003 2.60785C13.1003 3.71689 14.0734 4.29922 14.7603 4.65003C15.5035 4.99982 15.7897 5.23336 15.7324 5.58316C15.7324 6.10786 15.16 6.34139 14.5886 6.34139C13.9017 6.34139 13.2147 6.16649 12.5861 5.87432L12.2426 7.50806C12.9295 7.79922 13.6727 7.9165 14.3596 7.9165C16.4766 7.97412 17.7922 6.92473 17.7922 5.34962C17.7922 3.36608 15.1028 3.24982 15.1028 2.37532ZM24.6 7.85786L23.0555 0.274505H21.3965C21.053 0.274505 20.7095 0.508041 20.5951 0.857839L17.7349 7.85786H19.7374L20.1371 6.74982H22.5976L22.8265 7.85786H24.6ZM21.6827 2.31669L22.2541 5.17473H20.6523L21.6827 2.31669Z" fill="#172B85"/>
    </symbol>

    <symbol viewBox="0 0 23 14" id="mastercard" xmlns="http://www.w3.org/2000/svg">
        <path fill-rule="evenodd" clip-rule="evenodd" d="M11.179 11.8297C9.99493 12.8278 8.45902 13.4303 6.78069 13.4303C3.03582 13.4303 0 10.4306 0 6.73027C0 3.02997 3.03582 0.0302734 6.78069 0.0302734C8.45902 0.0302734 9.99493 0.632772 11.179 1.63081C12.363 0.632772 13.8989 0.0302734 15.5773 0.0302734C19.3221 0.0302734 22.358 3.02997 22.358 6.73027C22.358 10.4306 19.3221 13.4303 15.5773 13.4303C13.8989 13.4303 12.363 12.8278 11.179 11.8297Z" fill="#ED0006"/>
        <path fill-rule="evenodd" clip-rule="evenodd" d="M11.179 11.8297C12.6369 10.6008 13.5614 8.77223 13.5614 6.73027C13.5614 4.68832 12.6369 2.85972 11.179 1.63081C12.363 0.63277 13.8989 0.0302734 15.5772 0.0302734C19.3221 0.0302734 22.3579 3.02997 22.3579 6.73027C22.3579 10.4306 19.3221 13.4303 15.5772 13.4303C13.8989 13.4303 12.363 12.8278 11.179 11.8297Z" fill="#F9A000"/>
        <path fill-rule="evenodd" clip-rule="evenodd" d="M11.179 11.8297C12.6369 10.6008 13.5614 8.77224 13.5614 6.7303C13.5614 4.68835 12.6369 2.85976 11.179 1.63086C9.72109 2.85976 8.79663 4.68835 8.79663 6.7303C8.79663 8.77224 9.72109 10.6008 11.179 11.8297Z" fill="#FF5E00"/>
    </symbol>

    <symbol viewBox="0 0 30 7" id="liqpay" xmlns="http://www.w3.org/2000/svg">
        <path fill-rule="evenodd" clip-rule="evenodd" d="M27.4279 3.13309L24.1603 0.291929C24.1359 0.271233 24.1005 0.272382 24.0783 0.296528L23.5954 0.818539L26.2637 3.13309L23.5954 5.44765L24.0783 5.96966C24.1005 5.9938 24.1359 5.99495 24.1603 5.97425L27.4279 3.13309ZM21.9084 0.483946C21.9084 0.483946 22.1776 0.481647 22.2241 0.500043C22.3286 0.541282 22.2694 0.669581 22.2177 0.781503L22.2086 0.801292L20.8417 3.62981C20.7797 3.75858 20.7476 3.90001 20.7476 4.04374V5.7374C20.7476 5.85238 20.6578 5.94551 20.5471 5.94551H20.2624C20.1516 5.94551 20.0619 5.85238 20.0619 5.7374V4.03569C20.0619 3.89196 20.0298 3.75054 19.9678 3.62176L18.6064 0.802442L18.5962 0.779793C18.5458 0.668554 18.4884 0.542081 18.592 0.501193C18.6386 0.482796 18.9077 0.485096 18.9077 0.485096L18.932 0.485537C19.0987 0.48848 19.2072 0.490394 19.2843 0.601226C19.2965 0.618473 19.3054 0.63687 19.3142 0.655267L20.4241 3.07445L21.5019 0.654117C21.5107 0.63572 21.5196 0.617323 21.5318 0.600076C21.6078 0.490866 21.7142 0.488426 21.8768 0.484698L21.9084 0.483946ZM16.8842 0.486675C17.0249 0.492424 17.0902 0.621202 17.1401 0.772976L18.8791 5.82406C18.8791 5.89075 18.8248 5.94479 18.7572 5.94479H18.3773C18.2267 5.94479 18.1491 5.82176 18.1048 5.67344L17.7437 4.61102C17.7194 4.53973 17.654 4.49144 17.5809 4.49144H15.6469C15.5727 4.49144 15.5074 4.53973 15.483 4.61217L15.1363 5.66309C15.0931 5.81141 15.0189 5.93444 14.8749 5.93444H14.5116C14.4473 5.93444 14.3953 5.8804 14.3953 5.81371L16.1343 0.769526C16.1786 0.626951 16.2373 0.505071 16.3547 0.486675C16.3647 0.485525 16.3758 0.484375 16.3868 0.484375H16.4998C16.5109 0.484375 16.522 0.485525 16.5319 0.486675H16.7579H16.8753H16.8842ZM16.5984 1.24095L15.7211 3.89469H17.5012L16.5984 1.24095ZM26.5085 0.314925L29.7761 3.15609L26.5085 5.99725C26.4842 6.01795 26.4487 6.0168 26.4266 5.99265L25.9436 5.47064L28.612 3.15609L25.9436 0.841535L26.4266 0.319524C26.4487 0.295379 26.4842 0.294229 26.5085 0.314925ZM4.22463 0.480924H3.81258C3.72618 0.480924 3.65751 0.553362 3.65751 0.641897V5.76427C3.65751 5.8574 3.73061 5.93444 3.82144 5.93444H4.21799C4.30771 5.93444 4.38192 5.85855 4.38192 5.76427V0.643046C4.38081 0.553362 4.31103 0.480924 4.22463 0.480924ZM0.910498 5.2848H2.75033C2.83784 5.2848 2.90983 5.35954 2.91094 5.45037V5.73552C2.91094 5.82751 2.84005 5.9011 2.75144 5.9011H0.911606H0.408726C0.306821 5.9011 0.224854 5.81601 0.224854 5.71023V5.28595V0.643046C0.224854 0.554512 0.293529 0.482074 0.379927 0.482074H0.755425C0.840715 0.482074 0.910498 0.553362 0.910498 0.643046V5.2848ZM13.8558 0.782173C13.6265 0.6212 13.3097 0.50737 12.7038 0.50737H11.7479H11.5308C11.3912 0.50737 11.2771 0.62465 11.2771 0.770675V5.66424C11.2771 5.81371 11.3934 5.93559 11.5385 5.93559H11.7401C11.8841 5.93559 12.0015 5.81486 12.0015 5.66424V3.8257H13.0583C13.1613 3.8257 14.4838 3.61069 14.4838 2.11594C14.4827 1.46516 14.1615 0.998336 13.8558 0.782173ZM12.8179 3.2623H12.0813H12.0004V1.07077H12.5831C12.9829 1.07077 13.1923 1.14551 13.344 1.25244C13.5467 1.39502 13.7583 1.70316 13.7583 2.13319C13.7594 3.12087 12.8866 3.2623 12.8179 3.2623ZM10.5117 6.00458C10.5461 6.01838 10.5782 6.03447 10.607 6.05632C10.7288 6.14715 10.7499 6.26328 10.7499 6.26328C10.7499 6.26328 10.7754 6.7232 10.6314 6.7232C10.3323 6.7232 9.91471 6.4852 9.07288 5.83786C8.95547 5.74932 8.87018 5.74817 8.78267 5.78726H8.78157C8.4836 5.92984 8.14466 6.00343 7.77581 6.00343C5.96034 6.00343 5.45414 4.6984 5.45414 3.17376C5.45414 1.64912 6.20735 0.413086 7.77581 0.413086C9.4805 0.413086 10.1085 1.64912 10.1085 3.17376C10.1085 4.03612 9.89034 4.7191 9.51373 5.19857L9.51262 5.19972L9.49823 5.21811C9.47497 5.25606 9.44838 5.34689 9.62007 5.46187C9.6557 5.48572 9.69588 5.51315 9.73936 5.54282C9.96627 5.69767 10.2831 5.91388 10.5117 6.00458ZM6.19849 3.17376V3.18526C6.19849 4.22353 6.39676 5.35264 7.77802 5.35264C8.98095 5.35264 9.36531 4.4167 9.36531 3.18526V3.17376C9.3642 2.13894 9.15374 1.04088 7.77802 1.04088C6.56402 1.04088 6.20071 2.13894 6.19849 3.17376Z" fill="#76A62D"/>
    </symbol>

    <symbol viewBox="0 0 17 19" id="user" xmlns="http://www.w3.org/2000/svg">
        <path fill-rule="evenodd" clip-rule="evenodd" d="M5.39704 7.80808C6.28639 8.69743 7.37453 9.14818 8.63132 9.14818C9.88783 9.14818 10.976 8.69728 11.8655 7.80822C12.7547 6.91902 13.2056 5.83088 13.2056 4.57395C13.2056 3.3173 12.7547 2.22916 11.8655 1.33996C10.9763 0.450759 9.88826 0 8.63132 0C7.37467 0 6.28653 0.450759 5.39718 1.33982C4.50784 2.22931 4.05708 3.31744 4.05708 4.57395C4.05708 5.83088 4.50798 6.91888 5.39704 7.80808ZM8.63132 1.11291C9.59572 1.11291 10.3961 1.44457 11.0784 2.12687C11.7608 2.80931 12.0927 3.60984 12.0927 4.57395C12.0927 5.53835 11.7608 6.33888 11.0784 7.02117C10.3958 7.70347 9.59543 8.03527 8.63132 8.03527C7.66706 8.03527 6.86654 7.70361 6.18409 7.02117C5.5018 6.33873 5.16999 5.53835 5.16999 4.57395C5.16999 3.60984 5.5018 2.80931 6.18409 2.12687C6.86654 1.44457 7.66706 1.11291 8.63132 1.11291ZM0.782063 13.4034C0.705705 13.8296 0.653832 14.2333 0.628187 14.6033C0.602831 14.965 0.589935 15.3424 0.58979 15.7251C0.58979 16.7167 0.904931 17.5196 1.52652 18.111C2.14043 18.6951 2.9524 18.9913 3.93984 18.9913H13.0843C14.072 18.9913 14.884 18.6951 15.4977 18.111C16.1192 17.5191 16.4343 16.7166 16.4343 15.7252C16.4343 15.3439 16.4216 14.9664 16.3964 14.6038C16.3707 14.2329 16.319 13.829 16.2425 13.4034C16.1654 12.9739 16.0662 12.5681 15.9475 12.197C15.8246 11.8132 15.6577 11.4346 15.4515 11.0716C15.2377 10.695 14.9861 10.3671 14.7039 10.0971C14.4084 9.81438 14.0469 9.58733 13.6294 9.42201C13.2131 9.25713 12.7517 9.17352 12.258 9.17352C12.0641 9.17352 11.8766 9.25307 11.5148 9.48881C11.2886 9.63616 11.0278 9.80424 10.7396 9.98839C10.4913 10.1469 10.1541 10.2954 9.73828 10.4297C9.33186 10.5612 8.9195 10.6278 8.51264 10.6278C8.10549 10.6278 7.69313 10.5612 7.287 10.4297C6.87072 10.2953 6.5337 10.1468 6.28492 9.98825C5.99398 9.80235 5.73332 9.63428 5.51047 9.48895C5.14839 9.25321 4.9609 9.17367 4.76703 9.17367C4.27338 9.17367 3.8119 9.25713 3.39548 9.42187C2.97761 9.58748 2.61625 9.81452 2.32111 10.0969C2.03886 10.3669 1.78732 10.6949 1.57332 11.0716C1.36685 11.4346 1.20008 11.8133 1.07721 12.1968C0.958396 12.5679 0.859145 12.9739 0.782063 13.4034ZM3.93999 17.8783C3.23784 17.8783 2.69942 17.6907 2.29387 17.3047C1.89614 16.9263 1.70285 16.4096 1.70271 15.7252C1.70285 15.3684 1.71473 15.0172 1.73835 14.6812V14.6809C1.76124 14.3505 1.80819 13.9868 1.87745 13.5998C1.94584 13.2186 2.03321 12.8607 2.13709 12.5362C2.23649 12.2257 2.3724 11.9178 2.54091 11.6215C2.70159 11.3386 2.88648 11.0962 3.09048 10.9011C3.28131 10.7185 3.52183 10.5688 3.80509 10.4567C4.06735 10.3529 4.36191 10.2961 4.68183 10.2876C4.72081 10.3083 4.79021 10.348 4.90265 10.4212C5.13144 10.5704 5.38775 10.7356 5.68608 10.9263C6.01513 11.1361 6.43836 11.3252 6.94461 11.4888C7.46145 11.6558 7.989 11.7407 8.51249 11.7407C9.03599 11.7407 9.5634 11.6558 10.0805 11.4886C10.5863 11.3253 11.0097 11.1361 11.3383 10.9266C11.6298 10.7404 11.8936 10.5703 12.1223 10.4212C12.2348 10.3479 12.3042 10.3083 12.3432 10.2876C12.6629 10.2961 12.9575 10.3529 13.2196 10.4567C13.503 10.5688 13.7435 10.7184 13.9344 10.9011C14.1384 11.0964 14.3232 11.3388 14.4839 11.6213C14.6523 11.9178 14.7881 12.2255 14.8876 12.5363C14.9913 12.8604 15.0786 13.2185 15.1471 13.6C15.2165 13.9863 15.2633 14.3498 15.2862 14.6807C15.3097 15.018 15.3214 15.3694 15.3214 15.7252C15.3214 16.4094 15.1281 16.9263 14.7304 17.3049C14.325 17.6907 13.7866 17.8783 13.0843 17.8783H3.93999Z" fill="currentColor"/>
    </symbol>

    <symbol viewBox="0 0 15 11" id="check" xmlns="http://www.w3.org/2000/svg">
        <path d="M14.5606 2.6051L6.64752 10.5177C6.06154 11.1038 5.11099 11.1038 4.52446 10.5177L0.439649 6.43257C-0.14655 5.84648 -0.14655 4.89582 0.439649 4.30962C1.02596 3.72331 1.97643 3.72331 2.56248 4.3094L5.5863 7.33326L12.4375 0.482046C13.0238 -0.104264 13.9743 -0.103819 14.5604 0.482046C15.1465 1.06825 15.1465 2.01857 14.5606 2.6051Z" fill="currentColor"/>
    </symbol>

    <symbol viewBox="0 0 15 15" id="cross" xmlns="http://www.w3.org/2000/svg">
        <path fill-rule="evenodd" clip-rule="evenodd" d="M14.0144 0.985557C13.4009 0.372002 12.4114 0.372002 11.7978 0.985557L7.49986 5.28351L3.20191 0.985557C2.58836 0.372002 1.59887 0.372002 0.985313 0.985557C0.371758 1.59911 0.371758 2.5886 0.985313 3.20216L5.28326 7.50011L0.985313 11.7981C0.371758 12.4116 0.371758 13.4011 0.985313 14.0147C1.28225 14.3116 1.68426 14.4762 2.09077 14.4762C2.48106 14.4762 2.89095 14.3282 3.20063 14.0103L7.49418 9.71671L11.7921 14.0147C12.0891 14.3116 12.4911 14.4762 12.8976 14.4762C13.2971 14.4762 13.7007 14.3257 14.0084 14.0093C14.6165 13.3955 14.6145 12.4099 14.003 11.7981L9.7158 7.50077L14.0144 3.20216C14.628 2.5886 14.628 1.59911 14.0144 0.985557ZM1.34778 1.90913C1.28503 2.16121 1.35276 2.43824 1.551 2.63647L6.41456 7.50003L6.41468 7.49991L1.55105 2.63628C1.35286 2.43809 1.28511 2.16116 1.34778 1.90913ZM1.34778 12.7216C1.28503 12.9737 1.35276 13.2507 1.551 13.449C1.69873 13.5967 1.89759 13.6762 2.09077 13.6762C2.28395 13.6762 2.48282 13.6024 2.63054 13.449L7.49418 8.58533L12.3578 13.449C12.5055 13.5967 12.7044 13.6762 12.8976 13.6762C13.0965 13.6762 13.2896 13.6024 13.4374 13.449C13.5403 13.346 13.6081 13.2218 13.6406 13.0909C13.6081 13.2217 13.5403 13.3459 13.4374 13.4488C13.2897 13.6022 13.0965 13.676 12.8976 13.676C12.7045 13.676 12.5056 13.5965 12.3579 13.4488L7.49423 8.58514L2.63059 13.4488C2.48287 13.6022 2.284 13.676 2.09082 13.676C1.89764 13.676 1.69877 13.5965 1.55105 13.4488C1.35286 13.2506 1.28511 12.9737 1.34778 12.7216ZM8.58521 7.49999L13.4487 2.63647C13.5517 2.53352 13.6194 2.40931 13.652 2.27839C13.6194 2.40924 13.5517 2.53337 13.4488 2.63628L8.58514 7.49991L8.58521 7.49999Z" fill="currentColor"/>
    </symbol>

    <symbol viewBox="0 0 11 14" id="play" xmlns="http://www.w3.org/2000/svg">
        <path fill-rule="evenodd" clip-rule="evenodd" d="M8.89774 6.9999L1.99988 2.40137V11.5986L8.89774 6.9999ZM10.2913 6.12628C10.9148 6.54196 10.9148 7.45799 10.2913 7.87366L2.13221 13.3132C1.43447 13.7784 0.499756 13.278 0.499756 12.4394V1.56053C0.499756 0.721904 1.43447 0.221703 2.13221 0.686922L10.2913 6.12628Z" fill="currentColor"/>
    </symbol>

    <symbol viewBox="0 0 26 20" id="email" xmlns="http://www.w3.org/2000/svg">
        <path fill-rule="evenodd" clip-rule="evenodd" d="M3.17939 0.106766H22.826C24.5798 0.106766 26.0054 1.53776 26 3.29154V16.7138C26 18.4676 24.5744 19.8932 22.8206 19.8932H3.17939C1.42562 19.8932 0 18.4676 0 16.7138V3.28616C0 1.53238 1.42562 0.106766 3.17939 0.106766ZM22.826 18.4407C23.7782 18.4407 24.5529 17.666 24.5529 16.7138H24.5475V3.29154C24.5475 2.33933 23.7728 1.56466 22.8206 1.56466H3.17939C2.22719 1.56466 1.45251 2.33933 1.45251 3.29154V16.7138C1.45251 17.666 2.22719 18.4407 3.17939 18.4407H22.826ZM22.7561 4.13077L16.3973 9.83323L22.7829 15.8961C23.0735 16.1705 23.0842 16.6331 22.8098 16.9236C22.6646 17.0743 22.4763 17.1496 22.2826 17.1496C22.1051 17.1496 21.9222 17.085 21.7823 16.9505L15.316 10.807L13.503 12.4316C13.3685 12.5553 13.191 12.6199 13.0188 12.6199C12.8467 12.6199 12.6745 12.5607 12.5347 12.437L10.7701 10.8607L4.26609 16.9452C4.12622 17.0743 3.94869 17.1388 3.77116 17.1388C3.57749 17.1388 3.38382 17.0581 3.23857 16.9075C2.9642 16.6116 2.98034 16.1544 3.27085 15.88L9.67805 9.88165L3.24395 4.13077C2.94269 3.86178 2.91579 3.40451 3.18477 3.10325C3.45376 2.80199 3.91103 2.77509 4.21229 3.04407L11.1736 9.27374C11.2166 9.30602 11.2543 9.3383 11.292 9.37596C11.292 9.38134 11.2973 9.38672 11.3027 9.3921L13.0134 10.9199L21.7823 3.04945C22.0836 2.78047 22.5409 2.80737 22.8098 3.10325C23.0788 3.40451 23.0519 3.86178 22.7561 4.13077Z" fill="currentColor"/>
    </symbol>

    <symbol viewBox="0 0 23 22" id="close-modal" xmlns="http://www.w3.org/2000/svg">
        <path fill-rule="evenodd" clip-rule="evenodd" d="M19.4452 1.06068C20.031 0.474891 20.9807 0.474891 21.5665 1.06068C22.1523 1.64646 22.1523 2.59621 21.5665 3.182L13.5286 11.22L21.754 19.4455C22.3398 20.0312 22.3398 20.981 21.754 21.5668C21.1683 22.1526 20.2185 22.1526 19.6327 21.5668L11.4072 13.3413L3.18175 21.5668C2.59597 22.1526 1.64622 22.1526 1.06043 21.5668C0.474647 20.981 0.474647 20.0312 1.06043 19.4455L9.28592 11.22L1.24794 3.182C0.662157 2.59621 0.662157 1.64646 1.24794 1.06068C1.83373 0.474891 2.78348 0.474891 3.36926 1.06068L11.4072 9.09865L19.4452 1.06068Z" fill="currentColor"/>
    </symbol>

    <symbol viewBox="0 0 114 114" id="success" xmlns="http://www.w3.org/2000/svg">
        <path fill-rule="evenodd" clip-rule="evenodd" d="M0 57C0 25.5683 25.5683 0 57 0C88.4317 0 114 25.5727 114 57C114 88.4273 88.4317 114 57 114C25.5683 114 0 88.4317 0 57ZM8.83032 57C8.83032 83.5618 30.4427 105.17 57 105.17C83.5573 105.17 105.17 83.5618 105.17 57C105.17 30.4382 83.5618 8.83032 57 8.83032C30.4427 8.83032 8.83032 30.4382 8.83032 57ZM76.9171 37.4759C78.5594 35.6702 81.3541 35.5422 83.1512 37.1758C84.9569 38.8139 85.0894 41.6042 83.4511 43.4146L53.3794 76.5285C52.5627 77.4292 51.4147 77.9502 50.1961 77.9767C50.181 77.9741 50.1645 77.9731 50.1481 77.9726C50.1358 77.9722 50.1235 77.9722 50.1121 77.9722C48.9289 77.9722 47.7987 77.4997 46.9642 76.6521L30.6767 60.0952C28.9636 58.3555 28.9901 55.5607 30.7297 53.8521C32.4648 52.139 35.2552 52.1655 36.9727 53.9051L49.9843 67.1329L76.9171 37.4759Z" fill="#374E73"/>
    </symbol>


    <symbol viewBox="" id="id" xmlns="http://www.w3.org/2000/svg">
        
    </symbol>
</svg>