<?xml version="1.0" encoding="UTF-8"?>

<svg version="1.1" xmlns="http://www.w3.org/2000/svg" xmlns:xlink="http://www.w3.org/1999/xlink">
    <symbol viewBox="0 0 46 38" id="logo" xmlns="http://www.w3.org/2000/svg">
        <path d="M18.3144 38.0003H0V5.52885H2.714V35.1783L5.11842 35.1363C9.69069 34.9984 14.2259 35.9827 18.3144 38.0003ZM43.286 5.52885V35.1783L40.8843 35.1363C36.3111 34.9976 31.7748 35.9819 27.6856 38.0003H46V5.52885H43.286ZM5.0738 0.902345V32.8138C10.9791 32.6353 16.8058 34.182 21.8178 37.2584V2.25542C16.2716 -0.727585 9.87482 -0.271132 5.0738 0.902345ZM40.9262 32.8138V0.902345C36.1252 -0.269774 29.7284 -0.726228 24.1822 2.25542V37.2584C29.1942 34.182 35.0209 32.6353 40.9262 32.8138Z" fill="currentColor" />
    </symbol>

    <symbol viewBox="0 0 31 23" id="quote" xmlns="http://www.w3.org/2000/svg">
        <path d="M6.80488 8.59657C10.5464 8.59657 13.5795 11.6297 13.5795 15.3712C13.5795 19.1127 10.5464 22.1458 6.80488 22.1458C3.06334 22.1458 0.0302439 19.1127 0.0302439 15.3712L0 14.4034C0 6.92033 6.0662 0.854126 13.5493 0.854126V4.72535C10.9642 4.72535 8.5338 5.73204 6.70586 7.55999C6.354 7.9119 6.03287 8.28632 5.7432 8.67962C6.08913 8.62518 6.44364 8.59657 6.80488 8.59657ZM24.2254 8.59657C27.9668 8.59657 31 11.6297 31 15.3712C31 19.1127 27.9668 22.1458 24.2254 22.1458C20.4839 22.1458 17.4507 19.1127 17.4507 15.3712L17.4205 14.4034C17.4205 6.92033 23.4866 0.854126 30.9698 0.854126V4.72535C28.3847 4.72535 25.9542 5.73204 24.1263 7.55999C23.7744 7.9119 23.4533 8.28632 23.1636 8.67962C23.5096 8.62518 23.8641 8.59657 24.2254 8.59657Z" fill="currentColor"/>
    </symbol>

    <symbol viewBox="0 0 20 10" id="arrow-top" xmlns="http://www.w3.org/2000/svg">
        <path d="M10.9406 0.359787L19.11 7.90288C19.63 8.38271 19.63 9.16067 19.11 9.64027C18.5906 10.1199 17.748 10.1199 17.2286 9.64027L9.99986 2.9658L2.77141 9.64008C2.25171 10.1197 1.40925 10.1197 0.889769 9.64008C0.370077 9.16044 0.370077 8.38251 0.889768 7.90268L9.05934 0.359592C9.3192 0.119773 9.65943 -4.00371e-07 9.99982 -4.1525e-07C10.3404 -4.30137e-07 10.6809 0.120007 10.9406 0.359787Z" fill="currentColor"/>
    </symbol>

    <symbol viewBox="0 0 8 4" id="dropdown-arrow" xmlns="http://www.w3.org/2000/svg">
        <path d="M4.39604 3.85609L7.83581 0.83885C8.05473 0.646917 8.05473 0.335731 7.83581 0.143892C7.61708 -0.0479634 7.26232 -0.0479634 7.04361 0.143892L3.99994 2.81368L0.956381 0.143969C0.737564 -0.0478861 0.382842 -0.0478861 0.164113 0.143969C-0.0547044 0.335824 -0.0547044 0.646994 0.164113 0.838927L3.60393 3.85616C3.71335 3.95209 3.8566 4 3.99992 4C4.14332 4 4.28668 3.952 4.39604 3.85609Z" fill="currentColor"/>
    </symbol>

    <symbol viewBox="0 0 10 19" id="arrow-left" xmlns="http://www.w3.org/2000/svg">
        <path d="M0.359787 10.4406L7.90288 18.61C8.38271 19.13 9.16067 19.13 9.64027 18.61C10.1199 18.0906 10.1199 17.248 9.64027 16.7286L2.9658 9.49986L9.64008 2.27141C10.1197 1.75171 10.1197 0.90925 9.64008 0.389769C9.16044 -0.129923 8.38251 -0.129923 7.90268 0.389769L0.359592 8.55934C0.119774 8.81921 0 9.15943 0 9.49982C0 9.84038 0.120008 10.1809 0.359787 10.4406Z" fill="currentColor"/>
    </symbol>

    <symbol viewBox="0 0 10 19" id="arrow-right" xmlns="http://www.w3.org/2000/svg">
        <path d="M9.64021 10.4406L2.09712 18.61C1.61729 19.13 0.839327 19.13 0.359728 18.61C-0.119909 18.0906 -0.119909 17.248 0.359728 16.7286L7.0342 9.49986L0.359922 2.27141C-0.119715 1.75171 -0.119715 0.90925 0.359922 0.389769C0.83956 -0.129923 1.61749 -0.129923 2.09732 0.389769L9.64041 8.55934C9.88023 8.81921 10 9.15943 10 9.49982C10 9.84038 9.87999 10.1809 9.64021 10.4406Z" fill="currentColor"/>
    </symbol>

    <symbol viewBox="0 0 25 8" id="visa" xmlns="http://www.w3.org/2000/svg">
        <path fill-rule="evenodd" clip-rule="evenodd" d="M6.7503 7.85786H4.69056L3.146 1.79198C3.07269 1.51295 2.91703 1.26627 2.68806 1.15001C2.11664 0.857839 1.48696 0.625314 0.800049 0.508041V0.274505H4.11813C4.57607 0.274505 4.91953 0.625314 4.97677 1.03274L5.77817 5.40826L7.83691 0.274505H9.83941L6.7503 7.85786ZM10.9843 7.85786H9.03902L10.6408 0.274505H12.5861L10.9843 7.85786ZM15.1028 2.37532C15.16 1.96689 15.5035 1.73335 15.9042 1.73335C16.5338 1.67471 17.2197 1.79199 17.7922 2.08315L18.1356 0.450419C17.5632 0.216883 16.9335 0.0996094 16.3621 0.0996094C14.4741 0.0996094 13.1003 1.15002 13.1003 2.60785C13.1003 3.71689 14.0734 4.29922 14.7603 4.65003C15.5035 4.99982 15.7897 5.23336 15.7324 5.58316C15.7324 6.10786 15.16 6.34139 14.5886 6.34139C13.9017 6.34139 13.2147 6.16649 12.5861 5.87432L12.2426 7.50806C12.9295 7.79922 13.6727 7.9165 14.3596 7.9165C16.4766 7.97412 17.7922 6.92473 17.7922 5.34962C17.7922 3.36608 15.1028 3.24982 15.1028 2.37532ZM24.6 7.85786L23.0555 0.274505H21.3965C21.053 0.274505 20.7095 0.508041 20.5951 0.857839L17.7349 7.85786H19.7374L20.1371 6.74982H22.5976L22.8265 7.85786H24.6ZM21.6827 2.31669L22.2541 5.17473H20.6523L21.6827 2.31669Z" fill="#172B85"/>
    </symbol>

    <symbol viewBox="0 0 23 14" id="mastercard" xmlns="http://www.w3.org/2000/svg">
        <path fill-rule="evenodd" clip-rule="evenodd" d="M11.179 11.8297C9.99493 12.8278 8.45902 13.4303 6.78069 13.4303C3.03582 13.4303 0 10.4306 0 6.73027C0 3.02997 3.03582 0.0302734 6.78069 0.0302734C8.45902 0.0302734 9.99493 0.632772 11.179 1.63081C12.363 0.632772 13.8989 0.0302734 15.5773 0.0302734C19.3221 0.0302734 22.358 3.02997 22.358 6.73027C22.358 10.4306 19.3221 13.4303 15.5773 13.4303C13.8989 13.4303 12.363 12.8278 11.179 11.8297Z" fill="#ED0006"/>
        <path fill-rule="evenodd" clip-rule="evenodd" d="M11.179 11.8297C12.6369 10.6008 13.5614 8.77223 13.5614 6.73027C13.5614 4.68832 12.6369 2.85972 11.179 1.63081C12.363 0.63277 13.8989 0.0302734 15.5772 0.0302734C19.3221 0.0302734 22.3579 3.02997 22.3579 6.73027C22.3579 10.4306 19.3221 13.4303 15.5772 13.4303C13.8989 13.4303 12.363 12.8278 11.179 11.8297Z" fill="#F9A000"/>
        <path fill-rule="evenodd" clip-rule="evenodd" d="M11.179 11.8297C12.6369 10.6008 13.5614 8.77224 13.5614 6.7303C13.5614 4.68835 12.6369 2.85976 11.179 1.63086C9.72109 2.85976 8.79663 4.68835 8.79663 6.7303C8.79663 8.77224 9.72109 10.6008 11.179 11.8297Z" fill="#FF5E00"/>
    </symbol>

    <symbol viewBox="0 0 30 7" id="liqpay" xmlns="http://www.w3.org/2000/svg">
        <path fill-rule="evenodd" clip-rule="evenodd" d="M27.4279 3.13309L24.1603 0.291929C24.1359 0.271233 24.1005 0.272382 24.0783 0.296528L23.5954 0.818539L26.2637 3.13309L23.5954 5.44765L24.0783 5.96966C24.1005 5.9938 24.1359 5.99495 24.1603 5.97425L27.4279 3.13309ZM21.9084 0.483946C21.9084 0.483946 22.1776 0.481647 22.2241 0.500043C22.3286 0.541282 22.2694 0.669581 22.2177 0.781503L22.2086 0.801292L20.8417 3.62981C20.7797 3.75858 20.7476 3.90001 20.7476 4.04374V5.7374C20.7476 5.85238 20.6578 5.94551 20.5471 5.94551H20.2624C20.1516 5.94551 20.0619 5.85238 20.0619 5.7374V4.03569C20.0619 3.89196 20.0298 3.75054 19.9678 3.62176L18.6064 0.802442L18.5962 0.779793C18.5458 0.668554 18.4884 0.542081 18.592 0.501193C18.6386 0.482796 18.9077 0.485096 18.9077 0.485096L18.932 0.485537C19.0987 0.48848 19.2072 0.490394 19.2843 0.601226C19.2965 0.618473 19.3054 0.63687 19.3142 0.655267L20.4241 3.07445L21.5019 0.654117C21.5107 0.63572 21.5196 0.617323 21.5318 0.600076C21.6078 0.490866 21.7142 0.488426 21.8768 0.484698L21.9084 0.483946ZM16.8842 0.486675C17.0249 0.492424 17.0902 0.621202 17.1401 0.772976L18.8791 5.82406C18.8791 5.89075 18.8248 5.94479 18.7572 5.94479H18.3773C18.2267 5.94479 18.1491 5.82176 18.1048 5.67344L17.7437 4.61102C17.7194 4.53973 17.654 4.49144 17.5809 4.49144H15.6469C15.5727 4.49144 15.5074 4.53973 15.483 4.61217L15.1363 5.66309C15.0931 5.81141 15.0189 5.93444 14.8749 5.93444H14.5116C14.4473 5.93444 14.3953 5.8804 14.3953 5.81371L16.1343 0.769526C16.1786 0.626951 16.2373 0.505071 16.3547 0.486675C16.3647 0.485525 16.3758 0.484375 16.3868 0.484375H16.4998C16.5109 0.484375 16.522 0.485525 16.5319 0.486675H16.7579H16.8753H16.8842ZM16.5984 1.24095L15.7211 3.89469H17.5012L16.5984 1.24095ZM26.5085 0.314925L29.7761 3.15609L26.5085 5.99725C26.4842 6.01795 26.4487 6.0168 26.4266 5.99265L25.9436 5.47064L28.612 3.15609L25.9436 0.841535L26.4266 0.319524C26.4487 0.295379 26.4842 0.294229 26.5085 0.314925ZM4.22463 0.480924H3.81258C3.72618 0.480924 3.65751 0.553362 3.65751 0.641897V5.76427C3.65751 5.8574 3.73061 5.93444 3.82144 5.93444H4.21799C4.30771 5.93444 4.38192 5.85855 4.38192 5.76427V0.643046C4.38081 0.553362 4.31103 0.480924 4.22463 0.480924ZM0.910498 5.2848H2.75033C2.83784 5.2848 2.90983 5.35954 2.91094 5.45037V5.73552C2.91094 5.82751 2.84005 5.9011 2.75144 5.9011H0.911606H0.408726C0.306821 5.9011 0.224854 5.81601 0.224854 5.71023V5.28595V0.643046C0.224854 0.554512 0.293529 0.482074 0.379927 0.482074H0.755425C0.840715 0.482074 0.910498 0.553362 0.910498 0.643046V5.2848ZM13.8558 0.782173C13.6265 0.6212 13.3097 0.50737 12.7038 0.50737H11.7479H11.5308C11.3912 0.50737 11.2771 0.62465 11.2771 0.770675V5.66424C11.2771 5.81371 11.3934 5.93559 11.5385 5.93559H11.7401C11.8841 5.93559 12.0015 5.81486 12.0015 5.66424V3.8257H13.0583C13.1613 3.8257 14.4838 3.61069 14.4838 2.11594C14.4827 1.46516 14.1615 0.998336 13.8558 0.782173ZM12.8179 3.2623H12.0813H12.0004V1.07077H12.5831C12.9829 1.07077 13.1923 1.14551 13.344 1.25244C13.5467 1.39502 13.7583 1.70316 13.7583 2.13319C13.7594 3.12087 12.8866 3.2623 12.8179 3.2623ZM10.5117 6.00458C10.5461 6.01838 10.5782 6.03447 10.607 6.05632C10.7288 6.14715 10.7499 6.26328 10.7499 6.26328C10.7499 6.26328 10.7754 6.7232 10.6314 6.7232C10.3323 6.7232 9.91471 6.4852 9.07288 5.83786C8.95547 5.74932 8.87018 5.74817 8.78267 5.78726H8.78157C8.4836 5.92984 8.14466 6.00343 7.77581 6.00343C5.96034 6.00343 5.45414 4.6984 5.45414 3.17376C5.45414 1.64912 6.20735 0.413086 7.77581 0.413086C9.4805 0.413086 10.1085 1.64912 10.1085 3.17376C10.1085 4.03612 9.89034 4.7191 9.51373 5.19857L9.51262 5.19972L9.49823 5.21811C9.47497 5.25606 9.44838 5.34689 9.62007 5.46187C9.6557 5.48572 9.69588 5.51315 9.73936 5.54282C9.96627 5.69767 10.2831 5.91388 10.5117 6.00458ZM6.19849 3.17376V3.18526C6.19849 4.22353 6.39676 5.35264 7.77802 5.35264C8.98095 5.35264 9.36531 4.4167 9.36531 3.18526V3.17376C9.3642 2.13894 9.15374 1.04088 7.77802 1.04088C6.56402 1.04088 6.20071 2.13894 6.19849 3.17376Z" fill="#76A62D"/>
    </symbol>

    <symbol viewBox="0 0 17 19" id="user" xmlns="http://www.w3.org/2000/svg">
        <path fill-rule="evenodd" clip-rule="evenodd" d="M5.39704 7.80808C6.28639 8.69743 7.37453 9.14818 8.63132 9.14818C9.88783 9.14818 10.976 8.69728 11.8655 7.80822C12.7547 6.91902 13.2056 5.83088 13.2056 4.57395C13.2056 3.3173 12.7547 2.22916 11.8655 1.33996C10.9763 0.450759 9.88826 0 8.63132 0C7.37467 0 6.28653 0.450759 5.39718 1.33982C4.50784 2.22931 4.05708 3.31744 4.05708 4.57395C4.05708 5.83088 4.50798 6.91888 5.39704 7.80808ZM8.63132 1.11291C9.59572 1.11291 10.3961 1.44457 11.0784 2.12687C11.7608 2.80931 12.0927 3.60984 12.0927 4.57395C12.0927 5.53835 11.7608 6.33888 11.0784 7.02117C10.3958 7.70347 9.59543 8.03527 8.63132 8.03527C7.66706 8.03527 6.86654 7.70361 6.18409 7.02117C5.5018 6.33873 5.16999 5.53835 5.16999 4.57395C5.16999 3.60984 5.5018 2.80931 6.18409 2.12687C6.86654 1.44457 7.66706 1.11291 8.63132 1.11291ZM0.782063 13.4034C0.705705 13.8296 0.653832 14.2333 0.628187 14.6033C0.602831 14.965 0.589935 15.3424 0.58979 15.7251C0.58979 16.7167 0.904931 17.5196 1.52652 18.111C2.14043 18.6951 2.9524 18.9913 3.93984 18.9913H13.0843C14.072 18.9913 14.884 18.6951 15.4977 18.111C16.1192 17.5191 16.4343 16.7166 16.4343 15.7252C16.4343 15.3439 16.4216 14.9664 16.3964 14.6038C16.3707 14.2329 16.319 13.829 16.2425 13.4034C16.1654 12.9739 16.0662 12.5681 15.9475 12.197C15.8246 11.8132 15.6577 11.4346 15.4515 11.0716C15.2377 10.695 14.9861 10.3671 14.7039 10.0971C14.4084 9.81438 14.0469 9.58733 13.6294 9.42201C13.2131 9.25713 12.7517 9.17352 12.258 9.17352C12.0641 9.17352 11.8766 9.25307 11.5148 9.48881C11.2886 9.63616 11.0278 9.80424 10.7396 9.98839C10.4913 10.1469 10.1541 10.2954 9.73828 10.4297C9.33186 10.5612 8.9195 10.6278 8.51264 10.6278C8.10549 10.6278 7.69313 10.5612 7.287 10.4297C6.87072 10.2953 6.5337 10.1468 6.28492 9.98825C5.99398 9.80235 5.73332 9.63428 5.51047 9.48895C5.14839 9.25321 4.9609 9.17367 4.76703 9.17367C4.27338 9.17367 3.8119 9.25713 3.39548 9.42187C2.97761 9.58748 2.61625 9.81452 2.32111 10.0969C2.03886 10.3669 1.78732 10.6949 1.57332 11.0716C1.36685 11.4346 1.20008 11.8133 1.07721 12.1968C0.958396 12.5679 0.859145 12.9739 0.782063 13.4034ZM3.93999 17.8783C3.23784 17.8783 2.69942 17.6907 2.29387 17.3047C1.89614 16.9263 1.70285 16.4096 1.70271 15.7252C1.70285 15.3684 1.71473 15.0172 1.73835 14.6812V14.6809C1.76124 14.3505 1.80819 13.9868 1.87745 13.5998C1.94584 13.2186 2.03321 12.8607 2.13709 12.5362C2.23649 12.2257 2.3724 11.9178 2.54091 11.6215C2.70159 11.3386 2.88648 11.0962 3.09048 10.9011C3.28131 10.7185 3.52183 10.5688 3.80509 10.4567C4.06735 10.3529 4.36191 10.2961 4.68183 10.2876C4.72081 10.3083 4.79021 10.348 4.90265 10.4212C5.13144 10.5704 5.38775 10.7356 5.68608 10.9263C6.01513 11.1361 6.43836 11.3252 6.94461 11.4888C7.46145 11.6558 7.989 11.7407 8.51249 11.7407C9.03599 11.7407 9.5634 11.6558 10.0805 11.4886C10.5863 11.3253 11.0097 11.1361 11.3383 10.9266C11.6298 10.7404 11.8936 10.5703 12.1223 10.4212C12.2348 10.3479 12.3042 10.3083 12.3432 10.2876C12.6629 10.2961 12.9575 10.3529 13.2196 10.4567C13.503 10.5688 13.7435 10.7184 13.9344 10.9011C14.1384 11.0964 14.3232 11.3388 14.4839 11.6213C14.6523 11.9178 14.7881 12.2255 14.8876 12.5363C14.9913 12.8604 15.0786 13.2185 15.1471 13.6C15.2165 13.9863 15.2633 14.3498 15.2862 14.6807C15.3097 15.018 15.3214 15.3694 15.3214 15.7252C15.3214 16.4094 15.1281 16.9263 14.7304 17.3049C14.325 17.6907 13.7866 17.8783 13.0843 17.8783H3.93999Z" fill="currentColor"/>
    </symbol>

    <symbol viewBox="0 0 15 11" id="check" xmlns="http://www.w3.org/2000/svg">
        <path d="M14.5606 2.6051L6.64752 10.5177C6.06154 11.1038 5.11099 11.1038 4.52446 10.5177L0.439649 6.43257C-0.14655 5.84648 -0.14655 4.89582 0.439649 4.30962C1.02596 3.72331 1.97643 3.72331 2.56248 4.3094L5.5863 7.33326L12.4375 0.482046C13.0238 -0.104264 13.9743 -0.103819 14.5604 0.482046C15.1465 1.06825 15.1465 2.01857 14.5606 2.6051Z" fill="currentColor"/>
    </symbol>

    <symbol viewBox="0 0 15 15" id="cross" xmlns="http://www.w3.org/2000/svg">
        <path fill-rule="evenodd" clip-rule="evenodd" d="M14.0144 0.985557C13.4009 0.372002 12.4114 0.372002 11.7978 0.985557L7.49986 5.28351L3.20191 0.985557C2.58836 0.372002 1.59887 0.372002 0.985313 0.985557C0.371758 1.59911 0.371758 2.5886 0.985313 3.20216L5.28326 7.50011L0.985313 11.7981C0.371758 12.4116 0.371758 13.4011 0.985313 14.0147C1.28225 14.3116 1.68426 14.4762 2.09077 14.4762C2.48106 14.4762 2.89095 14.3282 3.20063 14.0103L7.49418 9.71671L11.7921 14.0147C12.0891 14.3116 12.4911 14.4762 12.8976 14.4762C13.2971 14.4762 13.7007 14.3257 14.0084 14.0093C14.6165 13.3955 14.6145 12.4099 14.003 11.7981L9.7158 7.50077L14.0144 3.20216C14.628 2.5886 14.628 1.59911 14.0144 0.985557ZM1.34778 1.90913C1.28503 2.16121 1.35276 2.43824 1.551 2.63647L6.41456 7.50003L6.41468 7.49991L1.55105 2.63628C1.35286 2.43809 1.28511 2.16116 1.34778 1.90913ZM1.34778 12.7216C1.28503 12.9737 1.35276 13.2507 1.551 13.449C1.69873 13.5967 1.89759 13.6762 2.09077 13.6762C2.28395 13.6762 2.48282 13.6024 2.63054 13.449L7.49418 8.58533L12.3578 13.449C12.5055 13.5967 12.7044 13.6762 12.8976 13.6762C13.0965 13.6762 13.2896 13.6024 13.4374 13.449C13.5403 13.346 13.6081 13.2218 13.6406 13.0909C13.6081 13.2217 13.5403 13.3459 13.4374 13.4488C13.2897 13.6022 13.0965 13.676 12.8976 13.676C12.7045 13.676 12.5056 13.5965 12.3579 13.4488L7.49423 8.58514L2.63059 13.4488C2.48287 13.6022 2.284 13.676 2.09082 13.676C1.89764 13.676 1.69877 13.5965 1.55105 13.4488C1.35286 13.2506 1.28511 12.9737 1.34778 12.7216ZM8.58521 7.49999L13.4487 2.63647C13.5517 2.53352 13.6194 2.40931 13.652 2.27839C13.6194 2.40924 13.5517 2.53337 13.4488 2.63628L8.58514 7.49991L8.58521 7.49999Z" fill="currentColor"/>
    </symbol>

    <symbol viewBox="0 0 11 14" id="play" xmlns="http://www.w3.org/2000/svg">
        <path fill-rule="evenodd" clip-rule="evenodd" d="M8.89774 6.9999L1.99988 2.40137V11.5986L8.89774 6.9999ZM10.2913 6.12628C10.9148 6.54196 10.9148 7.45799 10.2913 7.87366L2.13221 13.3132C1.43447 13.7784 0.499756 13.278 0.499756 12.4394V1.56053C0.499756 0.721904 1.43447 0.221703 2.13221 0.686922L10.2913 6.12628Z" fill="currentColor"/>
    </symbol>

    <symbol viewBox="0 0 26 20" id="email" xmlns="http://www.w3.org/2000/svg">
        <path fill-rule="evenodd" clip-rule="evenodd" d="M3.17939 0.106766H22.826C24.5798 0.106766 26.0054 1.53776 26 3.29154V16.7138C26 18.4676 24.5744 19.8932 22.8206 19.8932H3.17939C1.42562 19.8932 0 18.4676 0 16.7138V3.28616C0 1.53238 1.42562 0.106766 3.17939 0.106766ZM22.826 18.4407C23.7782 18.4407 24.5529 17.666 24.5529 16.7138H24.5475V3.29154C24.5475 2.33933 23.7728 1.56466 22.8206 1.56466H3.17939C2.22719 1.56466 1.45251 2.33933 1.45251 3.29154V16.7138C1.45251 17.666 2.22719 18.4407 3.17939 18.4407H22.826ZM22.7561 4.13077L16.3973 9.83323L22.7829 15.8961C23.0735 16.1705 23.0842 16.6331 22.8098 16.9236C22.6646 17.0743 22.4763 17.1496 22.2826 17.1496C22.1051 17.1496 21.9222 17.085 21.7823 16.9505L15.316 10.807L13.503 12.4316C13.3685 12.5553 13.191 12.6199 13.0188 12.6199C12.8467 12.6199 12.6745 12.5607 12.5347 12.437L10.7701 10.8607L4.26609 16.9452C4.12622 17.0743 3.94869 17.1388 3.77116 17.1388C3.57749 17.1388 3.38382 17.0581 3.23857 16.9075C2.9642 16.6116 2.98034 16.1544 3.27085 15.88L9.67805 9.88165L3.24395 4.13077C2.94269 3.86178 2.91579 3.40451 3.18477 3.10325C3.45376 2.80199 3.91103 2.77509 4.21229 3.04407L11.1736 9.27374C11.2166 9.30602 11.2543 9.3383 11.292 9.37596C11.292 9.38134 11.2973 9.38672 11.3027 9.3921L13.0134 10.9199L21.7823 3.04945C22.0836 2.78047 22.5409 2.80737 22.8098 3.10325C23.0788 3.40451 23.0519 3.86178 22.7561 4.13077Z" fill="currentColor"/>
    </symbol>

    <symbol viewBox="0 0 23 22" id="close-modal" xmlns="http://www.w3.org/2000/svg">
        <path fill-rule="evenodd" clip-rule="evenodd" d="M19.4452 1.06068C20.031 0.474891 20.9807 0.474891 21.5665 1.06068C22.1523 1.64646 22.1523 2.59621 21.5665 3.182L13.5286 11.22L21.754 19.4455C22.3398 20.0312 22.3398 20.981 21.754 21.5668C21.1683 22.1526 20.2185 22.1526 19.6327 21.5668L11.4072 13.3413L3.18175 21.5668C2.59597 22.1526 1.64622 22.1526 1.06043 21.5668C0.474647 20.981 0.474647 20.0312 1.06043 19.4455L9.28592 11.22L1.24794 3.182C0.662157 2.59621 0.662157 1.64646 1.24794 1.06068C1.83373 0.474891 2.78348 0.474891 3.36926 1.06068L11.4072 9.09865L19.4452 1.06068Z" fill="currentColor"/>
    </symbol>

    <symbol viewBox="0 0 114 114" id="success" xmlns="http://www.w3.org/2000/svg">
        <path fill-rule="evenodd" clip-rule="evenodd" d="M0 57C0 25.5683 25.5683 0 57 0C88.4317 0 114 25.5727 114 57C114 88.4273 88.4317 114 57 114C25.5683 114 0 88.4317 0 57ZM8.83032 57C8.83032 83.5618 30.4427 105.17 57 105.17C83.5573 105.17 105.17 83.5618 105.17 57C105.17 30.4382 83.5618 8.83032 57 8.83032C30.4427 8.83032 8.83032 30.4382 8.83032 57ZM76.9171 37.4759C78.5594 35.6702 81.3541 35.5422 83.1512 37.1758C84.9569 38.8139 85.0894 41.6042 83.4511 43.4146L53.3794 76.5285C52.5627 77.4292 51.4147 77.9502 50.1961 77.9767C50.181 77.9741 50.1645 77.9731 50.1481 77.9726C50.1358 77.9722 50.1235 77.9722 50.1121 77.9722C48.9289 77.9722 47.7987 77.4997 46.9642 76.6521L30.6767 60.0952C28.9636 58.3555 28.9901 55.5607 30.7297 53.8521C32.4648 52.139 35.2552 52.1655 36.9727 53.9051L49.9843 67.1329L76.9171 37.4759Z" fill="#374E73"/>
    </symbol>

    <symbol viewBox="0 0 78 22" id="app-store" xmlns="http://www.w3.org/2000/svg">
        <path fill-rule="evenodd" clip-rule="evenodd" d="M10.1488 3.47185C10.7703 2.67942 11.1955 1.60135 11.0775 0.507324C10.1779 0.547924 9.05295 1.1417 8.40513 1.91672C7.83197 2.59967 7.31997 3.71907 7.45224 4.77177C8.46273 4.84862 9.50024 4.25195 10.1488 3.47185ZM12.4243 10.3434C12.4039 8.02419 14.2727 6.88699 14.3855 6.81837L14.3877 6.817C13.3132 5.21982 11.6478 5.0016 11.0625 4.9842C10.2068 4.89238 9.36676 5.2323 8.68034 5.51006C8.24478 5.68631 7.87107 5.83752 7.59446 5.83752C7.27953 5.83752 6.89503 5.68001 6.46416 5.5035C5.90073 5.27268 5.258 5.00938 4.58788 5.02335C3.0661 5.04727 1.64246 5.94555 0.861659 7.34045C-0.749719 10.1846 0.45206 14.3642 1.99588 16.6632C2.76815 17.7891 3.67055 19.0463 4.8517 19.0021C5.38752 18.9795 5.76768 18.8164 6.16037 18.6479C6.61456 18.453 7.0855 18.251 7.83339 18.251C8.53883 18.251 8.98976 18.4468 9.42249 18.6347C9.83733 18.8148 10.2354 18.9876 10.825 18.9738C12.0652 18.9535 12.846 17.8428 13.5913 16.7067C14.4837 15.4162 14.8421 14.1453 14.8563 14.08C14.8272 14.0699 12.4478 13.1441 12.4243 10.3434ZM27.5326 18.8404H29.1475L26.0862 9.1921H24.2046L21.1582 18.8404H22.7305L23.5731 16.0064H26.648L27.5326 18.8404ZM25.5813 12.298L26.3813 14.8174H23.8405L24.6263 12.298C24.8325 11.4969 24.9826 10.8908 25.0757 10.4804H25.1042C25.3381 11.4345 25.4967 12.0406 25.5813 12.298ZM36.9818 15.2763C36.9818 16.4595 36.6682 17.3947 36.041 18.0813C35.4793 18.6925 34.7817 18.9977 33.949 18.9977C33.0501 18.9977 32.4044 18.6686 32.0112 18.0103H31.9827V21.6751H30.4666V14.1736C30.4666 13.4297 30.4474 12.6663 30.4105 11.8833H31.7438L31.8284 12.986H31.8569C32.3625 12.1552 33.1298 11.7405 34.1594 11.7405C34.9644 11.7405 35.6364 12.0645 36.174 12.7134C36.713 13.363 36.9818 14.2171 36.9818 15.2763ZM35.4373 15.3328C35.4373 14.6557 35.288 14.0974 34.9879 13.6581C34.6601 13.1999 34.2199 12.9708 33.6681 12.9708C33.294 12.9708 32.9541 13.0984 32.6505 13.35C32.3461 13.6037 32.147 13.935 32.0538 14.3454C32.0069 14.5368 31.9834 14.6934 31.9834 14.8166V15.9766C31.9834 16.4827 32.1356 16.9097 32.44 17.2584C32.7443 17.6072 33.1397 17.7812 33.6261 17.7812C34.1971 17.7812 34.6416 17.5564 34.9594 17.1084C35.278 16.6596 35.4373 16.068 35.4373 15.3328ZM43.8889 18.0813C44.5168 17.3947 44.8304 16.4595 44.8304 15.2763C44.8304 14.2171 44.5609 13.363 44.024 12.7134C43.485 12.0645 42.813 11.7405 42.0087 11.7405C40.9783 11.7405 40.211 12.1552 39.7061 12.986H39.6777L39.593 11.8833H38.2597C38.2967 12.6663 38.3159 13.4297 38.3159 14.1736V21.6751H39.832V18.0103H39.8604C40.253 18.6686 40.8986 18.9977 41.7975 18.9977C42.6302 18.9977 43.3278 18.6925 43.8889 18.0813ZM42.8357 13.6581C43.1358 14.0974 43.2858 14.6557 43.2858 15.3328C43.2858 16.068 43.1266 16.6596 42.808 17.1084C42.4901 17.5564 42.0457 17.7812 41.4746 17.7812C40.9868 17.7812 40.5914 17.6064 40.2871 17.2584C39.9842 16.9097 39.832 16.4827 39.832 15.9766V14.8166C39.832 14.6934 39.8562 14.5368 39.9024 14.3454C39.9955 13.935 40.1939 13.6037 40.4983 13.35C40.8026 13.0984 41.1418 12.9708 41.5166 12.9708C42.0691 12.9708 42.5079 13.1999 42.8357 13.6581ZM53.6055 16.1347C53.6055 16.9554 53.326 17.6231 52.765 18.1386C52.1484 18.7019 51.2901 18.9832 50.1872 18.9832C49.1689 18.9832 48.3525 18.7831 47.7346 18.3822L48.0858 17.0939C48.7514 17.5042 49.4818 17.7101 50.2775 17.7101C50.8485 17.7101 51.293 17.5782 51.6122 17.3157C51.9301 17.0533 52.0887 16.7009 52.0887 16.2616C52.0887 15.8701 51.9578 15.5402 51.6954 15.2727C51.4345 15.0051 50.9986 14.7565 50.3898 14.5266C48.733 13.8966 47.9052 12.9737 47.9052 11.76C47.9052 10.9669 48.1954 10.3166 48.7763 9.81052C49.3552 9.30375 50.1274 9.05072 51.0931 9.05072C51.9543 9.05072 52.6697 9.2037 53.2407 9.50892L52.8617 10.769C52.3283 10.4732 51.7253 10.3253 51.0505 10.3253C50.5171 10.3253 50.1004 10.4594 49.8018 10.7262C49.5493 10.9647 49.4227 11.2554 49.4227 11.5998C49.4227 11.9812 49.5671 12.2965 49.8572 12.5445C50.1097 12.7736 50.5683 13.0215 51.2339 13.2891C52.0482 13.6233 52.6462 14.0141 53.0309 14.4621C53.4142 14.9087 53.6055 15.4677 53.6055 16.1347ZM56.947 13.0433H58.6181V11.8818H56.947V10.1498L55.4579 10.608V11.8818H54.4624V13.0418H55.4579V16.5487C55.4579 17.4266 55.6272 18.0516 55.9635 18.4242C56.3013 18.7962 56.7692 18.9825 57.368 18.9825C57.8551 18.9825 58.2483 18.9252 58.547 18.8114L58.5051 17.6376C58.3273 17.6855 58.1026 17.7094 57.8316 17.7094C57.2414 17.7094 56.947 17.2802 56.947 16.4211V13.0433ZM66.158 15.3046C66.158 16.3739 65.8579 17.2519 65.2592 17.9385C64.6313 18.6454 63.7979 18.9977 62.7589 18.9977C61.7577 18.9977 60.9605 18.6591 60.366 17.982C59.7715 17.3048 59.4743 16.4501 59.4743 15.4198C59.4743 14.3418 59.7801 13.4587 60.3938 12.7721C61.006 12.0848 61.8323 11.7412 62.8713 11.7412C63.8725 11.7412 64.6782 12.0798 65.2862 12.7576C65.8679 13.4152 66.158 14.2642 66.158 15.3046ZM64.585 15.3546C64.585 14.713 64.4506 14.1627 64.1783 13.7038C63.8604 13.1484 63.406 12.8715 62.8172 12.8715C62.2078 12.8715 61.7449 13.1491 61.427 13.7038C61.1546 14.1634 61.0202 14.7224 61.0202 15.3836C61.0202 16.0252 61.1546 16.5755 61.427 17.0337C61.7548 17.589 62.2128 17.866 62.8037 17.866C63.3826 17.866 63.837 17.5832 64.1648 17.0192C64.4443 16.5516 64.585 15.9955 64.585 15.3546ZM70.6082 13.1999C70.776 13.1999 70.936 13.2144 71.086 13.2427V11.7687C70.9737 11.7506 70.8471 11.7405 70.707 11.7405C70.3138 11.7405 69.949 11.8644 69.6112 12.1131C69.2656 12.3893 69.0131 12.7576 68.8531 13.2151H68.8112L68.7557 11.884H67.4352C67.4729 12.5423 67.4921 13.2724 67.4921 14.0742L67.4778 18.8404H68.9932V15.19C68.9932 14.6368 69.1198 14.1786 69.3722 13.8161C69.6624 13.4051 70.0748 13.1999 70.6082 13.1999ZM77.8665 15.0327C77.8665 15.3096 77.8487 15.5431 77.811 15.7338H73.2627C73.2805 16.4211 73.5003 16.9467 73.9227 17.3092C74.3059 17.6333 74.8016 17.7957 75.4103 17.7957C76.0837 17.7957 76.6981 17.6862 77.2506 17.4665L77.4882 18.5395C76.8425 18.8266 76.0802 18.9694 75.2005 18.9694C74.1424 18.9694 73.3118 18.6519 72.7074 18.0175C72.1043 17.3831 71.8021 16.5313 71.8021 15.4626C71.8021 14.4135 72.083 13.5399 72.6455 12.8432C73.2343 12.0993 74.03 11.7274 75.0313 11.7274C76.0147 11.7274 76.7593 12.0993 77.2649 12.8432C77.6652 13.4341 77.8665 14.1649 77.8665 15.0327ZM76.4208 14.6318C76.4307 14.1736 76.3319 13.7777 76.1264 13.4435C75.864 13.0136 75.4608 12.799 74.9182 12.799C74.4226 12.799 74.0194 13.0085 73.7115 13.429C73.459 13.7632 73.309 14.1641 73.2627 14.631L76.4208 14.6318ZM25.1276 5.18359C25.629 4.75221 25.88 4.10986 25.88 3.25654C25.88 2.49674 25.6474 1.91311 25.1838 1.50494C24.7699 1.14389 24.1562 0.963363 23.342 0.963363C22.8812 0.963363 22.4546 0.996713 22.0585 1.06196V5.72444C22.3621 5.76214 22.7248 5.78099 23.1486 5.78099C24.0034 5.78099 24.6633 5.58161 25.1276 5.18359ZM24.6633 2.00446C24.9506 2.30026 25.0942 2.72439 25.0942 3.27756C25.0942 3.89671 24.9378 4.36796 24.6277 4.69131C24.3177 5.01466 23.8775 5.17634 23.3072 5.17634C23.0633 5.17634 22.8955 5.16981 22.8037 5.15531V1.61079C22.9694 1.57744 23.1692 1.56149 23.4039 1.56149C23.9564 1.56149 24.376 1.70939 24.6633 2.00446ZM30.0464 4.00184C30.0464 4.52746 29.8992 4.95811 29.6048 5.29596C29.2962 5.64324 28.8873 5.81651 28.3767 5.81651C27.8846 5.81651 27.4928 5.65049 27.2005 5.31699C26.909 4.98421 26.7632 4.56444 26.7632 4.05839C26.7632 3.52914 26.9132 3.09486 27.2147 2.75774C27.5163 2.42061 27.9216 2.25169 28.4322 2.25169C28.9243 2.25169 29.3196 2.41771 29.619 2.75049C29.9035 3.07384 30.0464 3.49144 30.0464 4.00184ZM29.2734 4.02649C29.2734 3.71111 29.2066 3.44069 29.0736 3.21521C28.9171 2.94261 28.6946 2.80631 28.4051 2.80631C28.1058 2.80631 27.8782 2.94261 27.7218 3.21521C27.5881 3.44069 27.5219 3.71546 27.5219 4.04026C27.5219 4.35564 27.5888 4.62606 27.7218 4.85154C27.8832 5.12414 28.1079 5.26044 28.398 5.26044C28.6825 5.26044 28.9058 5.12196 29.0665 4.84429C29.2044 4.61446 29.2734 4.34186 29.2734 4.02649ZM35.6327 2.32201L35.6329 2.32129V2.32201H35.6327ZM34.9011 2.32201H35.6327L34.584 5.73894H33.9013L33.4668 4.25486C33.3566 3.88439 33.267 3.51609 33.1973 3.15069H33.1838C33.1191 3.52624 33.0295 3.89381 32.9143 4.25486L32.4528 5.73894H31.7623L30.776 2.32129H31.5419L31.9209 3.94601C32.0126 4.33026 32.088 4.69639 32.1484 5.04294H32.1619C32.2174 4.75729 32.3091 4.39334 32.4386 3.95326L32.9143 2.32201H33.5216L33.9774 3.91846C34.0876 4.30779 34.1772 4.68261 34.2462 5.04366H34.2668C34.3173 4.69204 34.3934 4.31721 34.4944 3.91846L34.9011 2.32201ZM39.4963 5.73894H38.7511V3.78144C38.7511 3.17824 38.5264 2.87664 38.0755 2.87664C37.8544 2.87664 37.6759 2.95929 37.5372 3.12531C37.4 3.29134 37.3303 3.48709 37.3303 3.71111V5.73821H36.585V3.29786C36.585 2.99771 36.5758 2.67219 36.558 2.31984H37.213L37.2478 2.85416H37.2684C37.3552 2.68814 37.4846 2.55111 37.6546 2.44164C37.8565 2.31404 38.0826 2.24951 38.3301 2.24951C38.643 2.24951 38.9033 2.35246 39.1102 2.55909C39.3676 2.81211 39.4963 3.18984 39.4963 3.69154V5.73894ZM40.8069 5.73894H41.5514V0.753113H40.8069V5.73894ZM45.939 4.00184C45.939 4.52746 45.7918 4.95811 45.4974 5.29596C45.1888 5.64324 44.7792 5.81651 44.2693 5.81651C43.7765 5.81651 43.3847 5.65049 43.0931 5.31699C42.8016 4.98421 42.6558 4.56444 42.6558 4.05839C42.6558 3.52914 42.8059 3.09486 43.1074 2.75774C43.4089 2.42061 43.8142 2.25169 44.3241 2.25169C44.8169 2.25169 45.2115 2.41771 45.5116 2.75049C45.7961 3.07384 45.939 3.49144 45.939 4.00184ZM45.1653 4.02649C45.1653 3.71111 45.0985 3.44069 44.9655 3.21521C44.8098 2.94261 44.5865 2.80631 44.2978 2.80631C43.9977 2.80631 43.7701 2.94261 43.6144 3.21521C43.4807 3.44069 43.4146 3.71546 43.4146 4.04026C43.4146 4.35564 43.4814 4.62606 43.6144 4.85154C43.7758 5.12414 44.0005 5.26044 44.2907 5.26044C44.5751 5.26044 44.7977 5.12196 44.9584 4.84429C45.097 4.61446 45.1653 4.34186 45.1653 4.02649ZM48.8766 5.73894H49.5458C49.5138 5.53739 49.4974 5.26551 49.4974 4.92404V3.66544C49.4974 2.72294 49.0579 2.25169 48.1819 2.25169C47.7282 2.25169 47.3434 2.35029 47.032 2.54676L47.1835 3.04556C47.4352 2.87736 47.7267 2.79254 48.0574 2.79254C48.5218 2.79254 48.7536 3.01729 48.7536 3.46751V3.53131C48.1328 3.52624 47.6507 3.63426 47.3079 3.85466C46.9644 4.07506 46.7938 4.39334 46.7938 4.81094C46.7938 5.08716 46.8812 5.31989 47.0562 5.50694C47.2489 5.71284 47.5049 5.81651 47.8213 5.81651C48.2451 5.81651 48.5715 5.65919 48.8005 5.34526H48.8211L48.8766 5.73894ZM48.7721 4.03736V4.56444C48.7721 4.61591 48.7678 4.66086 48.76 4.69784C48.728 4.86241 48.6419 4.99654 48.5019 5.10239C48.3625 5.20751 48.2096 5.26044 48.046 5.26044C47.9003 5.26044 47.7779 5.21621 47.6819 5.12704C47.5859 5.03786 47.539 4.90446 47.539 4.72611C47.539 4.25269 47.95 4.02286 48.7721 4.03736ZM53.7804 5.73894H53.1191L53.0843 5.19011H53.0636C52.8524 5.60771 52.4926 5.81651 51.987 5.81651C51.5831 5.81651 51.2467 5.65484 50.9801 5.33149C50.7134 5.00814 50.5804 4.58836 50.5804 4.07289C50.5804 3.51971 50.7248 3.07166 51.0149 2.72946C51.2958 2.41046 51.64 2.25096 52.0496 2.25096C52.4997 2.25096 52.8147 2.40539 52.9939 2.71496H53.0082V0.753113H53.7541V4.81819C53.7541 5.15096 53.7627 5.45764 53.7804 5.73894ZM53.0082 4.29764V3.72779C53.0082 3.62919 53.001 3.54944 52.9875 3.48854C52.9456 3.30584 52.8553 3.15214 52.718 3.02816C52.5794 2.90419 52.4122 2.84184 52.2195 2.84184C51.9415 2.84184 51.7239 2.95421 51.5639 3.17969C51.4053 3.40516 51.325 3.69299 51.325 4.04461C51.325 4.38246 51.4011 4.65651 51.5539 4.86749C51.7154 5.09224 51.933 5.20461 52.2053 5.20461C52.4499 5.20461 52.6455 5.11109 52.7941 4.92331C52.9378 4.75004 53.0082 4.54124 53.0082 4.29764ZM59.7125 5.29596C60.0069 4.95811 60.1541 4.52746 60.1541 4.00184C60.1541 3.49144 60.0112 3.07384 59.7267 2.75049C59.4281 2.41771 59.032 2.25169 58.5406 2.25169C58.0293 2.25169 57.624 2.42061 57.3225 2.75774C57.021 3.09486 56.8709 3.52914 56.8709 4.05839C56.8709 4.56444 57.0167 4.98421 57.3083 5.31699C57.6012 5.65049 57.9931 5.81651 58.4844 5.81651C58.9957 5.81651 59.4039 5.64324 59.7125 5.29596ZM59.182 3.21521C59.315 3.44069 59.3819 3.71111 59.3819 4.02649C59.3819 4.34186 59.3122 4.61446 59.1749 4.84429C59.0142 5.12196 58.7902 5.26044 58.5058 5.26044C58.2156 5.26044 57.9909 5.12414 57.8295 4.85154C57.6965 4.62606 57.6297 4.35564 57.6297 4.04026C57.6297 3.71546 57.6958 3.44069 57.8295 3.21521C57.9866 2.94261 58.2142 2.80631 58.5129 2.80631C58.803 2.80631 59.0249 2.94261 59.182 3.21521ZM64.1612 5.73894H63.4167V3.78144C63.4167 3.17824 63.192 2.87664 62.7404 2.87664C62.5193 2.87664 62.3408 2.95929 62.2028 3.12531C62.0649 3.29134 61.9959 3.48709 61.9959 3.71111V5.73821H61.2499V3.29786C61.2499 2.99771 61.2414 2.67219 61.2236 2.31984H61.8779L61.9127 2.85416H61.9333C62.0208 2.68814 62.1502 2.55111 62.3195 2.44164C62.5221 2.31404 62.7475 2.24951 62.9957 2.24951C63.3079 2.24951 63.5682 2.35246 63.7751 2.55909C64.0332 2.81211 64.1612 3.18984 64.1612 3.69154V5.73894ZM68.3561 2.89041H69.1767L69.176 2.32056H68.3554V1.47014L67.6251 1.69489V2.32129H67.1351V2.89041H67.6251V4.61374C67.6251 5.04511 67.7075 5.35251 67.8739 5.53521C68.0396 5.71791 68.2686 5.80926 68.563 5.80926C68.8012 5.80926 68.9947 5.78099 69.1419 5.72444L69.1227 5.14806C69.0352 5.17199 68.9242 5.18359 68.7906 5.18359C68.5018 5.18359 68.3561 4.97261 68.3561 4.55066V2.89041ZM73.1219 5.73894H72.376V3.79594C72.376 3.18331 72.1513 2.87664 71.7011 2.87664C71.3555 2.87664 71.1195 3.05426 70.99 3.40951C70.968 3.48419 70.9552 3.57554 70.9552 3.68284V5.73821H70.2107V0.753113H70.9552V2.81284H70.9694C71.2041 2.43801 71.5404 2.25096 71.9763 2.25096C72.285 2.25096 72.5403 2.35391 72.7429 2.56054C72.9954 2.81791 73.1219 3.20071 73.1219 3.70676V5.73894ZM77.1639 4.21281C77.1817 4.11929 77.1916 4.00474 77.1916 3.86844C77.1916 3.44214 77.0928 3.08326 76.893 2.79326C76.6455 2.42786 76.2793 2.24516 75.7971 2.24516C75.3043 2.24516 74.9139 2.42786 74.6252 2.79326C74.3486 3.13546 74.2114 3.56466 74.2114 4.08014C74.2114 4.60504 74.3586 5.02336 74.6558 5.33511C74.9516 5.64686 75.3605 5.80274 75.8796 5.80274C76.3127 5.80274 76.6867 5.73241 77.0046 5.59176L76.888 5.06396C76.6163 5.17199 76.3148 5.22564 75.9842 5.22564C75.6855 5.22564 75.4416 5.14589 75.2524 4.98639C75.0455 4.80804 74.9388 4.55066 74.9289 4.21281H77.1639ZM76.3362 3.08834C76.4371 3.25219 76.4862 3.44649 76.4805 3.67196H74.9289C74.953 3.44214 75.0263 3.24566 75.15 3.08109C75.3015 2.87446 75.4999 2.77151 75.7431 2.77151C76.0098 2.77151 76.2067 2.87736 76.3362 3.08834Z" fill="white"/>
    </symbol>

    <symbol viewBox="0 0 85 21" id="google-play" xmlns="http://www.w3.org/2000/svg">
        <path d="M8.03864 10.0827L0.310791 18.2749C0.311082 18.2766 0.311662 18.278 0.311934 18.2797C0.548942 19.1693 1.36249 19.8243 2.32801 19.8243C2.71398 19.8243 3.07635 19.7201 3.38712 19.5371L3.4118 19.5227L12.1109 14.5093L8.03864 10.0827Z" fill="#EB3131" style="fill:#EB3131;fill:color(display-p3 0.9216 0.1922 0.1922);fill-opacity:1;"/>
        <path d="M15.8574 8.68795L15.85 8.68289L12.0943 6.50842L7.86304 10.2688L12.109 14.5088L15.8449 12.356C16.4998 12.0029 16.9445 11.3132 16.9445 10.518C16.9445 9.72848 16.5059 9.04226 15.8574 8.68795Z" fill="#F6B60B" style="fill:#F6B60B;fill:color(display-p3 0.9647 0.7137 0.0431);fill-opacity:1;"/>
        <path d="M0.309767 2.72626C0.26331 2.89735 0.238892 3.07657 0.238892 3.26268V17.739C0.238892 17.9248 0.263021 18.1046 0.310061 18.2751L8.30468 10.2922L0.309767 2.72626Z" fill="#5778C5" style="fill:#5778C5;fill:color(display-p3 0.3412 0.4706 0.7725);fill-opacity:1;"/>
        <path d="M8.09575 10.5008L12.096 6.50691L3.40662 1.47534C3.09077 1.28641 2.72214 1.17737 2.32769 1.17737C1.36218 1.17737 0.547523 1.83357 0.310471 2.72418C0.310181 2.72505 0.310181 2.72565 0.310181 2.72641L8.09575 10.5008Z" fill="#3BAD49" style="fill:#3BAD49;fill:color(display-p3 0.2314 0.6784 0.2863);fill-opacity:1;"/>
        <path d="M70.6268 17.7502H71.9814V8.68633H70.6268V17.7502ZM82.8273 11.9516L81.2746 15.881H81.2282L79.6167 11.9516H78.1576L80.5749 17.4435L79.1964 20.4986H80.609L84.3337 11.9518L82.8273 11.9516ZM75.1452 16.7206C74.7024 16.7206 74.0832 16.4988 74.0832 15.9509C74.0832 15.2513 74.8541 14.9832 75.5191 14.9832C76.1143 14.9832 76.3952 15.1112 76.7567 15.2862C76.6515 16.1259 75.9277 16.7206 75.1452 16.7206ZM75.3092 11.7533C74.3285 11.7533 73.313 12.1849 72.8927 13.141L74.0948 13.6423C74.3518 13.141 74.8301 12.9779 75.3325 12.9779C76.033 12.9779 76.7451 13.3973 76.7567 14.1438V14.237C76.5113 14.0971 75.9858 13.8873 75.3441 13.8873C74.0476 13.8873 72.7286 14.5983 72.7286 15.9277C72.7286 17.1403 73.7914 17.9217 74.9819 17.9217C75.8922 17.9217 76.3952 17.5135 76.7095 17.0353H76.7567V17.7353H78.0648V14.2602C78.0648 12.6511 76.8612 11.7533 75.3092 11.7533ZM66.9379 13.0549H65.0113V9.94828H66.9379C67.9505 9.94828 68.5254 10.7854 68.5254 11.5016C68.5254 12.2039 67.9505 13.0549 66.9379 13.0549ZM66.903 8.68655H63.6574V17.7504H65.0113V14.3166H66.9031C68.4043 14.3166 69.88 13.2314 69.88 11.5019C69.88 9.7727 68.4042 8.68655 66.903 8.68655ZM49.2048 16.7221C48.269 16.7221 47.4858 15.9394 47.4858 14.8652C47.4858 13.7786 48.269 12.9848 49.2048 12.9848C50.1286 12.9848 50.8537 13.7786 50.8537 14.8652C50.8537 15.9394 50.1286 16.7221 49.2048 16.7221ZM50.7601 12.4589H50.7133C50.4093 12.097 49.8243 11.7699 49.0879 11.7699C47.5439 11.7699 46.129 13.125 46.129 14.8652C46.129 16.5936 47.5439 17.9368 49.0879 17.9368C49.8243 17.9368 50.4093 17.6097 50.7133 17.2361H50.7601V17.6796C50.7601 18.8597 50.1286 19.4901 49.1112 19.4901C48.2812 19.4901 47.7666 18.8945 47.5559 18.3924L46.3749 18.8829C46.7138 19.7001 47.614 20.705 49.1112 20.705C50.702 20.705 52.0469 19.7704 52.0469 17.4927V11.9567H50.7601L50.7601 12.4589ZM52.9826 17.7499H54.3386V8.68606H52.9826V17.7499ZM56.3386 14.7599C56.3037 13.5685 57.2629 12.9613 57.9526 12.9613C58.4908 12.9613 58.9464 13.23 59.099 13.6152L56.3386 14.7599ZM60.5485 13.7319C60.2914 13.0432 59.5079 11.7699 57.9058 11.7699C56.315 11.7699 54.9936 13.0196 54.9936 14.8534C54.9936 16.582 56.3037 17.9368 58.0575 17.9368C59.4724 17.9368 60.2914 17.0728 60.6308 16.5704L59.5782 15.8695C59.2272 16.3835 58.748 16.7222 58.0575 16.7222C57.3679 16.7222 56.8765 16.4068 56.5612 15.7877L60.6889 14.0825L60.5485 13.7319ZM27.6592 12.716V14.0241H30.7933C30.6997 14.76 30.4541 15.2971 30.0798 15.671C29.6236 16.1263 28.9102 16.6287 27.6591 16.6287C25.7295 16.6287 24.221 15.0754 24.221 13.1482C24.221 11.221 25.7295 9.66748 27.6591 9.66748C28.7 9.66748 29.46 10.0764 30.0214 10.602L30.9455 9.67906C30.1617 8.93168 29.1211 8.35938 27.6591 8.35938C25.0158 8.35938 22.7938 10.5085 22.7938 13.1482C22.7938 15.7876 25.0158 17.9368 27.6591 17.9368C29.0857 17.9368 30.1618 17.4696 31.0037 16.5937C31.8691 15.7293 32.1382 14.5147 32.1382 13.5334C32.1382 13.2301 32.1146 12.9497 32.0678 12.716H27.6592ZM35.7017 16.7221C34.7659 16.7221 33.959 15.9513 33.959 14.8534C33.959 13.7438 34.7659 12.9848 35.7017 12.9848C36.6371 12.9848 37.4441 13.7438 37.4441 14.8534C37.4441 15.9513 36.6371 16.7221 35.7017 16.7221ZM35.7017 11.7699C33.9938 11.7699 32.6024 13.0663 32.6024 14.8534C32.6024 16.6287 33.9938 17.9368 35.7017 17.9368C37.409 17.9368 38.8007 16.6287 38.8007 14.8534C38.8007 13.0663 37.409 11.7699 35.7017 11.7699ZM42.4621 16.7221C41.527 16.7221 40.7197 15.9513 40.7197 14.8534C40.7197 13.7438 41.527 12.9848 42.4621 12.9848C43.3979 12.9848 44.2046 13.7438 44.2046 14.8534C44.2046 15.9513 43.3979 16.7221 42.4621 16.7221ZM42.4621 11.7699C40.7548 11.7699 39.3634 13.0663 39.3634 14.8534C39.3634 16.6287 40.7548 17.9368 42.4621 17.9368C44.17 17.9368 45.5615 16.6287 45.5615 14.8534C45.5615 13.0663 44.17 11.7699 42.4621 11.7699Z" fill="white" style="fill:white;fill-opacity:1;"/>
        <path d="M27.4051 3.09166H25.2874V3.61503H26.8743C26.8312 4.04212 26.661 4.37743 26.3741 4.62097C26.0871 4.86457 25.7207 4.98687 25.2875 4.98687C24.8122 4.98687 24.4095 4.8215 24.0795 4.49302C23.7562 4.15771 23.5918 3.74307 23.5918 3.24353C23.5918 2.74401 23.7562 2.32937 24.0795 1.99409C24.4095 1.6656 24.8122 1.50132 25.2875 1.50132C25.5314 1.50132 25.7639 1.54322 25.977 1.635C26.1903 1.72671 26.3616 1.85475 26.4954 2.01903L26.8981 1.61688C26.7154 1.40954 26.4841 1.25098 26.197 1.13542C25.9101 1.01986 25.6107 0.964394 25.2874 0.964394C24.6534 0.964394 24.1158 1.18414 23.6768 1.62255C23.2379 2.06204 23.0178 2.60354 23.0178 3.24354C23.0178 3.88353 23.2378 4.4262 23.6768 4.86463C24.1158 5.30295 24.6534 5.52279 25.2874 5.52279C25.9532 5.52279 26.484 5.30979 26.8924 4.87703C27.2519 4.51685 27.4356 4.02975 27.4356 3.42031C27.4356 3.31721 27.4232 3.20722 27.4051 3.09166ZM28.2254 1.06172V5.42529H30.7763V4.88945H28.7869V3.50522H30.5812V2.98185H28.7869V1.5987H30.7763V1.0617L28.2254 1.06172ZM34.3532 1.59872V1.06172H31.3508V1.59872H32.5713V5.42528H33.1327V1.59872H34.3532ZM37.0713 1.06172H36.5099V5.42529H37.0713V1.06172ZM40.7771 1.59872V1.06172H37.7748V1.59872H38.9952V5.42528H39.5566V1.59872H40.7771ZM46.4426 1.62931C46.0093 1.1841 45.4785 0.964355 44.8444 0.964355C44.2093 0.964355 43.6785 1.1841 43.2452 1.62251C42.8119 2.05526 42.5987 2.59785 42.5987 3.2435C42.5987 3.88915 42.8119 4.43182 43.2452 4.86459C43.6785 5.30291 44.2093 5.52275 44.8444 5.52275C45.4728 5.52275 46.0093 5.30293 46.4426 4.86459C46.8759 4.43184 47.0891 3.88921 47.0891 3.2435C47.0891 2.6035 46.8759 2.06198 46.4426 1.62931ZM43.6479 1.99405C43.9711 1.66556 44.3681 1.50128 44.8444 1.50128C45.3197 1.50128 45.7167 1.66556 46.0343 1.99405C46.3575 2.31689 46.5163 2.73823 46.5163 3.24349C46.5163 3.74989 46.3575 4.1701 46.0343 4.49298C45.7167 4.82147 45.3197 4.98684 44.8444 4.98684C44.3681 4.98684 43.9711 4.82146 43.6479 4.49298C43.3314 4.16333 43.1726 3.74988 43.1726 3.24349C43.1726 2.73824 43.3314 2.32367 43.6479 1.99405ZM48.423 2.70773L48.3992 1.866H48.423L50.6438 5.42524H51.2302V1.06168H50.6687V3.61498L50.6925 4.45671H50.6687L48.5455 1.06168H47.8615V5.42524H48.423V2.70773Z" fill="white" stroke="white" stroke-width="0.26666" stroke-miterlimit="10"/>
    </symbol>

    <symbol viewBox="0 0 37 38" id="google" xmlns="http://www.w3.org/2000/svg">
        <path d="M35.5061 15.7524L20.6832 15.7517C20.0286 15.7517 19.498 16.2822 19.498 16.9368V21.672C19.498 22.3264 20.0286 22.8571 20.6831 22.8571H29.0305C28.1164 25.2292 26.4104 27.2158 24.2338 28.4781L27.7931 34.6396C33.5027 31.3375 36.8783 25.5436 36.8783 19.0578C36.8783 18.1344 36.8102 17.4742 36.6741 16.7308C36.5706 16.1661 36.0803 15.7524 35.5061 15.7524Z" fill="#167EE6" style="fill:#167EE6;fill:color(display-p3 0.0863 0.4941 0.9020);fill-opacity:1;"/>
        <path d="M18.7074 29.972C14.6223 29.972 11.0561 27.7401 9.14077 24.4373L2.97949 27.9886C6.11493 33.4227 11.9886 37.0821 18.7074 37.0821C22.0033 37.0821 25.1134 36.1947 27.7925 34.6482V34.6397L24.2332 28.4782C22.6051 29.4224 20.7211 29.972 18.7074 29.972Z" fill="#12B347" style="fill:#12B347;fill:color(display-p3 0.0706 0.7020 0.2784);fill-opacity:1;"/>
        <path d="M27.7931 34.648V34.6396L24.2338 28.478C22.6057 29.4222 20.7219 29.9719 18.708 29.9719V37.082C22.004 37.082 25.1142 36.1946 27.7931 34.648Z" fill="#0F993E" style="fill:#0F993E;fill:color(display-p3 0.0588 0.6000 0.2431);fill-opacity:1;"/>
        <path d="M7.6482 18.9116C7.6482 16.8981 8.19771 15.0143 9.14178 13.3863L2.9805 9.83496C1.42545 12.5056 0.538086 15.6072 0.538086 18.9116C0.538086 22.2161 1.42545 25.3177 2.9805 27.9883L9.14178 24.437C8.19771 22.809 7.6482 20.9252 7.6482 18.9116Z" fill="#FFD500" style="fill:#FFD500;fill:color(display-p3 1.0000 0.8353 0.0000);fill-opacity:1;"/>
        <path d="M18.7074 7.85157C21.3712 7.85157 23.8181 8.79812 25.7293 10.3726C26.2008 10.761 26.8861 10.733 27.318 10.3011L30.6731 6.94596C31.1631 6.45593 31.1282 5.65382 30.6048 5.1997C27.4026 2.42171 23.2362 0.741455 18.7074 0.741455C11.9886 0.741455 6.11493 4.40085 2.97949 9.83504L9.14078 13.3863C11.0561 10.0835 14.6223 7.85157 18.7074 7.85157Z" fill="#FF4B26" style="fill:#FF4B26;fill:color(display-p3 1.0000 0.2941 0.1490);fill-opacity:1;"/>
        <path d="M25.73 10.3726C26.2015 10.761 26.8868 10.733 27.3187 10.3011L30.6738 6.94596C31.1637 6.45593 31.1288 5.65382 30.6054 5.1997C27.4033 2.42164 23.2369 0.741455 18.708 0.741455V7.85157C21.3718 7.85157 23.8188 8.79812 25.73 10.3726Z" fill="#D93F21" style="fill:#D93F21;fill:color(display-p3 0.8510 0.2471 0.1294);fill-opacity:1;"/>
    </symbol>

    <symbol viewBox="0 0 30 38" id="apple" xmlns="http://www.w3.org/2000/svg">
        <path fill-rule="evenodd" clip-rule="evenodd" d="M22.3473 0.741211H22.0888C20.1547 0.996535 18.1361 2.1439 17.035 3.43328C15.8477 4.81682 14.8679 6.58972 15.0403 9.11583C17.6238 9.31849 19.2212 7.98283 20.3877 6.60568C21.5765 5.21895 22.5548 3.30402 22.3473 0.741211ZM29.9093 27.488V27.4162C27.3816 26.2161 25.3582 24.1799 25.0773 20.6995C24.7614 16.8681 26.6109 14.6244 28.9503 13.1356C27.7375 11.2398 25.7747 10.0111 23.0092 9.59296C20.8848 9.27327 19.2337 9.87711 17.5913 10.4778C17.4547 10.5277 17.3182 10.5777 17.1815 10.627C17.0336 10.681 16.8863 10.7404 16.7392 10.7996C16.2815 10.9842 15.8268 11.1675 15.3703 11.1808C14.6727 11.202 13.9447 10.8922 13.3007 10.6181C13.1227 10.5424 12.9511 10.4694 12.7883 10.4068C11.9952 10.1068 11.0904 9.80361 10.2047 9.66637C8.13822 9.35041 6.28233 10.0573 4.93231 10.8871C2.37428 12.4478 0.449783 15.6681 0.282227 19.6288V21.2549C0.677978 26.789 2.80514 31.1136 5.55785 34.4615C6.49138 35.5945 7.77279 36.852 9.36058 37.0818H10.0978C11.0219 36.9515 11.7885 36.6557 12.5481 36.3627C13.566 35.97 14.5713 35.5821 15.9256 35.6041C17.0377 35.6231 17.9551 35.9798 18.8649 36.3335C19.784 36.6908 20.6954 37.0451 21.7917 37.0451C24.1927 37.0451 25.5891 35.1122 26.7125 33.5571C26.7703 33.4771 26.8273 33.3982 26.8838 33.3205C28.1476 31.5715 29.1833 29.6869 29.9093 27.488Z" fill="black"/>
    </symbol>


    <symbol viewBox="" id="id" xmlns="http://www.w3.org/2000/svg">
        
    </symbol>
</svg>