<?xml version="1.0" encoding="UTF-8"?>

<svg version="1.1" xmlns="http://www.w3.org/2000/svg" xmlns:xlink="http://www.w3.org/1999/xlink">
    <symbol viewBox="0 0 46 38" id="logo" xmlns="http://www.w3.org/2000/svg">
        <path d="M18.3144 38.0003H0V5.52885H2.714V35.1783L5.11842 35.1363C9.69069 34.9984 14.2259 35.9827 18.3144 38.0003ZM43.286 5.52885V35.1783L40.8843 35.1363C36.3111 34.9976 31.7748 35.9819 27.6856 38.0003H46V5.52885H43.286ZM5.0738 0.902345V32.8138C10.9791 32.6353 16.8058 34.182 21.8178 37.2584V2.25542C16.2716 -0.727585 9.87482 -0.271132 5.0738 0.902345ZM40.9262 32.8138V0.902345C36.1252 -0.269774 29.7284 -0.726228 24.1822 2.25542V37.2584C29.1942 34.182 35.0209 32.6353 40.9262 32.8138Z" fill="currentColor" />
    </symbol>

    <symbol viewBox="0 0 8 4" id="dropdown-arrow" xmlns="http://www.w3.org/2000/svg">
        <path d="M4.39604 3.85609L7.83581 0.83885C8.05473 0.646917 8.05473 0.335731 7.83581 0.143892C7.61708 -0.0479634 7.26232 -0.0479634 7.04361 0.143892L3.99994 2.81368L0.956381 0.143969C0.737564 -0.0478861 0.382842 -0.0478861 0.164113 0.143969C-0.0547044 0.335824 -0.0547044 0.646994 0.164113 0.838927L3.60393 3.85616C3.71335 3.95209 3.8566 4 3.99992 4C4.14332 4 4.28668 3.952 4.39604 3.85609Z" fill="currentColor"/>
    </symbol>

    <symbol viewBox="0 0 10 19" id="arrow-left" xmlns="http://www.w3.org/2000/svg">
        <path d="M0.359786 8.5594L7.90287 0.389958C8.38271 -0.129986 9.16067 -0.129986 9.64027 0.389957C10.1199 0.909439 10.1199 1.75199 9.64027 2.27143L2.9658 9.50014L9.64008 16.7286C10.1197 17.2483 10.1197 18.0908 9.64008 18.6102C9.16044 19.1299 8.38251 19.1299 7.90268 18.6102L0.359592 10.4407C0.119773 10.1808 -8.00743e-07 9.84057 -8.30501e-07 9.50018C-8.60273e-07 9.15962 0.120006 8.81914 0.359786 8.5594Z" fill="currentColor"/>
    </symbol>

    <symbol viewBox="0 0 17 19" id="user" xmlns="http://www.w3.org/2000/svg">
        <path fill-rule="evenodd" clip-rule="evenodd" d="M5.39704 7.80808C6.28639 8.69743 7.37453 9.14818 8.63132 9.14818C9.88783 9.14818 10.976 8.69728 11.8655 7.80822C12.7547 6.91902 13.2056 5.83088 13.2056 4.57395C13.2056 3.3173 12.7547 2.22916 11.8655 1.33996C10.9763 0.450759 9.88826 0 8.63132 0C7.37467 0 6.28653 0.450759 5.39718 1.33982C4.50784 2.22931 4.05708 3.31744 4.05708 4.57395C4.05708 5.83088 4.50798 6.91888 5.39704 7.80808ZM8.63132 1.11291C9.59572 1.11291 10.3961 1.44457 11.0784 2.12687C11.7608 2.80931 12.0927 3.60984 12.0927 4.57395C12.0927 5.53835 11.7608 6.33888 11.0784 7.02117C10.3958 7.70347 9.59543 8.03527 8.63132 8.03527C7.66706 8.03527 6.86654 7.70361 6.18409 7.02117C5.5018 6.33873 5.16999 5.53835 5.16999 4.57395C5.16999 3.60984 5.5018 2.80931 6.18409 2.12687C6.86654 1.44457 7.66706 1.11291 8.63132 1.11291ZM0.782063 13.4034C0.705705 13.8296 0.653832 14.2333 0.628187 14.6033C0.602831 14.965 0.589935 15.3424 0.58979 15.7251C0.58979 16.7167 0.904931 17.5196 1.52652 18.111C2.14043 18.6951 2.9524 18.9913 3.93984 18.9913H13.0843C14.072 18.9913 14.884 18.6951 15.4977 18.111C16.1192 17.5191 16.4343 16.7166 16.4343 15.7252C16.4343 15.3439 16.4216 14.9664 16.3964 14.6038C16.3707 14.2329 16.319 13.829 16.2425 13.4034C16.1654 12.9739 16.0662 12.5681 15.9475 12.197C15.8246 11.8132 15.6577 11.4346 15.4515 11.0716C15.2377 10.695 14.9861 10.3671 14.7039 10.0971C14.4084 9.81438 14.0469 9.58733 13.6294 9.42201C13.2131 9.25713 12.7517 9.17352 12.258 9.17352C12.0641 9.17352 11.8766 9.25307 11.5148 9.48881C11.2886 9.63616 11.0278 9.80424 10.7396 9.98839C10.4913 10.1469 10.1541 10.2954 9.73828 10.4297C9.33186 10.5612 8.9195 10.6278 8.51264 10.6278C8.10549 10.6278 7.69313 10.5612 7.287 10.4297C6.87072 10.2953 6.5337 10.1468 6.28492 9.98825C5.99398 9.80235 5.73332 9.63428 5.51047 9.48895C5.14839 9.25321 4.9609 9.17367 4.76703 9.17367C4.27338 9.17367 3.8119 9.25713 3.39548 9.42187C2.97761 9.58748 2.61625 9.81452 2.32111 10.0969C2.03886 10.3669 1.78732 10.6949 1.57332 11.0716C1.36685 11.4346 1.20008 11.8133 1.07721 12.1968C0.958396 12.5679 0.859145 12.9739 0.782063 13.4034ZM3.93999 17.8783C3.23784 17.8783 2.69942 17.6907 2.29387 17.3047C1.89614 16.9263 1.70285 16.4096 1.70271 15.7252C1.70285 15.3684 1.71473 15.0172 1.73835 14.6812V14.6809C1.76124 14.3505 1.80819 13.9868 1.87745 13.5998C1.94584 13.2186 2.03321 12.8607 2.13709 12.5362C2.23649 12.2257 2.3724 11.9178 2.54091 11.6215C2.70159 11.3386 2.88648 11.0962 3.09048 10.9011C3.28131 10.7185 3.52183 10.5688 3.80509 10.4567C4.06735 10.3529 4.36191 10.2961 4.68183 10.2876C4.72081 10.3083 4.79021 10.348 4.90265 10.4212C5.13144 10.5704 5.38775 10.7356 5.68608 10.9263C6.01513 11.1361 6.43836 11.3252 6.94461 11.4888C7.46145 11.6558 7.989 11.7407 8.51249 11.7407C9.03599 11.7407 9.5634 11.6558 10.0805 11.4886C10.5863 11.3253 11.0097 11.1361 11.3383 10.9266C11.6298 10.7404 11.8936 10.5703 12.1223 10.4212C12.2348 10.3479 12.3042 10.3083 12.3432 10.2876C12.6629 10.2961 12.9575 10.3529 13.2196 10.4567C13.503 10.5688 13.7435 10.7184 13.9344 10.9011C14.1384 11.0964 14.3232 11.3388 14.4839 11.6213C14.6523 11.9178 14.7881 12.2255 14.8876 12.5363C14.9913 12.8604 15.0786 13.2185 15.1471 13.6C15.2165 13.9863 15.2633 14.3498 15.2862 14.6807C15.3097 15.018 15.3214 15.3694 15.3214 15.7252C15.3214 16.4094 15.1281 16.9263 14.7304 17.3049C14.325 17.6907 13.7866 17.8783 13.0843 17.8783H3.93999Z" fill="currentColor"/>
    </symbol>

    <symbol viewBox="0 0 22 18" id="book" xmlns="http://www.w3.org/2000/svg">
        <path fill-rule="evenodd" clip-rule="evenodd" d="M1.70995 3.17367H0.496094V17.3739H8.68739C8.0114 17.0477 7.3081 16.7833 6.58676 16.5826C5.3568 16.2404 4.07437 16.0834 2.78535 16.1214L1.70995 16.1398V3.17367ZM10.2543 1.74215C7.7737 0.43764 4.9127 0.637253 2.7654 1.15043V15.1058C3.02963 15.098 3.2935 15.0977 3.5567 15.1049C5.62033 15.1614 7.64205 15.6769 9.463 16.61C9.73129 16.7474 9.99523 16.894 10.2543 17.0495V1.74215ZM9.463 15.7272V2.23776C7.54268 1.38534 5.38113 1.4342 3.5567 1.78849V14.3133C5.60972 14.3665 7.62512 14.8495 9.463 15.7272ZM12.1031 16.61C11.8348 16.7474 11.5709 16.894 11.3118 17.0495V1.74215C13.7924 0.438233 16.6534 0.637847 18.8007 1.15043V15.1058C18.5365 15.098 18.2726 15.0977 18.0094 15.1049C15.9458 15.1614 13.9241 15.6769 12.1031 16.61ZM12.1031 15.7272C13.941 14.8495 15.9564 14.3665 18.0094 14.3133V1.78864C16.1849 1.43475 14.0234 1.38589 12.1031 2.23787V15.7272ZM12.8787 17.3739C13.5546 17.0478 14.2577 16.7833 14.9789 16.5826C16.2094 16.2402 17.4924 16.0832 18.782 16.1214L19.8561 16.1398V3.17367H21.07V17.3739H12.8787Z" fill="currentColor"/>
    </symbol>

    <symbol viewBox="0 0 16 20" id="bookmark" xmlns="http://www.w3.org/2000/svg">
        <path d="M13.7694 19.0941C13.311 19.0941 12.8654 18.9316 12.5147 18.6367L8.18677 14.9972L3.85854 18.6369C3.50797 18.9316 3.06242 19.0941 2.60417 19.0941C2.3179 19.0941 2.04128 19.0329 1.78137 18.912C1.09729 18.5936 0.655273 17.9 0.655273 17.1452V3.45186C0.655273 2.53503 1.01242 1.67302 1.66066 1.02446C2.30906 0.376056 3.17108 0.0189056 4.0879 0.0189056H12.2853C13.2023 0.0189056 14.0643 0.376056 14.7127 1.02429C15.3611 1.67269 15.7181 2.53471 15.7181 3.45169V17.1451C15.7181 17.8999 15.2761 18.5935 14.5919 18.9119C14.3324 19.0329 14.0556 19.0941 13.7694 19.0941ZM8.18677 13.5141C8.33384 13.5141 8.48108 13.5644 8.60066 13.6649L13.3425 17.6525C13.5363 17.8155 13.8192 17.8531 14.0492 17.7462C14.2821 17.6379 14.4324 17.4019 14.4324 17.1451V3.45186C14.4324 2.87836 14.2091 2.33926 13.8036 1.93373C13.3981 1.5282 12.859 1.30478 12.2855 1.30478H4.08806C3.51473 1.30478 2.97563 1.5282 2.57009 1.93373C2.16456 2.33926 1.94114 2.87836 1.94114 3.45186V17.1452C1.94114 17.4021 2.09143 17.6379 2.32417 17.7462C2.55418 17.8534 2.83723 17.8155 3.03076 17.6527L7.77272 13.6649C7.89247 13.5644 8.0397 13.5141 8.18677 13.5141Z" fill="currentColor"/>
    </symbol>

    <symbol viewBox="0 0 17 21" id="file" xmlns="http://www.w3.org/2000/svg">
        <path fill-rule="evenodd" clip-rule="evenodd" d="M12.053 0.761124L15.9276 4.42674C16.3669 4.84231 16.6188 5.42751 16.6188 6.03223V18.5203C16.6188 19.739 15.6274 20.7304 14.4087 20.7304H3.15735C1.93871 20.7304 0.947266 19.739 0.947266 18.5203V2.36661C0.947266 1.14797 1.93871 0.156525 3.15735 0.156525H10.5341C11.1014 0.156525 11.6408 0.371225 12.053 0.761124ZM11.7566 4.97854H14.7567L11.5557 1.95015V4.77762C11.5557 4.8884 11.6458 4.97854 11.7566 4.97854ZM3.15735 19.5249H14.4087C14.9626 19.5249 15.4133 19.0743 15.4133 18.5203V6.18404H11.7566C10.9811 6.18404 10.3502 5.55312 10.3502 4.77762V1.36203H3.15735C2.60343 1.36203 2.15277 1.81268 2.15277 2.36661V18.5203C2.15277 19.0743 2.60343 19.5249 3.15735 19.5249ZM4.24142 8.19321H13.0818C13.4147 8.19321 13.6845 8.46308 13.6845 8.79596C13.6845 9.12884 13.4147 9.39871 13.0818 9.39871H4.24142C3.90854 9.39871 3.63867 9.12884 3.63867 8.79596C3.63867 8.46308 3.90854 8.19321 4.24142 8.19321ZM13.0818 11.4079H4.24142C3.90854 11.4079 3.63867 11.6778 3.63867 12.0106C3.63867 12.3435 3.90854 12.6134 4.24142 12.6134H13.0818C13.4147 12.6134 13.6845 12.3435 13.6845 12.0106C13.6845 11.6778 13.4147 11.4079 13.0818 11.4079ZM4.24142 14.6226H7.16356C7.49644 14.6226 7.76631 14.8924 7.76631 15.2253C7.76631 15.5582 7.49644 15.8281 7.16356 15.8281H4.24142C3.90854 15.8281 3.63867 15.5582 3.63867 15.2253C3.63867 14.8924 3.90854 14.6226 4.24142 14.6226Z" fill="currentColor"/>
    </symbol>

    <symbol viewBox="0 0 21 17" id="folder" xmlns="http://www.w3.org/2000/svg">
        <path fill-rule="evenodd" clip-rule="evenodd" d="M0.286133 15.0493C0.286133 15.783 0.910944 16.3071 1.59137 16.3071H16.7545C17.0874 16.3071 17.3572 16.0372 17.3572 15.7043C17.3572 15.3714 17.0874 15.1016 16.7545 15.1016H1.59137C1.55033 15.1016 1.5215 15.0863 1.50569 15.0716C1.49101 15.0579 1.49159 15.05 1.49163 15.0493C1.49163 15.0493 1.49164 15.0493 1.49164 15.0493V1.5862C1.49254 1.58494 1.49409 1.58305 1.49657 1.58075C1.50675 1.57125 1.5278 1.5593 1.56027 1.5593H6.43452C6.45334 1.5593 6.46972 1.56374 6.48216 1.56994C6.49451 1.5761 6.50054 1.58268 6.50286 1.5859C6.50287 1.58592 6.50288 1.58594 6.5029 1.58596L7.8456 3.46383C7.8456 3.46384 7.8456 3.46384 7.84561 3.46385C8.07874 3.78991 8.45741 3.9703 8.84556 3.9703H16.3372C16.3697 3.9703 16.3907 3.98226 16.4009 3.99175C16.4034 3.99406 16.4049 3.99594 16.4058 3.9972V7.36331C16.4058 7.6962 16.6757 7.96606 17.0086 7.96606C17.3415 7.96606 17.6113 7.6962 17.6113 7.36331V3.99353C17.6113 3.2759 17.0005 2.7648 16.3372 2.7648H8.84556C8.83651 2.7648 8.82963 2.76264 8.82562 2.76064C8.82505 2.76035 8.82458 2.7601 8.82422 2.75988L7.48346 0.884718L7.4834 0.884632C7.23938 0.543478 6.84244 0.353792 6.43452 0.353792H1.56027C0.896995 0.353792 0.286133 0.864893 0.286133 1.58252V15.0493ZM8.82624 2.7627C8.82623 2.7627 8.82623 2.7627 8.82623 2.76269Z" fill="currentColor" />
        <path fill-rule="evenodd" clip-rule="evenodd" d="M19.6117 8.61122L16.2138 15.4357L17.2929 15.973L20.6909 9.14853C21.264 7.99745 20.3314 6.80075 19.1406 6.80075H5.49664C4.83712 6.80075 4.21252 7.16555 3.92902 7.77229C3.92902 7.7723 3.92901 7.77231 3.92901 7.77232L0.439453 15.24L1.5316 15.7503L5.02117 8.28264L5.02118 8.28261C5.09178 8.13151 5.26948 8.00625 5.49664 8.00625H19.1406C19.347 8.00625 19.5001 8.10359 19.5825 8.22396C19.6629 8.34137 19.678 8.47812 19.6117 8.61122Z" fill="currentColor"/>
    </symbol>

    <symbol viewBox="0 0 20 19" id="subscribe" xmlns="http://www.w3.org/2000/svg">
        <path fill-rule="evenodd" clip-rule="evenodd" d="M2.0823 3.52894C2.0823 3.98017 2.44809 4.34596 2.89932 4.34596H4.82015C4.84622 4.3449 4.87242 4.34436 4.89874 4.34436H15.6981C15.4449 3.84356 15.3094 3.28585 15.3094 2.71415C15.3094 2.14185 15.4452 1.58357 15.6989 1.08235H2.89932C2.44809 1.08235 2.0823 1.44814 2.0823 1.89937V3.52894ZM2.89932 5.42782H3.18334C3.0657 5.67488 2.99986 5.95137 2.99986 6.24325V7.87282C2.99986 8.16772 3.06707 8.44692 3.18702 8.69593H2.7817C1.73282 8.69593 0.882812 9.54608 0.882812 10.5948V12.2244C0.882812 13.2731 1.73282 14.1233 2.7817 14.1233H3.1C2.98069 14.3717 2.91386 14.6502 2.91386 14.9443V16.5738C2.91386 17.6226 3.76386 18.4727 4.81274 18.4727H18.6639C18.8828 18.4727 19.08 18.3409 19.1637 18.1387C19.2475 17.9365 19.2009 17.7036 19.0461 17.549C18.5714 17.0742 18.3047 16.4304 18.3047 15.759C18.3047 15.0877 18.5714 14.4439 19.0461 13.9691C19.2009 13.8144 19.2474 13.5814 19.1637 13.3793C19.08 13.1772 18.8828 13.0454 18.6639 13.0454H16.8732C16.4875 12.59 16.2737 12.0108 16.2737 11.4096C16.2737 10.8075 16.4882 10.2274 16.875 9.7717H18.75C18.9688 9.7717 19.1661 9.63985 19.2498 9.43766C19.3335 9.23547 19.287 9.00262 19.1322 8.84796C18.6574 8.37322 18.3907 7.72937 18.3907 7.05803C18.3907 6.38669 18.6574 5.74284 19.1322 5.2681C19.2869 5.1134 19.3335 4.88042 19.2497 4.67829C19.166 4.47616 18.9688 4.34436 18.75 4.34436H16.9861C16.6034 3.88981 16.3913 3.31291 16.3913 2.71415C16.3913 2.04282 16.658 1.39897 17.1327 0.924227L17.133 0.923914C17.2877 0.76921 17.334 0.536545 17.2503 0.334414C17.1666 0.132282 16.9693 0.000488281 16.7505 0.000488281H2.89932C1.85059 0.000488281 1.00044 0.85064 1.00044 1.89937V3.52894C1.00044 4.57767 1.85059 5.42782 2.89932 5.42782ZM4.08172 6.24325C4.08172 5.80931 4.41996 5.45439 4.84724 5.42782H6.01184C6.00408 5.4643 6 5.50214 6 5.54093V7.98525C6 8.17012 6.09442 8.3422 6.25035 8.44151C6.40629 8.54082 6.60215 8.55361 6.76968 8.47543L7.6273 8.07522L8.48492 8.47543C8.65245 8.55361 8.84831 8.54082 9.00424 8.44151C9.16018 8.3422 9.2546 8.17012 9.2546 7.98525V5.54093C9.2546 5.50214 9.25051 5.4643 9.24275 5.42782H16.7505C16.7645 5.42782 16.7784 5.42728 16.7922 5.42622H17.6984C17.4446 5.92744 17.3089 6.48573 17.3089 7.05803C17.3089 7.63033 17.4446 8.18862 17.6984 8.68984H4.89874C4.44746 8.68984 4.08172 8.32405 4.08172 7.87282V6.24325ZM3.99572 16.5738C3.99572 17.0251 4.36144 17.3909 4.81274 17.3909H17.6123C17.3586 16.8896 17.2228 16.3313 17.2228 15.759C17.2228 15.1867 17.3586 14.6285 17.6123 14.1272H4.81274C4.36144 14.1272 3.99572 14.493 3.99572 14.9443V16.5738ZM1.96467 12.2244C1.96467 12.6756 2.3304 13.0414 2.7817 13.0414H15.5813C15.3276 12.5402 15.1918 11.9819 15.1918 11.4096C15.1918 10.8373 15.3276 10.279 15.5813 9.77779H14.2546V11.9852C14.2546 12.1701 14.1602 12.3422 14.0042 12.4415C13.8483 12.5408 13.6525 12.5536 13.4849 12.4754L12.6273 12.0752L11.7697 12.4754C11.6021 12.5536 11.4063 12.5408 11.2504 12.4415C11.0944 12.3422 11 12.1701 11 11.9852V9.77779H2.7817C2.3304 9.77779 1.96467 10.1436 1.96467 10.5948V12.2244ZM7.08186 7.13589V6.08186H8.17274V7.13589L7.85605 6.98811C7.71105 6.92044 7.54354 6.92044 7.39855 6.98811L7.08186 7.13589ZM12.0819 10.0819V11.1359L12.3986 10.9881C12.5435 10.9204 12.7111 10.9204 12.856 10.9881L13.1727 11.1359V10.0819H12.0819Z" fill="currentColor"/>
    </symbol>

    <symbol viewBox="0 0 15 11" id="check" xmlns="http://www.w3.org/2000/svg">
        <path d="M14.5606 2.6051L6.64752 10.5177C6.06154 11.1038 5.11099 11.1038 4.52446 10.5177L0.439649 6.43257C-0.14655 5.84648 -0.14655 4.89582 0.439649 4.30962C1.02596 3.72331 1.97643 3.72331 2.56248 4.3094L5.5863 7.33326L12.4375 0.482046C13.0238 -0.104264 13.9743 -0.103819 14.5604 0.482046C15.1465 1.06825 15.1465 2.01857 14.5606 2.6051Z" fill="currentColor"/>
    </symbol>

    <symbol viewBox="0 0 15 15" id="cross" xmlns="http://www.w3.org/2000/svg">
        <path fill-rule="evenodd" clip-rule="evenodd" d="M14.0144 0.985557C13.4009 0.372002 12.4114 0.372002 11.7978 0.985557L7.49986 5.28351L3.20191 0.985557C2.58836 0.372002 1.59887 0.372002 0.985313 0.985557C0.371758 1.59911 0.371758 2.5886 0.985313 3.20216L5.28326 7.50011L0.985313 11.7981C0.371758 12.4116 0.371758 13.4011 0.985313 14.0147C1.28225 14.3116 1.68426 14.4762 2.09077 14.4762C2.48106 14.4762 2.89095 14.3282 3.20063 14.0103L7.49418 9.71671L11.7921 14.0147C12.0891 14.3116 12.4911 14.4762 12.8976 14.4762C13.2971 14.4762 13.7007 14.3257 14.0084 14.0093C14.6165 13.3955 14.6145 12.4099 14.003 11.7981L9.7158 7.50077L14.0144 3.20216C14.628 2.5886 14.628 1.59911 14.0144 0.985557ZM1.34778 1.90913C1.28503 2.16121 1.35276 2.43824 1.551 2.63647L6.41456 7.50003L6.41468 7.49991L1.55105 2.63628C1.35286 2.43809 1.28511 2.16116 1.34778 1.90913ZM1.34778 12.7216C1.28503 12.9737 1.35276 13.2507 1.551 13.449C1.69873 13.5967 1.89759 13.6762 2.09077 13.6762C2.28395 13.6762 2.48282 13.6024 2.63054 13.449L7.49418 8.58533L12.3578 13.449C12.5055 13.5967 12.7044 13.6762 12.8976 13.6762C13.0965 13.6762 13.2896 13.6024 13.4374 13.449C13.5403 13.346 13.6081 13.2218 13.6406 13.0909C13.6081 13.2217 13.5403 13.3459 13.4374 13.4488C13.2897 13.6022 13.0965 13.676 12.8976 13.676C12.7045 13.676 12.5056 13.5965 12.3579 13.4488L7.49423 8.58514L2.63059 13.4488C2.48287 13.6022 2.284 13.676 2.09082 13.676C1.89764 13.676 1.69877 13.5965 1.55105 13.4488C1.35286 13.2506 1.28511 12.9737 1.34778 12.7216ZM8.58521 7.49999L13.4487 2.63647C13.5517 2.53352 13.6194 2.40931 13.652 2.27839C13.6194 2.40924 13.5517 2.53337 13.4488 2.63628L8.58514 7.49991L8.58521 7.49999Z" fill="currentColor"/>
    </symbol>

    <symbol viewBox="0 0 11 14" id="play" xmlns="http://www.w3.org/2000/svg">
        <path fill-rule="evenodd" clip-rule="evenodd" d="M8.89774 6.9999L1.99988 2.40137V11.5986L8.89774 6.9999ZM10.2913 6.12628C10.9148 6.54196 10.9148 7.45799 10.2913 7.87366L2.13221 13.3132C1.43447 13.7784 0.499756 13.278 0.499756 12.4394V1.56053C0.499756 0.721904 1.43447 0.221703 2.13221 0.686922L10.2913 6.12628Z" fill="currentColor"/>
    </symbol>

    <symbol viewBox="0 0 23 22" id="close-modal" xmlns="http://www.w3.org/2000/svg">
        <path fill-rule="evenodd" clip-rule="evenodd" d="M19.4452 1.06068C20.031 0.474891 20.9807 0.474891 21.5665 1.06068C22.1523 1.64646 22.1523 2.59621 21.5665 3.182L13.5286 11.22L21.754 19.4455C22.3398 20.0312 22.3398 20.981 21.754 21.5668C21.1683 22.1526 20.2185 22.1526 19.6327 21.5668L11.4072 13.3413L3.18175 21.5668C2.59597 22.1526 1.64622 22.1526 1.06043 21.5668C0.474647 20.981 0.474647 20.0312 1.06043 19.4455L9.28592 11.22L1.24794 3.182C0.662157 2.59621 0.662157 1.64646 1.24794 1.06068C1.83373 0.474891 2.78348 0.474891 3.36926 1.06068L11.4072 9.09865L19.4452 1.06068Z" fill="currentColor"/>
    </symbol>

    <symbol viewBox="0 0 21 22" id="bell" xmlns="http://www.w3.org/2000/svg">
        <path fill-rule="evenodd" clip-rule="evenodd" d="M17.72 11.2949V9.23828C17.72 6.23812 15.6591 3.69527 12.8353 2.86473V1.93359C12.8353 0.86741 11.9389 0 10.8371 0C9.73523 0 8.83881 0.86741 8.83881 1.93359V2.86473C6.01504 3.69527 3.95416 6.23807 3.95416 9.23828V11.2949C3.95416 13.9302 2.91604 16.4291 1.03106 18.3312C0.846332 18.5176 0.794422 18.7927 0.899131 19.0302C1.00384 19.2677 1.24496 19.4219 1.51184 19.4219H7.57364C7.88306 20.8911 9.22873 22 10.8371 22C12.4454 22 13.791 20.8911 14.1005 19.4219H20.1623C20.4292 19.4219 20.6702 19.2677 20.775 19.0302C20.8797 18.7927 20.8278 18.5176 20.6431 18.3312C18.7581 16.4291 17.72 13.9302 17.72 11.2949ZM10.171 1.93359C10.171 1.5782 10.4698 1.28906 10.8371 1.28906C11.2043 1.28906 11.5032 1.5782 11.5032 1.93359V2.60941C11.2839 2.58895 11.0618 2.57812 10.8371 2.57812C10.6124 2.57812 10.3902 2.58895 10.171 2.60941V1.93359ZM10.8371 20.7109C9.96871 20.7109 9.22833 20.1721 8.95337 19.4219H12.7208C12.4458 20.1721 11.7054 20.7109 10.8371 20.7109ZM2.94748 18.1328C4.46443 16.1652 5.28634 13.784 5.28634 11.2949V9.23828C5.28634 6.27666 7.7764 3.86719 10.8371 3.86719C13.8977 3.86719 16.3878 6.27666 16.3878 9.23828V11.2949C16.3878 13.784 17.2097 16.1652 18.7267 18.1328H2.94748ZM19.495 9.23829C19.495 9.59424 19.7932 9.88282 20.1611 9.88282C20.5289 9.88282 20.8271 9.59424 20.8271 9.23829C20.8271 6.65587 19.7879 4.22801 17.9008 2.40196C17.6407 2.1503 17.2189 2.15025 16.9588 2.40196C16.6986 2.65367 16.6986 3.06175 16.9588 3.31346C18.5943 4.89604 19.495 7.00018 19.495 9.23829ZM2.17788 9.23829C2.17788 9.59425 1.87965 9.88283 1.51179 9.88283C1.14393 9.88283 0.845703 9.59425 0.845703 9.23829C0.845703 6.65587 1.88498 4.22805 3.77209 2.40201C4.03222 2.1503 4.45399 2.1503 4.71407 2.40201C4.9742 2.65372 4.9742 3.06179 4.71407 3.31351C3.07861 4.89609 2.17788 7.00022 2.17788 9.23829Z" fill="currentColor"/>
    </symbol>

    <symbol viewBox="0 0 24 22" id="logout" xmlns="http://www.w3.org/2000/svg">
        <path fill-rule="evenodd" clip-rule="evenodd" d="M15.3759 7.33383C14.9837 7.33383 14.6654 7.02584 14.6654 6.64635V2.52148C14.6654 1.88989 14.1341 1.37563 13.4814 1.37563H7.41187L9.11242 1.92387C9.88828 2.18603 10.4026 2.88543 10.4026 3.66723V17.8751H13.4814C14.1341 17.8751 14.6654 17.3608 14.6654 16.7293V12.6044C14.6654 12.2249 14.9837 11.9169 15.3759 11.9169C15.7681 11.9169 16.0863 12.2249 16.0863 12.6044V16.7293C16.0863 18.1198 14.9185 19.2501 13.4814 19.2501H10.4026V20.1667C10.4026 21.1778 9.553 22 8.5081 22C8.30534 22 8.11297 21.9725 7.92079 21.9148L2.21984 20.0769C1.44415 19.8148 0.929688 19.1154 0.929688 18.3336V1.83407C0.929688 0.827101 1.77255 0.00742289 2.81161 0.000779615L2.82434 0.000671387H13.4814C14.9185 0.000671387 16.0863 1.13092 16.0863 2.52148V6.64635C16.0863 7.02584 15.7681 7.33383 15.3759 7.33383ZM8.98164 18.5626V3.66723C8.98164 3.47204 8.84617 3.2906 8.65294 3.22548L2.97871 1.39584C2.93795 1.38308 2.88487 1.3757 2.82434 1.3757C2.56381 1.3757 2.35063 1.58197 2.35063 1.83407V18.3336C2.35063 18.5288 2.4861 18.7102 2.67933 18.7753L8.35356 20.605C8.39432 20.6177 8.4474 20.6251 8.5081 20.6251C8.76863 20.6251 8.98164 20.4188 8.98164 20.1667V18.5626ZM19.4019 13.7502C19.22 13.7502 19.0382 13.6833 18.8998 13.5487C18.6223 13.2799 18.6223 12.8446 18.8998 12.576L21.2388 10.3128H13.9549C13.5628 10.3128 13.2445 10.0049 13.2445 9.62537C13.2445 9.24588 13.5628 8.93789 13.9549 8.93789H21.2406L18.8998 6.67287C18.6223 6.40433 18.6223 5.96894 18.8998 5.7004C19.1775 5.43168 19.6274 5.43168 19.905 5.7004L23.4573 9.13779C23.6997 9.37232 23.7304 9.73409 23.5494 10.0009C23.5184 10.0467 23.4819 10.0888 23.4408 10.1262L19.905 13.5477C19.7657 13.6833 19.5839 13.7502 19.4019 13.7502Z" fill="currentColor" />
    </symbol>

    <symbol viewBox="0 0 21 21" id="search" xmlns="http://www.w3.org/2000/svg">
        <path d="M9.93945 0.931305C4.98074 0.931305 0.941406 4.97063 0.941406 9.92937C0.941406 14.8881 4.98074 18.9353 9.93945 18.9353C12.0575 18.9353 14.0054 18.193 15.5449 16.9606L19.293 20.7067C19.4821 20.888 19.7347 20.988 19.9967 20.9854C20.2587 20.9827 20.5093 20.8775 20.6947 20.6924C20.8801 20.5073 20.9856 20.2569 20.9886 19.9949C20.9917 19.7329 20.892 19.4802 20.7109 19.2908L16.9629 15.5427C18.1963 14.0008 18.9395 12.0498 18.9395 9.92937C18.9395 4.97063 14.8982 0.931305 9.93945 0.931305ZM9.93945 2.93134C13.8173 2.93134 16.9375 6.05153 16.9375 9.92937C16.9375 13.8072 13.8173 16.9352 9.93945 16.9352C6.06162 16.9352 2.94141 13.8072 2.94141 9.92937C2.94141 6.05153 6.06162 2.93134 9.93945 2.93134Z" fill="currentColor"/>
    </symbol>

    <symbol viewBox="0 0 17 12" id="long-arrow-right" xmlns="http://www.w3.org/2000/svg">
        <path fill-rule="evenodd" clip-rule="evenodd" d="M11.7574 0.49677L16.5303 5.26974C16.8232 5.56263 16.8232 6.03751 16.5303 6.3304L11.7574 11.1034C11.4645 11.3963 10.9896 11.3963 10.6967 11.1034C10.4038 10.8105 10.4038 10.3356 10.6967 10.0427L14.1893 6.55007H0V5.05007H14.1893L10.6967 1.55743C10.4038 1.26454 10.4038 0.789663 10.6967 0.49677C10.9896 0.203876 11.4645 0.203876 11.7574 0.49677Z" fill="currentColor"/>
    </symbol>

    <symbol viewBox="0 0 22 22" id="copy" xmlns="http://www.w3.org/2000/svg">
        <path d="M18.8838 21.3018H7.92676C6.59389 21.3018 5.50977 20.2176 5.50977 18.8848V7.92774C5.50977 6.59486 6.59389 5.51074 7.92676 5.51074H18.8838C20.2167 5.51074 21.3008 6.59486 21.3008 7.92774V18.8848C21.3008 20.2176 20.2167 21.3018 18.8838 21.3018ZM7.92676 7.12207C7.48251 7.12207 7.12109 7.48349 7.12109 7.92774V18.8848C7.12109 19.329 7.48251 19.6904 7.92676 19.6904H18.8838C19.328 19.6904 19.6895 19.329 19.6895 18.8848V7.92774C19.6895 7.48349 19.328 7.12207 18.8838 7.12207H7.92676ZM3.89844 14.8564H3.09277C2.64853 14.8564 2.28711 14.495 2.28711 14.0508V3.09375C2.28711 2.6495 2.64853 2.28809 3.09277 2.28809H14.0498C14.4941 2.28809 14.8555 2.6495 14.8555 3.09375V3.85913H16.4668V3.09375C16.4668 1.76088 15.3827 0.676758 14.0498 0.676758H3.09277C1.7599 0.676758 0.675781 1.76088 0.675781 3.09375V14.0508C0.675781 15.3837 1.7599 16.4678 3.09277 16.4678H3.89844V14.8564Z" fill="currentColor"/>
    </symbol>

    <symbol viewBox="0 0 22 24" id="create" xmlns="http://www.w3.org/2000/svg">
        <path fill-rule="evenodd" clip-rule="evenodd" d="M20.1511 6.30179C20.2361 6.40257 20.3235 6.50679 20.3616 6.63534C20.384 6.69337 20.3927 6.75399 20.4014 6.81448C20.4053 6.84233 20.4092 6.87015 20.4146 6.89767V15.0223C20.4146 15.4714 20.0508 15.8348 19.6021 15.8348C19.1533 15.8348 18.7896 15.4714 18.7896 15.0223V7.71375H15.5452C14.042 7.71375 12.8192 6.49063 12.8192 4.98743V2.25H3.53064C2.92126 2.25 2.42578 2.74551 2.42578 3.35489V19.8647C2.42578 20.4741 2.92126 20.97 3.53064 20.97H12.8501C13.2988 20.97 13.6626 21.3334 13.6626 21.7825C13.6626 22.2316 13.2988 22.595 12.8501 22.595H3.53064C2.02539 22.595 0.800781 21.3699 0.800781 19.8647V3.35489C0.800781 1.8497 2.02539 0.625 3.53064 0.625H13.6301C13.828 0.646642 14.0295 0.695439 14.1804 0.838043L20.1511 6.30179ZM14.4442 4.98743C14.4442 5.59482 14.9381 6.08875 15.5452 6.08875H17.511L14.4442 3.28229V4.98743ZM18.8503 22.5623C18.8503 23.0114 18.4866 23.3748 18.0378 23.3748C17.5891 23.3748 17.2253 23.0114 17.2253 22.5623V21.0277H15.6904C15.2417 21.0277 14.8779 20.6643 14.8779 20.2152C14.8779 19.7661 15.2417 19.4027 15.6904 19.4027H17.2253V17.8682C17.2253 17.4191 17.5891 17.0557 18.0378 17.0557C18.4866 17.0557 18.8503 17.4191 18.8503 17.8682V19.4027H20.3849C20.8336 19.4027 21.1974 19.7661 21.1974 20.2152C21.1974 20.6643 20.8336 21.0277 20.3849 21.0277H18.8503V22.5623ZM10.6328 11.6088C10.6328 12.0575 10.9966 12.4213 11.4453 12.4213H14.7076C15.1564 12.4213 15.5201 12.0575 15.5201 11.6088C15.5201 11.1601 15.1564 10.7963 14.7076 10.7963H11.4453C10.9966 10.7963 10.6328 11.1601 10.6328 11.6088ZM5.69531 11.6089C5.69531 11.1602 6.05908 10.7964 6.50781 10.7964H8.20581C8.65454 10.7964 9.01831 11.1602 9.01831 11.6089C9.01831 12.0576 8.65454 12.4214 8.20581 12.4214H6.50781C6.05908 12.4214 5.69531 12.0576 5.69531 11.6089ZM6.5061 16.5235H14.71C15.1587 16.5235 15.5225 16.1601 15.5225 15.711C15.5225 15.2619 15.1587 14.8985 14.71 14.8985H6.5061C6.05737 14.8985 5.6936 15.2619 5.6936 15.711C5.6936 16.1601 6.05737 16.5235 6.5061 16.5235ZM6.5061 6.69455H10.6079C11.0565 6.69455 11.4204 7.05835 11.4204 7.50705C11.4204 7.95575 11.0565 8.31955 10.6079 8.31955H6.5061C6.05737 8.31955 5.6936 7.95575 5.6936 7.50705C5.6936 7.05835 6.05737 6.69455 6.5061 6.69455Z" fill="currentColor"/>
    </symbol>

    <symbol viewBox="0 0 110 86" id="folder-solid" xmlns="http://www.w3.org/2000/svg">
        <path d="M100.294 11.9033H55.6255L46.7284 1.32384C46.4629 1.00463 46.0649 0.825606 45.65 0.838547H9.70589C4.32559 0.891929 -0.00619433 5.27171 6.64924e-06 10.6523V75.3582C-0.000262959 80.7344 4.32991 85.108 9.70589 85.1611H100.294C105.67 85.108 110 80.7344 110 75.3582V21.7062C110 16.3299 105.67 11.9566 100.294 11.9033Z" fill="#D7DCE3"/>
    </symbol>

    <symbol viewBox="0 0 92 96" id="docx" xmlns="http://www.w3.org/2000/svg">
        <path fill-rule="evenodd" clip-rule="evenodd" d="M10.9729 56.6687C34.8595 60.8114 58.7466 60.6721 82.6332 56.6687V23.46C82.6332 23.0817 82.5107 22.7138 82.2838 22.4113L66.5534 1.43755C66.2233 0.997517 65.7053 0.738281 65.1553 0.738281H16.2164C14.8258 0.738281 13.4919 1.29073 12.5086 2.27398C11.5254 3.25765 10.9729 4.59117 10.9729 5.98173V46.1818C10.9729 48.7775 10.3643 50.9776 10.3643 52.7314C10.3643 55.156 10.9729 56.6687 10.9729 56.6687Z" fill="#D8DFE3" style="fill:#D8DFE3;fill:color(display-p3 0.8471 0.8745 0.8902);fill-opacity:1;"/>
        <path fill-rule="evenodd" clip-rule="evenodd" d="M0.486328 52.1367V89.8761C0.486328 91.2667 1.03878 92.6006 2.02203 93.5838C3.00528 94.5671 4.33921 95.1195 5.72977 95.1195H86.1294C87.52 95.1195 88.8535 94.5671 89.8372 93.5838C90.8204 92.6006 91.3729 91.2667 91.3729 89.8761C91.3729 83.1788 91.3729 68.6087 91.3729 61.9113C91.3729 60.5208 90.8204 59.1868 89.8372 58.2036C88.8535 57.2203 87.52 56.6679 86.1294 56.6679H7.47773C5.2478 56.6679 0.486328 52.1367 0.486328 52.1367Z" fill="#374E73" style="fill:#374E73;fill:color(display-p3 0.2157 0.3059 0.4510);fill-opacity:1;"/>
        <path fill-rule="evenodd" clip-rule="evenodd" d="M5.72977 56.6685C4.13409 56.6685 2.9692 56.0213 2.1118 55.2243C1.30514 54.4743 0.486328 53.1525 0.486328 51.4251C0.486328 50.3164 1.03878 48.7006 2.02203 47.7173C3.00528 46.7341 4.33921 46.1816 5.72977 46.1816H10.9732V56.6685C10.9732 56.6685 11.4225 56.6685 5.72977 56.6685Z" fill="#172A49" style="fill:#172A49;fill:color(display-p3 0.0897 0.1656 0.2878);fill-opacity:1;"/>
        <path fill-rule="evenodd" clip-rule="evenodd" d="M65.1553 0.738281V18.2166C65.1553 19.6071 65.7077 20.9411 66.691 21.9243C67.6742 22.9076 69.0077 23.46 70.3987 23.46H82.6331C82.6331 23.0817 82.5107 22.7138 82.2837 22.4113L66.5534 1.43755C66.2233 0.997517 65.7052 0.738281 65.1553 0.738281Z" fill="#AFBDC7" style="fill:#AFBDC7;fill:color(display-p3 0.6863 0.7412 0.7804);fill-opacity:1;"/>
        <path d="M26.7031 23.46H49.4249" stroke="white" style="stroke:white;stroke-opacity:1;" stroke-width="3.49423" stroke-miterlimit="1.5" stroke-linecap="round" stroke-linejoin="round"/>
        <path d="M26.7031 33.9473H66.9027" stroke="white" style="stroke:white;stroke-opacity:1;" stroke-width="3.49423" stroke-miterlimit="1.5" stroke-linecap="round" stroke-linejoin="round"/>
        <path d="M26.7031 44.4346H66.9027" stroke="white" style="stroke:white;stroke-opacity:1;" stroke-width="3.49423" stroke-miterlimit="1.5" stroke-linecap="round" stroke-linejoin="round"/>
        <path fill-rule="evenodd" clip-rule="evenodd" d="M24.8111 74.1471C24.8111 71.8295 23.8904 69.6067 22.2515 67.9678C20.6126 66.329 18.3898 65.4082 16.0722 65.4082C12.9471 65.4082 9.95499 65.4082 9.95499 65.4082C8.98935 65.4082 8.20703 66.1905 8.20703 67.1562V84.634C8.20703 85.5997 8.98935 86.382 9.95499 86.382H16.0722C18.3898 86.382 20.6126 85.4612 22.2515 83.8223C23.8904 82.1835 24.8111 79.9607 24.8111 77.6431V74.1471ZM21.3156 74.1471V77.6431C21.3156 79.0336 20.7632 80.3671 19.7799 81.3508C18.7967 82.334 17.4628 82.8865 16.0722 82.8865H11.7025V68.9037H16.0722C17.4628 68.9037 18.7967 69.4561 19.7799 70.4394C20.7632 71.4231 21.3156 72.7566 21.3156 74.1471Z" fill="#D8DFE3" style="fill:#D8DFE3;fill:color(display-p3 0.8471 0.8745 0.8902);fill-opacity:1;"/>
        <path fill-rule="evenodd" clip-rule="evenodd" d="M55.787 65.582H54.7878C49.9613 65.582 46.0488 69.4945 46.0488 74.321V77.8169C46.0488 82.6434 49.9613 86.5558 54.7878 86.5558H55.787C58.9045 86.5558 61.736 84.737 63.0321 81.9013C63.2129 81.5062 63.3648 81.1739 63.3648 81.1739L61.7792 82.1861C61.0887 79.6835 60.491 79.374 60.2074 79.7544L60.1856 79.7205L59.8529 80.4478C59.1256 82.0393 57.5366 83.0603 55.787 83.0603H54.7882C51.8921 83.0603 49.5443 80.7125 49.5443 77.8169V74.321C49.5443 71.4253 51.8921 69.0775 54.7878 69.0775H55.787C57.5366 69.0775 59.1256 70.0985 59.8529 71.6896L60.1856 72.4174L60.1902 72.427L60.204 72.4568L60.2267 72.5013L60.2359 72.5206L60.243 72.5336C60.7812 73.55 61.7792 73.4472 61.7792 73.4472L61.8807 73.4132C62.3278 73.2526 64.0729 72.513 63.3648 70.9639L63.0321 70.2365C61.736 67.4009 58.9045 65.582 55.787 65.582Z" fill="#D8DFE3" style="fill:#D8DFE3;fill:color(display-p3 0.8471 0.8745 0.8902);fill-opacity:1;"/>
        <path fill-rule="evenodd" clip-rule="evenodd" d="M35.5157 65.4082C30.8092 65.4082 26.7764 70.0119 26.7764 75.8951C26.7764 81.7782 30.8092 86.382 35.5157 86.382C40.2222 86.382 44.2547 81.7782 44.2547 75.8951C44.2547 70.0119 40.2222 65.4082 35.5157 65.4082ZM35.5157 68.9037C38.5288 68.9037 40.7592 72.1286 40.7592 75.8951C40.7592 79.6616 38.5288 82.8865 35.5157 82.8865C32.5026 82.8865 30.2723 79.6616 30.2723 75.8951C30.2723 72.1286 32.5026 68.9037 35.5157 68.9037Z" fill="#D8DFE3" style="fill:#D8DFE3;fill:color(display-p3 0.8471 0.8745 0.8902);fill-opacity:1;"/>
        <path fill-rule="evenodd" clip-rule="evenodd" d="M67.9269 85.7847L83.2206 68.3064C83.8557 67.5807 83.7818 66.4754 83.0561 65.8403C82.33 65.2052 81.2251 65.2786 80.5896 66.0048L65.2964 83.483C64.6613 84.2087 64.7347 85.3141 65.4608 85.9491C66.1869 86.5842 67.2918 86.5108 67.9269 85.7847Z" fill="#D8DFE3" style="fill:#D8DFE3;fill:color(display-p3 0.8471 0.8745 0.8902);fill-opacity:1;"/>
        <path fill-rule="evenodd" clip-rule="evenodd" d="M83.2206 83.483L67.9269 66.0048C67.2918 65.2786 66.1869 65.2052 65.4608 65.8403C64.7347 66.4754 64.6613 67.5807 65.2964 68.3064L80.5896 85.7847C81.2251 86.5108 82.33 86.5842 83.0561 85.9491C83.7818 85.3141 83.8557 84.2087 83.2206 83.483Z" fill="#D8DFE3" style="fill:#D8DFE3;fill:color(display-p3 0.8471 0.8745 0.8902);fill-opacity:1;"/>
    </symbol>

    <symbol viewBox="0 0 4 18" id="dots" xmlns="http://www.w3.org/2000/svg">
        <path fill-rule="evenodd" clip-rule="evenodd" d="M4 2C4 3.10457 3.10458 4 2 4C0.895416 4 0 3.10457 0 2C0 0.895431 0.895416 0 2 0C3.10458 0 4 0.895431 4 2ZM4 9C4 10.1046 3.10458 11 2 11C0.895416 11 0 10.1046 0 9C0 7.89543 0.895416 7 2 7C3.10458 7 4 7.89543 4 9ZM2 18C3.10458 18 4 17.1046 4 16C4 14.8954 3.10458 14 2 14C0.895416 14 0 14.8954 0 16C0 17.1046 0.895416 18 2 18Z" fill="currentColor" />
    </symbol>

    <symbol viewBox="0 0 28 28" id="word" xmlns="http://www.w3.org/2000/svg">
        <path d="M27.125 23.625H14.875C14.392 23.625 14 23.2348 14 22.75C14 22.2652 14 5.733 14 5.25C14 4.767 14.392 4.375 14.875 4.375H27.125C27.608 4.375 28 4.767 28 5.25V22.75C28 23.2348 27.608 23.625 27.125 23.625Z" fill="#ECEFF1" style="fill:#ECEFF1;fill:color(display-p3 0.9255 0.9373 0.9451);fill-opacity:1;"/>
        <path d="M23.625 9.625H14.875C14.392 9.625 14 9.23475 14 8.75C14 8.26525 14.392 7.875 14.875 7.875H23.625C24.108 7.875 24.5 8.267 24.5 8.75C24.5 9.233 24.108 9.625 23.625 9.625Z" fill="#1976D2" style="fill:#1976D2;fill:color(display-p3 0.0980 0.4627 0.8235);fill-opacity:1;"/>
        <path d="M23.625 13.125H14.875C14.392 13.125 14 12.7348 14 12.25C14 11.7652 14.392 11.375 14.875 11.375H23.625C24.108 11.375 24.5 11.767 24.5 12.25C24.5 12.733 24.108 13.125 23.625 13.125Z" fill="#1976D2" style="fill:#1976D2;fill:color(display-p3 0.0980 0.4627 0.8235);fill-opacity:1;"/>
        <path d="M23.625 16.625H14.875C14.392 16.625 14 16.2348 14 15.75C14 15.2652 14.392 14.875 14.875 14.875H23.625C24.108 14.875 24.5 15.267 24.5 15.75C24.5 16.233 24.108 16.625 23.625 16.625Z" fill="#1976D2" style="fill:#1976D2;fill:color(display-p3 0.0980 0.4627 0.8235);fill-opacity:1;"/>
        <path d="M23.625 20.125H14.875C14.392 20.125 14 19.7348 14 19.25C14 18.7652 14.392 18.375 14.875 18.375H23.625C24.108 18.375 24.5 18.767 24.5 19.25C24.5 19.733 24.108 20.125 23.625 20.125Z" fill="#1976D2" style="fill:#1976D2;fill:color(display-p3 0.0980 0.4627 0.8235);fill-opacity:1;"/>
        <path d="M15.4333 1.07846C15.2338 0.910465 14.966 0.840465 14.714 0.891215L0.714 3.51621C0.301 3.59321 0 3.95546 0 4.37546V23.6255C0 24.0455 0.29925 24.4077 0.714 24.4847L14.714 27.1097C14.7682 27.1202 14.8208 27.1255 14.875 27.1255C15.078 27.1255 15.2758 27.0555 15.4333 26.9242C15.6345 26.758 15.75 26.5112 15.75 26.2505V1.75047C15.75 1.48971 15.6345 1.24471 15.4333 1.07846Z" fill="#1565C0" style="fill:#1565C0;fill:color(display-p3 0.0824 0.3961 0.7529);fill-opacity:1;"/>
        <path d="M11.3699 18.4735C11.3244 18.8742 11.0094 19.1945 10.6086 19.2435C10.5719 19.2487 10.5369 19.2505 10.5001 19.2505C10.1396 19.2505 9.81063 19.0265 9.68113 18.6835L7.87513 13.8675L6.06913 18.6835C5.92913 19.058 5.56163 19.2872 5.15563 19.2452C4.75838 19.2032 4.43988 18.8952 4.38388 18.498L3.50888 12.373C3.44063 11.897 3.77313 11.4525 4.25088 11.3842C4.73038 11.3142 5.17313 11.6485 5.24138 12.1262L5.63163 14.8632L7.05438 11.0675C7.30988 10.385 8.43688 10.385 8.69413 11.0675L10.0346 14.641L10.5054 10.4025C10.5596 9.92298 11.0041 9.57823 11.4714 9.62898C11.9526 9.68498 12.2974 10.1172 12.2449 10.5967L11.3699 18.4735Z" fill="#FAFAFA" style="fill:#FAFAFA;fill:color(display-p3 0.9804 0.9804 0.9804);fill-opacity:1;"/>
    </symbol>

    <symbol viewBox="" id="id" xmlns="http://www.w3.org/2000/svg">
        
    </symbol>
</svg>