<?xml version="1.0" encoding="UTF-8"?>

<svg version="1.1" xmlns="http://www.w3.org/2000/svg" xmlns:xlink="http://www.w3.org/1999/xlink">
    <symbol viewBox="0 0 46 38" id="logo" xmlns="http://www.w3.org/2000/svg">
        <path d="M18.3144 38.0003H0V5.52885H2.714V35.1783L5.11842 35.1363C9.69069 34.9984 14.2259 35.9827 18.3144 38.0003ZM43.286 5.52885V35.1783L40.8843 35.1363C36.3111 34.9976 31.7748 35.9819 27.6856 38.0003H46V5.52885H43.286ZM5.0738 0.902345V32.8138C10.9791 32.6353 16.8058 34.182 21.8178 37.2584V2.25542C16.2716 -0.727585 9.87482 -0.271132 5.0738 0.902345ZM40.9262 32.8138V0.902345C36.1252 -0.269774 29.7284 -0.726228 24.1822 2.25542V37.2584C29.1942 34.182 35.0209 32.6353 40.9262 32.8138Z" fill="currentColor" />
    </symbol>

    <symbol viewBox="0 0 8 4" id="dropdown-arrow" xmlns="http://www.w3.org/2000/svg">
        <path d="M4.39604 3.85609L7.83581 0.83885C8.05473 0.646917 8.05473 0.335731 7.83581 0.143892C7.61708 -0.0479634 7.26232 -0.0479634 7.04361 0.143892L3.99994 2.81368L0.956381 0.143969C0.737564 -0.0478861 0.382842 -0.0478861 0.164113 0.143969C-0.0547044 0.335824 -0.0547044 0.646994 0.164113 0.838927L3.60393 3.85616C3.71335 3.95209 3.8566 4 3.99992 4C4.14332 4 4.28668 3.952 4.39604 3.85609Z" fill="currentColor"/>
    </symbol>

    <symbol viewBox="0 0 10 19" id="arrow-left" xmlns="http://www.w3.org/2000/svg">
        <path d="M0.359786 8.5594L7.90287 0.389958C8.38271 -0.129986 9.16067 -0.129986 9.64027 0.389957C10.1199 0.909439 10.1199 1.75199 9.64027 2.27143L2.9658 9.50014L9.64008 16.7286C10.1197 17.2483 10.1197 18.0908 9.64008 18.6102C9.16044 19.1299 8.38251 19.1299 7.90268 18.6102L0.359592 10.4407C0.119773 10.1808 -8.00743e-07 9.84057 -8.30501e-07 9.50018C-8.60273e-07 9.15962 0.120006 8.81914 0.359786 8.5594Z" fill="currentColor"/>
    </symbol>

    <symbol viewBox="0 0 10 19" id="arrow-right" xmlns="http://www.w3.org/2000/svg">
        <path d="M9.64021 10.4406L2.09712 18.61C1.61729 19.13 0.839327 19.13 0.359728 18.61C-0.119909 18.0906 -0.119909 17.248 0.359728 16.7286L7.0342 9.49986L0.359922 2.27141C-0.119715 1.75171 -0.119715 0.90925 0.359922 0.389769C0.83956 -0.129923 1.61749 -0.129923 2.09732 0.389769L9.64041 8.55934C9.88023 8.81921 10 9.15943 10 9.49982C10 9.84038 9.87999 10.1809 9.64021 10.4406Z" fill="currentColor"/>
    </symbol>

    <symbol viewBox="0 0 17 19" id="user" xmlns="http://www.w3.org/2000/svg">
        <path fill-rule="evenodd" clip-rule="evenodd" d="M5.39704 7.80808C6.28639 8.69743 7.37453 9.14818 8.63132 9.14818C9.88783 9.14818 10.976 8.69728 11.8655 7.80822C12.7547 6.91902 13.2056 5.83088 13.2056 4.57395C13.2056 3.3173 12.7547 2.22916 11.8655 1.33996C10.9763 0.450759 9.88826 0 8.63132 0C7.37467 0 6.28653 0.450759 5.39718 1.33982C4.50784 2.22931 4.05708 3.31744 4.05708 4.57395C4.05708 5.83088 4.50798 6.91888 5.39704 7.80808ZM8.63132 1.11291C9.59572 1.11291 10.3961 1.44457 11.0784 2.12687C11.7608 2.80931 12.0927 3.60984 12.0927 4.57395C12.0927 5.53835 11.7608 6.33888 11.0784 7.02117C10.3958 7.70347 9.59543 8.03527 8.63132 8.03527C7.66706 8.03527 6.86654 7.70361 6.18409 7.02117C5.5018 6.33873 5.16999 5.53835 5.16999 4.57395C5.16999 3.60984 5.5018 2.80931 6.18409 2.12687C6.86654 1.44457 7.66706 1.11291 8.63132 1.11291ZM0.782063 13.4034C0.705705 13.8296 0.653832 14.2333 0.628187 14.6033C0.602831 14.965 0.589935 15.3424 0.58979 15.7251C0.58979 16.7167 0.904931 17.5196 1.52652 18.111C2.14043 18.6951 2.9524 18.9913 3.93984 18.9913H13.0843C14.072 18.9913 14.884 18.6951 15.4977 18.111C16.1192 17.5191 16.4343 16.7166 16.4343 15.7252C16.4343 15.3439 16.4216 14.9664 16.3964 14.6038C16.3707 14.2329 16.319 13.829 16.2425 13.4034C16.1654 12.9739 16.0662 12.5681 15.9475 12.197C15.8246 11.8132 15.6577 11.4346 15.4515 11.0716C15.2377 10.695 14.9861 10.3671 14.7039 10.0971C14.4084 9.81438 14.0469 9.58733 13.6294 9.42201C13.2131 9.25713 12.7517 9.17352 12.258 9.17352C12.0641 9.17352 11.8766 9.25307 11.5148 9.48881C11.2886 9.63616 11.0278 9.80424 10.7396 9.98839C10.4913 10.1469 10.1541 10.2954 9.73828 10.4297C9.33186 10.5612 8.9195 10.6278 8.51264 10.6278C8.10549 10.6278 7.69313 10.5612 7.287 10.4297C6.87072 10.2953 6.5337 10.1468 6.28492 9.98825C5.99398 9.80235 5.73332 9.63428 5.51047 9.48895C5.14839 9.25321 4.9609 9.17367 4.76703 9.17367C4.27338 9.17367 3.8119 9.25713 3.39548 9.42187C2.97761 9.58748 2.61625 9.81452 2.32111 10.0969C2.03886 10.3669 1.78732 10.6949 1.57332 11.0716C1.36685 11.4346 1.20008 11.8133 1.07721 12.1968C0.958396 12.5679 0.859145 12.9739 0.782063 13.4034ZM3.93999 17.8783C3.23784 17.8783 2.69942 17.6907 2.29387 17.3047C1.89614 16.9263 1.70285 16.4096 1.70271 15.7252C1.70285 15.3684 1.71473 15.0172 1.73835 14.6812V14.6809C1.76124 14.3505 1.80819 13.9868 1.87745 13.5998C1.94584 13.2186 2.03321 12.8607 2.13709 12.5362C2.23649 12.2257 2.3724 11.9178 2.54091 11.6215C2.70159 11.3386 2.88648 11.0962 3.09048 10.9011C3.28131 10.7185 3.52183 10.5688 3.80509 10.4567C4.06735 10.3529 4.36191 10.2961 4.68183 10.2876C4.72081 10.3083 4.79021 10.348 4.90265 10.4212C5.13144 10.5704 5.38775 10.7356 5.68608 10.9263C6.01513 11.1361 6.43836 11.3252 6.94461 11.4888C7.46145 11.6558 7.989 11.7407 8.51249 11.7407C9.03599 11.7407 9.5634 11.6558 10.0805 11.4886C10.5863 11.3253 11.0097 11.1361 11.3383 10.9266C11.6298 10.7404 11.8936 10.5703 12.1223 10.4212C12.2348 10.3479 12.3042 10.3083 12.3432 10.2876C12.6629 10.2961 12.9575 10.3529 13.2196 10.4567C13.503 10.5688 13.7435 10.7184 13.9344 10.9011C14.1384 11.0964 14.3232 11.3388 14.4839 11.6213C14.6523 11.9178 14.7881 12.2255 14.8876 12.5363C14.9913 12.8604 15.0786 13.2185 15.1471 13.6C15.2165 13.9863 15.2633 14.3498 15.2862 14.6807C15.3097 15.018 15.3214 15.3694 15.3214 15.7252C15.3214 16.4094 15.1281 16.9263 14.7304 17.3049C14.325 17.6907 13.7866 17.8783 13.0843 17.8783H3.93999Z" fill="currentColor"/>
    </symbol>

    <symbol viewBox="0 0 22 18" id="book" xmlns="http://www.w3.org/2000/svg">
        <path fill-rule="evenodd" clip-rule="evenodd" d="M1.70995 3.17367H0.496094V17.3739H8.68739C8.0114 17.0477 7.3081 16.7833 6.58676 16.5826C5.3568 16.2404 4.07437 16.0834 2.78535 16.1214L1.70995 16.1398V3.17367ZM10.2543 1.74215C7.7737 0.43764 4.9127 0.637253 2.7654 1.15043V15.1058C3.02963 15.098 3.2935 15.0977 3.5567 15.1049C5.62033 15.1614 7.64205 15.6769 9.463 16.61C9.73129 16.7474 9.99523 16.894 10.2543 17.0495V1.74215ZM9.463 15.7272V2.23776C7.54268 1.38534 5.38113 1.4342 3.5567 1.78849V14.3133C5.60972 14.3665 7.62512 14.8495 9.463 15.7272ZM12.1031 16.61C11.8348 16.7474 11.5709 16.894 11.3118 17.0495V1.74215C13.7924 0.438233 16.6534 0.637847 18.8007 1.15043V15.1058C18.5365 15.098 18.2726 15.0977 18.0094 15.1049C15.9458 15.1614 13.9241 15.6769 12.1031 16.61ZM12.1031 15.7272C13.941 14.8495 15.9564 14.3665 18.0094 14.3133V1.78864C16.1849 1.43475 14.0234 1.38589 12.1031 2.23787V15.7272ZM12.8787 17.3739C13.5546 17.0478 14.2577 16.7833 14.9789 16.5826C16.2094 16.2402 17.4924 16.0832 18.782 16.1214L19.8561 16.1398V3.17367H21.07V17.3739H12.8787Z" fill="currentColor"/>
    </symbol>

    <symbol viewBox="0 0 16 20" id="bookmark" xmlns="http://www.w3.org/2000/svg">
        <path d="M13.7694 19.0941C13.311 19.0941 12.8654 18.9316 12.5147 18.6367L8.18677 14.9972L3.85854 18.6369C3.50797 18.9316 3.06242 19.0941 2.60417 19.0941C2.3179 19.0941 2.04128 19.0329 1.78137 18.912C1.09729 18.5936 0.655273 17.9 0.655273 17.1452V3.45186C0.655273 2.53503 1.01242 1.67302 1.66066 1.02446C2.30906 0.376056 3.17108 0.0189056 4.0879 0.0189056H12.2853C13.2023 0.0189056 14.0643 0.376056 14.7127 1.02429C15.3611 1.67269 15.7181 2.53471 15.7181 3.45169V17.1451C15.7181 17.8999 15.2761 18.5935 14.5919 18.9119C14.3324 19.0329 14.0556 19.0941 13.7694 19.0941ZM8.18677 13.5141C8.33384 13.5141 8.48108 13.5644 8.60066 13.6649L13.3425 17.6525C13.5363 17.8155 13.8192 17.8531 14.0492 17.7462C14.2821 17.6379 14.4324 17.4019 14.4324 17.1451V3.45186C14.4324 2.87836 14.2091 2.33926 13.8036 1.93373C13.3981 1.5282 12.859 1.30478 12.2855 1.30478H4.08806C3.51473 1.30478 2.97563 1.5282 2.57009 1.93373C2.16456 2.33926 1.94114 2.87836 1.94114 3.45186V17.1452C1.94114 17.4021 2.09143 17.6379 2.32417 17.7462C2.55418 17.8534 2.83723 17.8155 3.03076 17.6527L7.77272 13.6649C7.89247 13.5644 8.0397 13.5141 8.18677 13.5141Z" fill="currentColor"/>
    </symbol>

    <symbol viewBox="0 0 17 21" id="file" xmlns="http://www.w3.org/2000/svg">
        <path fill-rule="evenodd" clip-rule="evenodd" d="M12.053 0.761124L15.9276 4.42674C16.3669 4.84231 16.6188 5.42751 16.6188 6.03223V18.5203C16.6188 19.739 15.6274 20.7304 14.4087 20.7304H3.15735C1.93871 20.7304 0.947266 19.739 0.947266 18.5203V2.36661C0.947266 1.14797 1.93871 0.156525 3.15735 0.156525H10.5341C11.1014 0.156525 11.6408 0.371225 12.053 0.761124ZM11.7566 4.97854H14.7567L11.5557 1.95015V4.77762C11.5557 4.8884 11.6458 4.97854 11.7566 4.97854ZM3.15735 19.5249H14.4087C14.9626 19.5249 15.4133 19.0743 15.4133 18.5203V6.18404H11.7566C10.9811 6.18404 10.3502 5.55312 10.3502 4.77762V1.36203H3.15735C2.60343 1.36203 2.15277 1.81268 2.15277 2.36661V18.5203C2.15277 19.0743 2.60343 19.5249 3.15735 19.5249ZM4.24142 8.19321H13.0818C13.4147 8.19321 13.6845 8.46308 13.6845 8.79596C13.6845 9.12884 13.4147 9.39871 13.0818 9.39871H4.24142C3.90854 9.39871 3.63867 9.12884 3.63867 8.79596C3.63867 8.46308 3.90854 8.19321 4.24142 8.19321ZM13.0818 11.4079H4.24142C3.90854 11.4079 3.63867 11.6778 3.63867 12.0106C3.63867 12.3435 3.90854 12.6134 4.24142 12.6134H13.0818C13.4147 12.6134 13.6845 12.3435 13.6845 12.0106C13.6845 11.6778 13.4147 11.4079 13.0818 11.4079ZM4.24142 14.6226H7.16356C7.49644 14.6226 7.76631 14.8924 7.76631 15.2253C7.76631 15.5582 7.49644 15.8281 7.16356 15.8281H4.24142C3.90854 15.8281 3.63867 15.5582 3.63867 15.2253C3.63867 14.8924 3.90854 14.6226 4.24142 14.6226Z" fill="currentColor"/>
    </symbol>

    <symbol viewBox="0 0 21 17" id="folder" xmlns="http://www.w3.org/2000/svg">
        <path fill-rule="evenodd" clip-rule="evenodd" d="M0.286133 15.0493C0.286133 15.783 0.910944 16.3071 1.59137 16.3071H16.7545C17.0874 16.3071 17.3572 16.0372 17.3572 15.7043C17.3572 15.3714 17.0874 15.1016 16.7545 15.1016H1.59137C1.55033 15.1016 1.5215 15.0863 1.50569 15.0716C1.49101 15.0579 1.49159 15.05 1.49163 15.0493C1.49163 15.0493 1.49164 15.0493 1.49164 15.0493V1.5862C1.49254 1.58494 1.49409 1.58305 1.49657 1.58075C1.50675 1.57125 1.5278 1.5593 1.56027 1.5593H6.43452C6.45334 1.5593 6.46972 1.56374 6.48216 1.56994C6.49451 1.5761 6.50054 1.58268 6.50286 1.5859C6.50287 1.58592 6.50288 1.58594 6.5029 1.58596L7.8456 3.46383C7.8456 3.46384 7.8456 3.46384 7.84561 3.46385C8.07874 3.78991 8.45741 3.9703 8.84556 3.9703H16.3372C16.3697 3.9703 16.3907 3.98226 16.4009 3.99175C16.4034 3.99406 16.4049 3.99594 16.4058 3.9972V7.36331C16.4058 7.6962 16.6757 7.96606 17.0086 7.96606C17.3415 7.96606 17.6113 7.6962 17.6113 7.36331V3.99353C17.6113 3.2759 17.0005 2.7648 16.3372 2.7648H8.84556C8.83651 2.7648 8.82963 2.76264 8.82562 2.76064C8.82505 2.76035 8.82458 2.7601 8.82422 2.75988L7.48346 0.884718L7.4834 0.884632C7.23938 0.543478 6.84244 0.353792 6.43452 0.353792H1.56027C0.896995 0.353792 0.286133 0.864893 0.286133 1.58252V15.0493ZM8.82624 2.7627C8.82623 2.7627 8.82623 2.7627 8.82623 2.76269Z" fill="currentColor" />
        <path fill-rule="evenodd" clip-rule="evenodd" d="M19.6117 8.61122L16.2138 15.4357L17.2929 15.973L20.6909 9.14853C21.264 7.99745 20.3314 6.80075 19.1406 6.80075H5.49664C4.83712 6.80075 4.21252 7.16555 3.92902 7.77229C3.92902 7.7723 3.92901 7.77231 3.92901 7.77232L0.439453 15.24L1.5316 15.7503L5.02117 8.28264L5.02118 8.28261C5.09178 8.13151 5.26948 8.00625 5.49664 8.00625H19.1406C19.347 8.00625 19.5001 8.10359 19.5825 8.22396C19.6629 8.34137 19.678 8.47812 19.6117 8.61122Z" fill="currentColor"/>
    </symbol>

    <symbol viewBox="0 0 20 19" id="subscribe" xmlns="http://www.w3.org/2000/svg">
        <path fill-rule="evenodd" clip-rule="evenodd" d="M2.0823 3.52894C2.0823 3.98017 2.44809 4.34596 2.89932 4.34596H4.82015C4.84622 4.3449 4.87242 4.34436 4.89874 4.34436H15.6981C15.4449 3.84356 15.3094 3.28585 15.3094 2.71415C15.3094 2.14185 15.4452 1.58357 15.6989 1.08235H2.89932C2.44809 1.08235 2.0823 1.44814 2.0823 1.89937V3.52894ZM2.89932 5.42782H3.18334C3.0657 5.67488 2.99986 5.95137 2.99986 6.24325V7.87282C2.99986 8.16772 3.06707 8.44692 3.18702 8.69593H2.7817C1.73282 8.69593 0.882812 9.54608 0.882812 10.5948V12.2244C0.882812 13.2731 1.73282 14.1233 2.7817 14.1233H3.1C2.98069 14.3717 2.91386 14.6502 2.91386 14.9443V16.5738C2.91386 17.6226 3.76386 18.4727 4.81274 18.4727H18.6639C18.8828 18.4727 19.08 18.3409 19.1637 18.1387C19.2475 17.9365 19.2009 17.7036 19.0461 17.549C18.5714 17.0742 18.3047 16.4304 18.3047 15.759C18.3047 15.0877 18.5714 14.4439 19.0461 13.9691C19.2009 13.8144 19.2474 13.5814 19.1637 13.3793C19.08 13.1772 18.8828 13.0454 18.6639 13.0454H16.8732C16.4875 12.59 16.2737 12.0108 16.2737 11.4096C16.2737 10.8075 16.4882 10.2274 16.875 9.7717H18.75C18.9688 9.7717 19.1661 9.63985 19.2498 9.43766C19.3335 9.23547 19.287 9.00262 19.1322 8.84796C18.6574 8.37322 18.3907 7.72937 18.3907 7.05803C18.3907 6.38669 18.6574 5.74284 19.1322 5.2681C19.2869 5.1134 19.3335 4.88042 19.2497 4.67829C19.166 4.47616 18.9688 4.34436 18.75 4.34436H16.9861C16.6034 3.88981 16.3913 3.31291 16.3913 2.71415C16.3913 2.04282 16.658 1.39897 17.1327 0.924227L17.133 0.923914C17.2877 0.76921 17.334 0.536545 17.2503 0.334414C17.1666 0.132282 16.9693 0.000488281 16.7505 0.000488281H2.89932C1.85059 0.000488281 1.00044 0.85064 1.00044 1.89937V3.52894C1.00044 4.57767 1.85059 5.42782 2.89932 5.42782ZM4.08172 6.24325C4.08172 5.80931 4.41996 5.45439 4.84724 5.42782H6.01184C6.00408 5.4643 6 5.50214 6 5.54093V7.98525C6 8.17012 6.09442 8.3422 6.25035 8.44151C6.40629 8.54082 6.60215 8.55361 6.76968 8.47543L7.6273 8.07522L8.48492 8.47543C8.65245 8.55361 8.84831 8.54082 9.00424 8.44151C9.16018 8.3422 9.2546 8.17012 9.2546 7.98525V5.54093C9.2546 5.50214 9.25051 5.4643 9.24275 5.42782H16.7505C16.7645 5.42782 16.7784 5.42728 16.7922 5.42622H17.6984C17.4446 5.92744 17.3089 6.48573 17.3089 7.05803C17.3089 7.63033 17.4446 8.18862 17.6984 8.68984H4.89874C4.44746 8.68984 4.08172 8.32405 4.08172 7.87282V6.24325ZM3.99572 16.5738C3.99572 17.0251 4.36144 17.3909 4.81274 17.3909H17.6123C17.3586 16.8896 17.2228 16.3313 17.2228 15.759C17.2228 15.1867 17.3586 14.6285 17.6123 14.1272H4.81274C4.36144 14.1272 3.99572 14.493 3.99572 14.9443V16.5738ZM1.96467 12.2244C1.96467 12.6756 2.3304 13.0414 2.7817 13.0414H15.5813C15.3276 12.5402 15.1918 11.9819 15.1918 11.4096C15.1918 10.8373 15.3276 10.279 15.5813 9.77779H14.2546V11.9852C14.2546 12.1701 14.1602 12.3422 14.0042 12.4415C13.8483 12.5408 13.6525 12.5536 13.4849 12.4754L12.6273 12.0752L11.7697 12.4754C11.6021 12.5536 11.4063 12.5408 11.2504 12.4415C11.0944 12.3422 11 12.1701 11 11.9852V9.77779H2.7817C2.3304 9.77779 1.96467 10.1436 1.96467 10.5948V12.2244ZM7.08186 7.13589V6.08186H8.17274V7.13589L7.85605 6.98811C7.71105 6.92044 7.54354 6.92044 7.39855 6.98811L7.08186 7.13589ZM12.0819 10.0819V11.1359L12.3986 10.9881C12.5435 10.9204 12.7111 10.9204 12.856 10.9881L13.1727 11.1359V10.0819H12.0819Z" fill="currentColor"/>
    </symbol>

    <symbol viewBox="0 0 15 11" id="check" xmlns="http://www.w3.org/2000/svg">
        <path d="M14.5606 2.6051L6.64752 10.5177C6.06154 11.1038 5.11099 11.1038 4.52446 10.5177L0.439649 6.43257C-0.14655 5.84648 -0.14655 4.89582 0.439649 4.30962C1.02596 3.72331 1.97643 3.72331 2.56248 4.3094L5.5863 7.33326L12.4375 0.482046C13.0238 -0.104264 13.9743 -0.103819 14.5604 0.482046C15.1465 1.06825 15.1465 2.01857 14.5606 2.6051Z" fill="currentColor"/>
    </symbol>

    <symbol viewBox="0 0 15 15" id="cross" xmlns="http://www.w3.org/2000/svg">
        <path fill-rule="evenodd" clip-rule="evenodd" d="M14.0144 0.985557C13.4009 0.372002 12.4114 0.372002 11.7978 0.985557L7.49986 5.28351L3.20191 0.985557C2.58836 0.372002 1.59887 0.372002 0.985313 0.985557C0.371758 1.59911 0.371758 2.5886 0.985313 3.20216L5.28326 7.50011L0.985313 11.7981C0.371758 12.4116 0.371758 13.4011 0.985313 14.0147C1.28225 14.3116 1.68426 14.4762 2.09077 14.4762C2.48106 14.4762 2.89095 14.3282 3.20063 14.0103L7.49418 9.71671L11.7921 14.0147C12.0891 14.3116 12.4911 14.4762 12.8976 14.4762C13.2971 14.4762 13.7007 14.3257 14.0084 14.0093C14.6165 13.3955 14.6145 12.4099 14.003 11.7981L9.7158 7.50077L14.0144 3.20216C14.628 2.5886 14.628 1.59911 14.0144 0.985557ZM1.34778 1.90913C1.28503 2.16121 1.35276 2.43824 1.551 2.63647L6.41456 7.50003L6.41468 7.49991L1.55105 2.63628C1.35286 2.43809 1.28511 2.16116 1.34778 1.90913ZM1.34778 12.7216C1.28503 12.9737 1.35276 13.2507 1.551 13.449C1.69873 13.5967 1.89759 13.6762 2.09077 13.6762C2.28395 13.6762 2.48282 13.6024 2.63054 13.449L7.49418 8.58533L12.3578 13.449C12.5055 13.5967 12.7044 13.6762 12.8976 13.6762C13.0965 13.6762 13.2896 13.6024 13.4374 13.449C13.5403 13.346 13.6081 13.2218 13.6406 13.0909C13.6081 13.2217 13.5403 13.3459 13.4374 13.4488C13.2897 13.6022 13.0965 13.676 12.8976 13.676C12.7045 13.676 12.5056 13.5965 12.3579 13.4488L7.49423 8.58514L2.63059 13.4488C2.48287 13.6022 2.284 13.676 2.09082 13.676C1.89764 13.676 1.69877 13.5965 1.55105 13.4488C1.35286 13.2506 1.28511 12.9737 1.34778 12.7216ZM8.58521 7.49999L13.4487 2.63647C13.5517 2.53352 13.6194 2.40931 13.652 2.27839C13.6194 2.40924 13.5517 2.53337 13.4488 2.63628L8.58514 7.49991L8.58521 7.49999Z" fill="currentColor"/>
    </symbol>

    <symbol viewBox="0 0 11 14" id="play" xmlns="http://www.w3.org/2000/svg">
        <path fill-rule="evenodd" clip-rule="evenodd" d="M8.89774 6.9999L1.99988 2.40137V11.5986L8.89774 6.9999ZM10.2913 6.12628C10.9148 6.54196 10.9148 7.45799 10.2913 7.87366L2.13221 13.3132C1.43447 13.7784 0.499756 13.278 0.499756 12.4394V1.56053C0.499756 0.721904 1.43447 0.221703 2.13221 0.686922L10.2913 6.12628Z" fill="currentColor"/>
    </symbol>

    <symbol viewBox="0 0 23 22" id="close-modal" xmlns="http://www.w3.org/2000/svg">
        <path fill-rule="evenodd" clip-rule="evenodd" d="M19.4452 1.06068C20.031 0.474891 20.9807 0.474891 21.5665 1.06068C22.1523 1.64646 22.1523 2.59621 21.5665 3.182L13.5286 11.22L21.754 19.4455C22.3398 20.0312 22.3398 20.981 21.754 21.5668C21.1683 22.1526 20.2185 22.1526 19.6327 21.5668L11.4072 13.3413L3.18175 21.5668C2.59597 22.1526 1.64622 22.1526 1.06043 21.5668C0.474647 20.981 0.474647 20.0312 1.06043 19.4455L9.28592 11.22L1.24794 3.182C0.662157 2.59621 0.662157 1.64646 1.24794 1.06068C1.83373 0.474891 2.78348 0.474891 3.36926 1.06068L11.4072 9.09865L19.4452 1.06068Z" fill="currentColor"/>
    </symbol>

    <symbol viewBox="0 0 21 22" id="bell" xmlns="http://www.w3.org/2000/svg">
        <path fill-rule="evenodd" clip-rule="evenodd" d="M17.72 11.2949V9.23828C17.72 6.23812 15.6591 3.69527 12.8353 2.86473V1.93359C12.8353 0.86741 11.9389 0 10.8371 0C9.73523 0 8.83881 0.86741 8.83881 1.93359V2.86473C6.01504 3.69527 3.95416 6.23807 3.95416 9.23828V11.2949C3.95416 13.9302 2.91604 16.4291 1.03106 18.3312C0.846332 18.5176 0.794422 18.7927 0.899131 19.0302C1.00384 19.2677 1.24496 19.4219 1.51184 19.4219H7.57364C7.88306 20.8911 9.22873 22 10.8371 22C12.4454 22 13.791 20.8911 14.1005 19.4219H20.1623C20.4292 19.4219 20.6702 19.2677 20.775 19.0302C20.8797 18.7927 20.8278 18.5176 20.6431 18.3312C18.7581 16.4291 17.72 13.9302 17.72 11.2949ZM10.171 1.93359C10.171 1.5782 10.4698 1.28906 10.8371 1.28906C11.2043 1.28906 11.5032 1.5782 11.5032 1.93359V2.60941C11.2839 2.58895 11.0618 2.57812 10.8371 2.57812C10.6124 2.57812 10.3902 2.58895 10.171 2.60941V1.93359ZM10.8371 20.7109C9.96871 20.7109 9.22833 20.1721 8.95337 19.4219H12.7208C12.4458 20.1721 11.7054 20.7109 10.8371 20.7109ZM2.94748 18.1328C4.46443 16.1652 5.28634 13.784 5.28634 11.2949V9.23828C5.28634 6.27666 7.7764 3.86719 10.8371 3.86719C13.8977 3.86719 16.3878 6.27666 16.3878 9.23828V11.2949C16.3878 13.784 17.2097 16.1652 18.7267 18.1328H2.94748ZM19.495 9.23829C19.495 9.59424 19.7932 9.88282 20.1611 9.88282C20.5289 9.88282 20.8271 9.59424 20.8271 9.23829C20.8271 6.65587 19.7879 4.22801 17.9008 2.40196C17.6407 2.1503 17.2189 2.15025 16.9588 2.40196C16.6986 2.65367 16.6986 3.06175 16.9588 3.31346C18.5943 4.89604 19.495 7.00018 19.495 9.23829ZM2.17788 9.23829C2.17788 9.59425 1.87965 9.88283 1.51179 9.88283C1.14393 9.88283 0.845703 9.59425 0.845703 9.23829C0.845703 6.65587 1.88498 4.22805 3.77209 2.40201C4.03222 2.1503 4.45399 2.1503 4.71407 2.40201C4.9742 2.65372 4.9742 3.06179 4.71407 3.31351C3.07861 4.89609 2.17788 7.00022 2.17788 9.23829Z" fill="currentColor"/>
    </symbol>

    <symbol viewBox="0 0 24 22" id="logout" xmlns="http://www.w3.org/2000/svg">
        <path fill-rule="evenodd" clip-rule="evenodd" d="M15.3759 7.33383C14.9837 7.33383 14.6654 7.02584 14.6654 6.64635V2.52148C14.6654 1.88989 14.1341 1.37563 13.4814 1.37563H7.41187L9.11242 1.92387C9.88828 2.18603 10.4026 2.88543 10.4026 3.66723V17.8751H13.4814C14.1341 17.8751 14.6654 17.3608 14.6654 16.7293V12.6044C14.6654 12.2249 14.9837 11.9169 15.3759 11.9169C15.7681 11.9169 16.0863 12.2249 16.0863 12.6044V16.7293C16.0863 18.1198 14.9185 19.2501 13.4814 19.2501H10.4026V20.1667C10.4026 21.1778 9.553 22 8.5081 22C8.30534 22 8.11297 21.9725 7.92079 21.9148L2.21984 20.0769C1.44415 19.8148 0.929688 19.1154 0.929688 18.3336V1.83407C0.929688 0.827101 1.77255 0.00742289 2.81161 0.000779615L2.82434 0.000671387H13.4814C14.9185 0.000671387 16.0863 1.13092 16.0863 2.52148V6.64635C16.0863 7.02584 15.7681 7.33383 15.3759 7.33383ZM8.98164 18.5626V3.66723C8.98164 3.47204 8.84617 3.2906 8.65294 3.22548L2.97871 1.39584C2.93795 1.38308 2.88487 1.3757 2.82434 1.3757C2.56381 1.3757 2.35063 1.58197 2.35063 1.83407V18.3336C2.35063 18.5288 2.4861 18.7102 2.67933 18.7753L8.35356 20.605C8.39432 20.6177 8.4474 20.6251 8.5081 20.6251C8.76863 20.6251 8.98164 20.4188 8.98164 20.1667V18.5626ZM19.4019 13.7502C19.22 13.7502 19.0382 13.6833 18.8998 13.5487C18.6223 13.2799 18.6223 12.8446 18.8998 12.576L21.2388 10.3128H13.9549C13.5628 10.3128 13.2445 10.0049 13.2445 9.62537C13.2445 9.24588 13.5628 8.93789 13.9549 8.93789H21.2406L18.8998 6.67287C18.6223 6.40433 18.6223 5.96894 18.8998 5.7004C19.1775 5.43168 19.6274 5.43168 19.905 5.7004L23.4573 9.13779C23.6997 9.37232 23.7304 9.73409 23.5494 10.0009C23.5184 10.0467 23.4819 10.0888 23.4408 10.1262L19.905 13.5477C19.7657 13.6833 19.5839 13.7502 19.4019 13.7502Z" fill="currentColor" />
    </symbol>

    <symbol viewBox="0 0 21 21" id="search" xmlns="http://www.w3.org/2000/svg">
        <path d="M9.93945 0.931305C4.98074 0.931305 0.941406 4.97063 0.941406 9.92937C0.941406 14.8881 4.98074 18.9353 9.93945 18.9353C12.0575 18.9353 14.0054 18.193 15.5449 16.9606L19.293 20.7067C19.4821 20.888 19.7347 20.988 19.9967 20.9854C20.2587 20.9827 20.5093 20.8775 20.6947 20.6924C20.8801 20.5073 20.9856 20.2569 20.9886 19.9949C20.9917 19.7329 20.892 19.4802 20.7109 19.2908L16.9629 15.5427C18.1963 14.0008 18.9395 12.0498 18.9395 9.92937C18.9395 4.97063 14.8982 0.931305 9.93945 0.931305ZM9.93945 2.93134C13.8173 2.93134 16.9375 6.05153 16.9375 9.92937C16.9375 13.8072 13.8173 16.9352 9.93945 16.9352C6.06162 16.9352 2.94141 13.8072 2.94141 9.92937C2.94141 6.05153 6.06162 2.93134 9.93945 2.93134Z" fill="currentColor"/>
    </symbol>

    <symbol viewBox="0 0 17 12" id="long-arrow-right" xmlns="http://www.w3.org/2000/svg">
        <path fill-rule="evenodd" clip-rule="evenodd" d="M11.7574 0.49677L16.5303 5.26974C16.8232 5.56263 16.8232 6.03751 16.5303 6.3304L11.7574 11.1034C11.4645 11.3963 10.9896 11.3963 10.6967 11.1034C10.4038 10.8105 10.4038 10.3356 10.6967 10.0427L14.1893 6.55007H0V5.05007H14.1893L10.6967 1.55743C10.4038 1.26454 10.4038 0.789663 10.6967 0.49677C10.9896 0.203876 11.4645 0.203876 11.7574 0.49677Z" fill="currentColor"/>
    </symbol>

    <symbol viewBox="0 0 22 22" id="copy" xmlns="http://www.w3.org/2000/svg">
        <path d="M18.8838 21.3018H7.92676C6.59389 21.3018 5.50977 20.2176 5.50977 18.8848V7.92774C5.50977 6.59486 6.59389 5.51074 7.92676 5.51074H18.8838C20.2167 5.51074 21.3008 6.59486 21.3008 7.92774V18.8848C21.3008 20.2176 20.2167 21.3018 18.8838 21.3018ZM7.92676 7.12207C7.48251 7.12207 7.12109 7.48349 7.12109 7.92774V18.8848C7.12109 19.329 7.48251 19.6904 7.92676 19.6904H18.8838C19.328 19.6904 19.6895 19.329 19.6895 18.8848V7.92774C19.6895 7.48349 19.328 7.12207 18.8838 7.12207H7.92676ZM3.89844 14.8564H3.09277C2.64853 14.8564 2.28711 14.495 2.28711 14.0508V3.09375C2.28711 2.6495 2.64853 2.28809 3.09277 2.28809H14.0498C14.4941 2.28809 14.8555 2.6495 14.8555 3.09375V3.85913H16.4668V3.09375C16.4668 1.76088 15.3827 0.676758 14.0498 0.676758H3.09277C1.7599 0.676758 0.675781 1.76088 0.675781 3.09375V14.0508C0.675781 15.3837 1.7599 16.4678 3.09277 16.4678H3.89844V14.8564Z" fill="currentColor"/>
    </symbol>

    <symbol viewBox="0 0 22 24" id="create" xmlns="http://www.w3.org/2000/svg">
        <path fill-rule="evenodd" clip-rule="evenodd" d="M20.1511 6.30179C20.2361 6.40257 20.3235 6.50679 20.3616 6.63534C20.384 6.69337 20.3927 6.75399 20.4014 6.81448C20.4053 6.84233 20.4092 6.87015 20.4146 6.89767V15.0223C20.4146 15.4714 20.0508 15.8348 19.6021 15.8348C19.1533 15.8348 18.7896 15.4714 18.7896 15.0223V7.71375H15.5452C14.042 7.71375 12.8192 6.49063 12.8192 4.98743V2.25H3.53064C2.92126 2.25 2.42578 2.74551 2.42578 3.35489V19.8647C2.42578 20.4741 2.92126 20.97 3.53064 20.97H12.8501C13.2988 20.97 13.6626 21.3334 13.6626 21.7825C13.6626 22.2316 13.2988 22.595 12.8501 22.595H3.53064C2.02539 22.595 0.800781 21.3699 0.800781 19.8647V3.35489C0.800781 1.8497 2.02539 0.625 3.53064 0.625H13.6301C13.828 0.646642 14.0295 0.695439 14.1804 0.838043L20.1511 6.30179ZM14.4442 4.98743C14.4442 5.59482 14.9381 6.08875 15.5452 6.08875H17.511L14.4442 3.28229V4.98743ZM18.8503 22.5623C18.8503 23.0114 18.4866 23.3748 18.0378 23.3748C17.5891 23.3748 17.2253 23.0114 17.2253 22.5623V21.0277H15.6904C15.2417 21.0277 14.8779 20.6643 14.8779 20.2152C14.8779 19.7661 15.2417 19.4027 15.6904 19.4027H17.2253V17.8682C17.2253 17.4191 17.5891 17.0557 18.0378 17.0557C18.4866 17.0557 18.8503 17.4191 18.8503 17.8682V19.4027H20.3849C20.8336 19.4027 21.1974 19.7661 21.1974 20.2152C21.1974 20.6643 20.8336 21.0277 20.3849 21.0277H18.8503V22.5623ZM10.6328 11.6088C10.6328 12.0575 10.9966 12.4213 11.4453 12.4213H14.7076C15.1564 12.4213 15.5201 12.0575 15.5201 11.6088C15.5201 11.1601 15.1564 10.7963 14.7076 10.7963H11.4453C10.9966 10.7963 10.6328 11.1601 10.6328 11.6088ZM5.69531 11.6089C5.69531 11.1602 6.05908 10.7964 6.50781 10.7964H8.20581C8.65454 10.7964 9.01831 11.1602 9.01831 11.6089C9.01831 12.0576 8.65454 12.4214 8.20581 12.4214H6.50781C6.05908 12.4214 5.69531 12.0576 5.69531 11.6089ZM6.5061 16.5235H14.71C15.1587 16.5235 15.5225 16.1601 15.5225 15.711C15.5225 15.2619 15.1587 14.8985 14.71 14.8985H6.5061C6.05737 14.8985 5.6936 15.2619 5.6936 15.711C5.6936 16.1601 6.05737 16.5235 6.5061 16.5235ZM6.5061 6.69455H10.6079C11.0565 6.69455 11.4204 7.05835 11.4204 7.50705C11.4204 7.95575 11.0565 8.31955 10.6079 8.31955H6.5061C6.05737 8.31955 5.6936 7.95575 5.6936 7.50705C5.6936 7.05835 6.05737 6.69455 6.5061 6.69455Z" fill="currentColor"/>
    </symbol>

    <symbol viewBox="0 0 110 86" id="folder-solid" xmlns="http://www.w3.org/2000/svg">
        <path d="M100.294 11.9033H55.6255L46.7284 1.32384C46.4629 1.00463 46.0649 0.825606 45.65 0.838547H9.70589C4.32559 0.891929 -0.00619433 5.27171 6.64924e-06 10.6523V75.3582C-0.000262959 80.7344 4.32991 85.108 9.70589 85.1611H100.294C105.67 85.108 110 80.7344 110 75.3582V21.7062C110 16.3299 105.67 11.9566 100.294 11.9033Z" fill="#D7DCE3"/>
    </symbol>

    <symbol viewBox="0 0 92 96" id="docx" xmlns="http://www.w3.org/2000/svg">
        <path fill-rule="evenodd" clip-rule="evenodd" d="M10.9729 56.6687C34.8595 60.8114 58.7466 60.6721 82.6332 56.6687V23.46C82.6332 23.0817 82.5107 22.7138 82.2838 22.4113L66.5534 1.43755C66.2233 0.997517 65.7053 0.738281 65.1553 0.738281H16.2164C14.8258 0.738281 13.4919 1.29073 12.5086 2.27398C11.5254 3.25765 10.9729 4.59117 10.9729 5.98173V46.1818C10.9729 48.7775 10.3643 50.9776 10.3643 52.7314C10.3643 55.156 10.9729 56.6687 10.9729 56.6687Z" fill="#D8DFE3" style="fill:#D8DFE3;fill:color(display-p3 0.8471 0.8745 0.8902);fill-opacity:1;"/>
        <path fill-rule="evenodd" clip-rule="evenodd" d="M0.486328 52.1367V89.8761C0.486328 91.2667 1.03878 92.6006 2.02203 93.5838C3.00528 94.5671 4.33921 95.1195 5.72977 95.1195H86.1294C87.52 95.1195 88.8535 94.5671 89.8372 93.5838C90.8204 92.6006 91.3729 91.2667 91.3729 89.8761C91.3729 83.1788 91.3729 68.6087 91.3729 61.9113C91.3729 60.5208 90.8204 59.1868 89.8372 58.2036C88.8535 57.2203 87.52 56.6679 86.1294 56.6679H7.47773C5.2478 56.6679 0.486328 52.1367 0.486328 52.1367Z" fill="#374E73" style="fill:#374E73;fill:color(display-p3 0.2157 0.3059 0.4510);fill-opacity:1;"/>
        <path fill-rule="evenodd" clip-rule="evenodd" d="M5.72977 56.6685C4.13409 56.6685 2.9692 56.0213 2.1118 55.2243C1.30514 54.4743 0.486328 53.1525 0.486328 51.4251C0.486328 50.3164 1.03878 48.7006 2.02203 47.7173C3.00528 46.7341 4.33921 46.1816 5.72977 46.1816H10.9732V56.6685C10.9732 56.6685 11.4225 56.6685 5.72977 56.6685Z" fill="#172A49" style="fill:#172A49;fill:color(display-p3 0.0897 0.1656 0.2878);fill-opacity:1;"/>
        <path fill-rule="evenodd" clip-rule="evenodd" d="M65.1553 0.738281V18.2166C65.1553 19.6071 65.7077 20.9411 66.691 21.9243C67.6742 22.9076 69.0077 23.46 70.3987 23.46H82.6331C82.6331 23.0817 82.5107 22.7138 82.2837 22.4113L66.5534 1.43755C66.2233 0.997517 65.7052 0.738281 65.1553 0.738281Z" fill="#AFBDC7" style="fill:#AFBDC7;fill:color(display-p3 0.6863 0.7412 0.7804);fill-opacity:1;"/>
        <path d="M26.7031 23.46H49.4249" stroke="white" style="stroke:white;stroke-opacity:1;" stroke-width="3.49423" stroke-miterlimit="1.5" stroke-linecap="round" stroke-linejoin="round"/>
        <path d="M26.7031 33.9473H66.9027" stroke="white" style="stroke:white;stroke-opacity:1;" stroke-width="3.49423" stroke-miterlimit="1.5" stroke-linecap="round" stroke-linejoin="round"/>
        <path d="M26.7031 44.4346H66.9027" stroke="white" style="stroke:white;stroke-opacity:1;" stroke-width="3.49423" stroke-miterlimit="1.5" stroke-linecap="round" stroke-linejoin="round"/>
        <path fill-rule="evenodd" clip-rule="evenodd" d="M24.8111 74.1471C24.8111 71.8295 23.8904 69.6067 22.2515 67.9678C20.6126 66.329 18.3898 65.4082 16.0722 65.4082C12.9471 65.4082 9.95499 65.4082 9.95499 65.4082C8.98935 65.4082 8.20703 66.1905 8.20703 67.1562V84.634C8.20703 85.5997 8.98935 86.382 9.95499 86.382H16.0722C18.3898 86.382 20.6126 85.4612 22.2515 83.8223C23.8904 82.1835 24.8111 79.9607 24.8111 77.6431V74.1471ZM21.3156 74.1471V77.6431C21.3156 79.0336 20.7632 80.3671 19.7799 81.3508C18.7967 82.334 17.4628 82.8865 16.0722 82.8865H11.7025V68.9037H16.0722C17.4628 68.9037 18.7967 69.4561 19.7799 70.4394C20.7632 71.4231 21.3156 72.7566 21.3156 74.1471Z" fill="#D8DFE3" style="fill:#D8DFE3;fill:color(display-p3 0.8471 0.8745 0.8902);fill-opacity:1;"/>
        <path fill-rule="evenodd" clip-rule="evenodd" d="M55.787 65.582H54.7878C49.9613 65.582 46.0488 69.4945 46.0488 74.321V77.8169C46.0488 82.6434 49.9613 86.5558 54.7878 86.5558H55.787C58.9045 86.5558 61.736 84.737 63.0321 81.9013C63.2129 81.5062 63.3648 81.1739 63.3648 81.1739L61.7792 82.1861C61.0887 79.6835 60.491 79.374 60.2074 79.7544L60.1856 79.7205L59.8529 80.4478C59.1256 82.0393 57.5366 83.0603 55.787 83.0603H54.7882C51.8921 83.0603 49.5443 80.7125 49.5443 77.8169V74.321C49.5443 71.4253 51.8921 69.0775 54.7878 69.0775H55.787C57.5366 69.0775 59.1256 70.0985 59.8529 71.6896L60.1856 72.4174L60.1902 72.427L60.204 72.4568L60.2267 72.5013L60.2359 72.5206L60.243 72.5336C60.7812 73.55 61.7792 73.4472 61.7792 73.4472L61.8807 73.4132C62.3278 73.2526 64.0729 72.513 63.3648 70.9639L63.0321 70.2365C61.736 67.4009 58.9045 65.582 55.787 65.582Z" fill="#D8DFE3" style="fill:#D8DFE3;fill:color(display-p3 0.8471 0.8745 0.8902);fill-opacity:1;"/>
        <path fill-rule="evenodd" clip-rule="evenodd" d="M35.5157 65.4082C30.8092 65.4082 26.7764 70.0119 26.7764 75.8951C26.7764 81.7782 30.8092 86.382 35.5157 86.382C40.2222 86.382 44.2547 81.7782 44.2547 75.8951C44.2547 70.0119 40.2222 65.4082 35.5157 65.4082ZM35.5157 68.9037C38.5288 68.9037 40.7592 72.1286 40.7592 75.8951C40.7592 79.6616 38.5288 82.8865 35.5157 82.8865C32.5026 82.8865 30.2723 79.6616 30.2723 75.8951C30.2723 72.1286 32.5026 68.9037 35.5157 68.9037Z" fill="#D8DFE3" style="fill:#D8DFE3;fill:color(display-p3 0.8471 0.8745 0.8902);fill-opacity:1;"/>
        <path fill-rule="evenodd" clip-rule="evenodd" d="M67.9269 85.7847L83.2206 68.3064C83.8557 67.5807 83.7818 66.4754 83.0561 65.8403C82.33 65.2052 81.2251 65.2786 80.5896 66.0048L65.2964 83.483C64.6613 84.2087 64.7347 85.3141 65.4608 85.9491C66.1869 86.5842 67.2918 86.5108 67.9269 85.7847Z" fill="#D8DFE3" style="fill:#D8DFE3;fill:color(display-p3 0.8471 0.8745 0.8902);fill-opacity:1;"/>
        <path fill-rule="evenodd" clip-rule="evenodd" d="M83.2206 83.483L67.9269 66.0048C67.2918 65.2786 66.1869 65.2052 65.4608 65.8403C64.7347 66.4754 64.6613 67.5807 65.2964 68.3064L80.5896 85.7847C81.2251 86.5108 82.33 86.5842 83.0561 85.9491C83.7818 85.3141 83.8557 84.2087 83.2206 83.483Z" fill="#D8DFE3" style="fill:#D8DFE3;fill:color(display-p3 0.8471 0.8745 0.8902);fill-opacity:1;"/>
    </symbol>

    <symbol viewBox="0 0 130 112" id="case" xmlns="http://www.w3.org/2000/svg">
        <path fill-rule="evenodd" clip-rule="evenodd" d="M109.245 18.6715H87.3348V9.50341C87.3348 4.7126 83.3998 0.815155 78.563 0.815155H50.9368C46.1 0.815155 42.1651 4.7126 42.1651 9.50341V18.6718H20.2546C9.30685 18.6715 0.399902 27.5785 0.399902 38.5265V50.4265C1.13691 54.0153 3.728 56.9691 7.31376 58.1166L50.5816 68.6908V63.5916C50.5816 58.708 54.5547 54.7349 59.4383 54.7349H70.0616C74.9451 54.7349 78.9182 58.708 78.9182 63.5916V68.6908L122.186 58.1166C125.772 56.9691 128.363 54.0153 129.1 50.4265V38.5265C129.1 27.5785 120.193 18.6715 109.245 18.6715ZM79.7706 18.6718H49.7292V9.50341C49.7292 8.86243 50.2483 8.37905 50.9368 8.37905H78.563C79.2515 8.37905 79.7706 8.86243 79.7706 9.50341V18.6718ZM70.0616 62.2986H59.4383C58.7254 62.2986 58.1455 62.8785 58.1455 63.5914V74.2624C58.1455 74.9753 58.7254 75.5552 59.4383 75.5552H70.0616C70.7745 75.5552 71.3544 74.9753 71.3544 74.2624V63.5914C71.3544 62.8785 70.7745 62.2986 70.0616 62.2986ZM124.1 65.4351C124.174 65.4173 124.247 65.3972 124.319 65.3748C126.056 64.8381 127.659 64.0566 129.1 63.0786V95.2267C129.1 104.17 121.824 111.445 112.882 111.445H16.6181C7.67522 111.445 0.399902 104.169 0.399902 95.2267V63.0786C1.84124 64.0566 3.44396 64.8381 5.18066 65.3748C5.25305 65.3969 5.32595 65.417 5.39934 65.4351L50.883 76.5511C51.8945 80.3286 55.346 83.119 59.4383 83.119H70.0616C74.1538 83.119 77.6053 80.3286 78.6168 76.5511L124.1 65.4351Z" fill="#D7DCE3"/>
    </symbol>

    <symbol viewBox="0 0 117 130" id="proposition" xmlns="http://www.w3.org/2000/svg">
        <path fill-rule="evenodd" clip-rule="evenodd" d="M71.8402 90.4981H92.5886C95.4579 90.4981 98.1918 89.4222 100.292 87.4688V123.226C100.292 126.691 97.4729 129.51 94.0078 129.51H7.11719C3.65209 129.51 0.833008 126.691 0.833008 123.226V7.09418C0.833008 3.62908 3.65209 0.810001 7.11719 0.810001H94.0078C97.4729 0.810001 100.292 3.62908 100.292 7.09418V33.0755C94.6123 33.2944 89.1466 35.748 85.2213 39.9451L71.5456 54.5664H22.1412C20.0588 54.5664 18.3706 56.2546 18.3706 58.3369C18.3706 60.4192 20.0588 62.1074 22.1412 62.1074H66.7475C66.5909 62.8607 66.508 63.6339 66.508 64.4177V69.5469H22.1412C20.0588 69.5469 18.3706 71.235 18.3706 73.3174C18.3706 75.3997 20.0588 77.0879 22.1412 77.0879H66.5082V85.1658L54.2797 97.3943H52.4L49.7375 89.3586C48.7914 86.4423 46.103 84.5138 43.0308 84.5299C39.9563 84.5575 37.2941 86.5539 36.406 89.4976L33.5278 99.0395H28.5327C26.4503 99.0395 24.7622 100.728 24.7622 102.81C24.7622 104.892 26.4503 106.581 28.5327 106.581H36.3288C37.9919 106.581 39.4583 105.491 39.9387 103.899L43.1183 93.3576L46.0982 102.351C46.6095 103.894 48.0521 104.936 49.6774 104.936H55.8415C56.8414 104.936 57.8004 104.538 58.5075 103.831L71.8402 90.4981ZM22.1412 47.0241H52.0707C54.153 47.0241 55.841 45.3359 55.841 43.2536C55.841 41.1713 54.1528 39.4831 52.0704 39.4831H22.1412C20.0588 39.4831 18.3706 41.1713 18.3706 43.2536C18.3706 45.3359 20.0588 47.0241 22.1412 47.0241ZM22.1412 31.9413H78.9838C81.0664 31.9413 82.7543 30.2531 82.7543 28.1708C82.7543 26.0885 81.0661 24.4003 78.9838 24.4003H22.1412C20.0588 24.4003 18.3706 26.0885 18.3706 28.1708C18.3706 30.2531 20.0588 31.9413 22.1412 31.9413ZM115.292 45.0469L116.322 54.3497C116.813 58.7763 115.163 63.2353 111.91 66.2776L110.299 67.7848H94.5534L105.813 56.5248C107.286 55.0523 107.286 52.665 105.813 51.1925C104.341 49.72 101.953 49.72 100.481 51.1925L89.2212 62.4525V46.7076L90.7286 45.0959C93.7704 41.8434 98.2287 40.1935 102.657 40.6841L111.959 41.7142C113.726 41.9098 115.096 43.2802 115.292 45.0469ZM95.1647 81.9403L102.236 75.326H87.0126L79.3813 82.9573H92.5887C93.5487 82.957 94.4636 82.5961 95.1647 81.9403ZM81.6798 69.9938L74.0488 77.6248V64.4175C74.0488 63.4575 74.41 62.543 75.0656 61.842L81.6798 54.7702V69.9938Z" fill="#D7DCE3"/>
    </symbol>

    <symbol viewBox="0 0 117 142" id="proposition-2" xmlns="http://www.w3.org/2000/svg">
        <path fill-rule="evenodd" clip-rule="evenodd" d="M100.022 37.7129C98.876 37.9018 97.6995 38 96.5 38C84.6259 38 75 28.3741 75 16.5C75 15.3082 75.097 14.139 75.2835 13L6.84717 13C3.38207 13 0.562988 15.8191 0.562988 19.2842V135.416C0.562988 138.881 3.38207 141.7 6.84717 141.7H93.7378C97.2029 141.7 100.022 138.881 100.022 135.416V99.6588C97.9218 101.612 95.1879 102.688 92.3186 102.688H71.5702L58.2374 116.021C57.5303 116.728 56.5714 117.126 55.5714 117.126H49.4074C47.7821 117.126 46.3395 116.084 45.8282 114.541L42.8482 105.548L39.6687 116.089C39.1883 117.681 37.7219 118.771 36.0588 118.771H28.2626C26.1803 118.771 24.4921 117.082 24.4921 115C24.4921 112.918 26.1803 111.23 28.2626 111.23H33.2578L36.136 101.688C37.0241 98.7439 39.6863 96.7475 42.7608 96.7199C45.833 96.7038 48.5213 98.6323 49.4675 101.549L52.13 109.584H54.0097L66.2382 97.3558V89.2779H21.8711C19.7888 89.2779 18.1006 87.5897 18.1006 85.5074C18.1006 83.425 19.7888 81.7369 21.8711 81.7369H66.238V76.6077C66.238 75.8239 66.3209 75.0507 66.4775 74.2974H21.8711C19.7888 74.2974 18.1006 72.6092 18.1006 70.5269C18.1006 68.4446 19.7888 66.7564 21.8711 66.7564H71.2756L84.9512 52.1351C88.8766 47.938 94.3423 45.4844 100.022 45.2655V37.7129ZM51.8007 59.2141H21.8711C19.7888 59.2141 18.1006 57.5259 18.1006 55.4436C18.1006 53.3613 19.7888 51.6731 21.8711 51.6731H51.8004C53.8828 51.6731 55.5709 53.3613 55.5709 55.4436C55.5709 57.5259 53.883 59.2141 51.8007 59.2141ZM78.7138 44.1313H21.8711C19.7888 44.1313 18.1006 42.4431 18.1006 40.3608C18.1006 38.2785 19.7888 36.5903 21.8711 36.5903H78.7138C80.7961 36.5903 82.4843 38.2785 82.4843 40.3608C82.4843 42.4431 80.7964 44.1313 78.7138 44.1313ZM116.052 66.5397L115.021 57.2369C114.826 55.4703 113.455 54.0998 111.689 53.9042L102.386 52.8741C97.9582 52.3835 93.4999 54.0334 90.4581 57.2859L88.9507 58.8976V74.6425L100.211 63.3825C101.683 61.91 104.07 61.91 105.543 63.3825C107.015 64.855 107.015 67.2423 105.543 68.7148L94.2829 79.9748H110.028L111.64 78.4676C114.893 75.4253 116.542 70.9663 116.052 66.5397ZM101.966 87.516L94.8942 94.1303C94.1931 94.7861 93.2782 95.147 92.3182 95.1473H79.1108L86.7421 87.516H101.966ZM73.7793 89.8148L81.4103 82.1838V66.9602L74.7961 74.032C74.1405 74.733 73.7793 75.6475 73.7793 76.6075V89.8148Z" fill="#D7DCE3" />
        <path d="M101.12 26.948C100.497 26.948 99.8915 26.7271 99.4147 26.3261L93.5317 21.3789L87.6482 26.3264C87.1717 26.7271 86.566 26.948 85.9431 26.948C85.554 26.948 85.178 26.8647 84.8247 26.7004C83.8948 26.2676 83.2939 25.3248 83.2939 24.2988V5.68504C83.2939 4.43877 83.7794 3.26702 84.6606 2.38541C85.542 1.50403 86.7137 1.01854 87.96 1.01854H99.103C100.349 1.01854 101.521 1.50403 102.403 2.38519C103.284 3.26658 103.769 4.43834 103.769 5.68482V24.2986C103.769 25.3246 103.168 26.2674 102.238 26.7002C101.886 26.8647 101.509 26.948 101.12 26.948Z" fill="#374E73"/>
    </symbol>

    <symbol viewBox="0 0 117 142" id="proposition-3" xmlns="http://www.w3.org/2000/svg">
         <path fill-rule="evenodd" clip-rule="evenodd" d="M100.022 37.7129C98.876 37.9018 97.6995 38 96.5 38C84.6259 38 75 28.3741 75 16.5C75 15.3082 75.097 14.139 75.2835 13L6.84717 13C3.38207 13 0.562988 15.8191 0.562988 19.2842V135.416C0.562988 138.881 3.38207 141.7 6.84717 141.7H93.7378C97.2029 141.7 100.022 138.881 100.022 135.416V99.6588C97.9218 101.612 95.1879 102.688 92.3186 102.688H71.5702L58.2374 116.021C57.5303 116.728 56.5714 117.126 55.5714 117.126H49.4074C47.7821 117.126 46.3395 116.084 45.8282 114.541L42.8482 105.548L39.6687 116.089C39.1883 117.681 37.7219 118.771 36.0588 118.771H28.2626C26.1803 118.771 24.4921 117.082 24.4921 115C24.4921 112.918 26.1803 111.23 28.2626 111.23H33.2578L36.136 101.688C37.0241 98.7439 39.6863 96.7475 42.7608 96.7199C45.833 96.7038 48.5213 98.6323 49.4675 101.549L52.13 109.584H54.0097L66.2382 97.3558V89.2779H21.8711C19.7888 89.2779 18.1006 87.5897 18.1006 85.5074C18.1006 83.425 19.7888 81.7369 21.8711 81.7369H66.238V76.6077C66.238 75.8239 66.3209 75.0507 66.4775 74.2974H21.8711C19.7888 74.2974 18.1006 72.6092 18.1006 70.5269C18.1006 68.4446 19.7888 66.7564 21.8711 66.7564H71.2756L84.9512 52.1351C88.8766 47.938 94.3423 45.4844 100.022 45.2655V37.7129ZM51.8007 59.2141H21.8711C19.7888 59.2141 18.1006 57.5259 18.1006 55.4436C18.1006 53.3613 19.7888 51.6731 21.8711 51.6731H51.8004C53.8828 51.6731 55.5709 53.3613 55.5709 55.4436C55.5709 57.5259 53.883 59.2141 51.8007 59.2141ZM78.7138 44.1313H21.8711C19.7888 44.1313 18.1006 42.4431 18.1006 40.3608C18.1006 38.2785 19.7888 36.5903 21.8711 36.5903H78.7138C80.7961 36.5903 82.4843 38.2785 82.4843 40.3608C82.4843 42.4431 80.7964 44.1313 78.7138 44.1313ZM116.052 66.5397L115.021 57.2369C114.826 55.4703 113.455 54.0998 111.689 53.9042L102.386 52.8741C97.9582 52.3835 93.4999 54.0334 90.4581 57.2859L88.9507 58.8976V74.6425L100.211 63.3825C101.683 61.91 104.07 61.91 105.543 63.3825C107.015 64.855 107.015 67.2423 105.543 68.7148L94.2829 79.9748H110.028L111.64 78.4676C114.893 75.4253 116.542 70.9663 116.052 66.5397ZM101.966 87.516L94.8942 94.1303C94.1931 94.7861 93.2782 95.147 92.3182 95.1473H79.1108L86.7421 87.516H101.966ZM73.7793 89.8148L81.4103 82.1838V66.9602L74.7961 74.032C74.1405 74.733 73.7793 75.6475 73.7793 76.6075V89.8148Z" fill="#D7DCE3" />
        <path fill-rule="evenodd" clip-rule="evenodd" d="M99.0962 0.821847L104.363 5.8046C104.96 6.36951 105.303 7.16497 105.303 7.98698V24.9624C105.303 26.6189 103.955 27.9666 102.298 27.9666H87.0042C85.3477 27.9666 84 26.6189 84 24.9624V3.00423C84 1.3477 85.3477 0 87.0042 0H97.0316C97.8028 0 98.536 0.291847 99.0962 0.821847ZM98.6934 6.55468H102.772L98.4203 2.43812V6.28157C98.4203 6.43216 98.5428 6.55468 98.6934 6.55468ZM88.6251 10.9245H100.357C100.798 10.9245 101.157 11.2913 101.157 11.7438C101.157 12.1963 100.798 12.5631 100.357 12.5631H88.6251C88.1833 12.5631 87.8252 12.1963 87.8252 11.7438C87.8252 11.2913 88.1833 10.9245 88.6251 10.9245ZM88.6251 15.2942H100.357C100.798 15.2942 101.157 15.6611 101.157 16.1136C101.157 16.566 100.798 16.9329 100.357 16.9329H88.6251C88.1833 16.9329 87.8252 16.566 87.8252 16.1136C87.8252 15.6611 88.1833 15.2942 88.6251 15.2942ZM92.5029 19.664H88.6251C88.1833 19.664 87.8252 20.0308 87.8252 20.4833C87.8252 20.9358 88.1833 21.3027 88.6251 21.3027H92.5029C92.9447 21.3027 93.3028 20.9358 93.3028 20.4833C93.3028 20.0308 92.9447 19.664 92.5029 19.664Z" fill="#374E73" />
    </symbol>

    <symbol viewBox="0 0 4 18" id="dots" xmlns="http://www.w3.org/2000/svg">
        <path fill-rule="evenodd" clip-rule="evenodd" d="M4 2C4 3.10457 3.10458 4 2 4C0.895416 4 0 3.10457 0 2C0 0.895431 0.895416 0 2 0C3.10458 0 4 0.895431 4 2ZM4 9C4 10.1046 3.10458 11 2 11C0.895416 11 0 10.1046 0 9C0 7.89543 0.895416 7 2 7C3.10458 7 4 7.89543 4 9ZM2 18C3.10458 18 4 17.1046 4 16C4 14.8954 3.10458 14 2 14C0.895416 14 0 14.8954 0 16C0 17.1046 0.895416 18 2 18Z" fill="currentColor" />
    </symbol>

    <symbol viewBox="0 0 28 28" id="word" xmlns="http://www.w3.org/2000/svg">
        <path d="M27.125 23.625H14.875C14.392 23.625 14 23.2348 14 22.75C14 22.2652 14 5.733 14 5.25C14 4.767 14.392 4.375 14.875 4.375H27.125C27.608 4.375 28 4.767 28 5.25V22.75C28 23.2348 27.608 23.625 27.125 23.625Z" fill="#ECEFF1" style="fill:#ECEFF1;fill:color(display-p3 0.9255 0.9373 0.9451);fill-opacity:1;"/>
        <path d="M23.625 9.625H14.875C14.392 9.625 14 9.23475 14 8.75C14 8.26525 14.392 7.875 14.875 7.875H23.625C24.108 7.875 24.5 8.267 24.5 8.75C24.5 9.233 24.108 9.625 23.625 9.625Z" fill="#1976D2" style="fill:#1976D2;fill:color(display-p3 0.0980 0.4627 0.8235);fill-opacity:1;"/>
        <path d="M23.625 13.125H14.875C14.392 13.125 14 12.7348 14 12.25C14 11.7652 14.392 11.375 14.875 11.375H23.625C24.108 11.375 24.5 11.767 24.5 12.25C24.5 12.733 24.108 13.125 23.625 13.125Z" fill="#1976D2" style="fill:#1976D2;fill:color(display-p3 0.0980 0.4627 0.8235);fill-opacity:1;"/>
        <path d="M23.625 16.625H14.875C14.392 16.625 14 16.2348 14 15.75C14 15.2652 14.392 14.875 14.875 14.875H23.625C24.108 14.875 24.5 15.267 24.5 15.75C24.5 16.233 24.108 16.625 23.625 16.625Z" fill="#1976D2" style="fill:#1976D2;fill:color(display-p3 0.0980 0.4627 0.8235);fill-opacity:1;"/>
        <path d="M23.625 20.125H14.875C14.392 20.125 14 19.7348 14 19.25C14 18.7652 14.392 18.375 14.875 18.375H23.625C24.108 18.375 24.5 18.767 24.5 19.25C24.5 19.733 24.108 20.125 23.625 20.125Z" fill="#1976D2" style="fill:#1976D2;fill:color(display-p3 0.0980 0.4627 0.8235);fill-opacity:1;"/>
        <path d="M15.4333 1.07846C15.2338 0.910465 14.966 0.840465 14.714 0.891215L0.714 3.51621C0.301 3.59321 0 3.95546 0 4.37546V23.6255C0 24.0455 0.29925 24.4077 0.714 24.4847L14.714 27.1097C14.7682 27.1202 14.8208 27.1255 14.875 27.1255C15.078 27.1255 15.2758 27.0555 15.4333 26.9242C15.6345 26.758 15.75 26.5112 15.75 26.2505V1.75047C15.75 1.48971 15.6345 1.24471 15.4333 1.07846Z" fill="#1565C0" style="fill:#1565C0;fill:color(display-p3 0.0824 0.3961 0.7529);fill-opacity:1;"/>
        <path d="M11.3699 18.4735C11.3244 18.8742 11.0094 19.1945 10.6086 19.2435C10.5719 19.2487 10.5369 19.2505 10.5001 19.2505C10.1396 19.2505 9.81063 19.0265 9.68113 18.6835L7.87513 13.8675L6.06913 18.6835C5.92913 19.058 5.56163 19.2872 5.15563 19.2452C4.75838 19.2032 4.43988 18.8952 4.38388 18.498L3.50888 12.373C3.44063 11.897 3.77313 11.4525 4.25088 11.3842C4.73038 11.3142 5.17313 11.6485 5.24138 12.1262L5.63163 14.8632L7.05438 11.0675C7.30988 10.385 8.43688 10.385 8.69413 11.0675L10.0346 14.641L10.5054 10.4025C10.5596 9.92298 11.0041 9.57823 11.4714 9.62898C11.9526 9.68498 12.2974 10.1172 12.2449 10.5967L11.3699 18.4735Z" fill="#FAFAFA" style="fill:#FAFAFA;fill:color(display-p3 0.9804 0.9804 0.9804);fill-opacity:1;"/>
    </symbol>

    <symbol viewBox="0 0 38 38" id="filter" xmlns="http://www.w3.org/2000/svg">
        <path d="M1.1875 6.69888H19.2676C19.8125 9.1792 22.0275 11.0413 24.6691 11.0413C27.3106 11.0413 29.5256 9.17927 30.0705 6.69888H36.8125C37.4683 6.69888 38 6.16718 38 5.51138C38 4.85559 37.4683 4.32388 36.8125 4.32388H30.07C29.524 1.84483 27.306 -0.0184326 24.6691 -0.0184326C22.0307 -0.0184326 19.8137 1.84453 19.268 4.32388H1.1875C0.531703 4.32388 0 4.85559 0 5.51138C0 6.16718 0.531703 6.69888 1.1875 6.69888ZM21.5143 5.5145C21.5143 5.51027 21.5144 5.50597 21.5144 5.50174C21.5196 3.76747 22.9347 2.35664 24.6691 2.35664C26.4009 2.35664 27.8161 3.76554 27.8236 5.49899L27.8239 5.51643C27.8211 7.25367 26.407 8.66635 24.6691 8.66635C22.9319 8.66635 21.5182 7.25508 21.5142 5.51888L21.5143 5.5145ZM36.8125 31.301H30.07C29.5239 28.822 27.306 26.9587 24.6691 26.9587C22.0307 26.9587 19.8137 28.8217 19.268 31.301H1.1875C0.531703 31.301 0 31.8326 0 32.4885C0 33.1444 0.531703 33.676 1.1875 33.676H19.2676C19.8125 36.1563 22.0275 38.0184 24.6691 38.0184C27.3106 38.0184 29.5256 36.1563 30.0705 33.676H36.8125C37.4683 33.676 38 33.1444 38 32.4885C38 31.8326 37.4683 31.301 36.8125 31.301ZM24.6691 35.6434C22.9319 35.6434 21.5182 34.2321 21.5142 32.4959L21.5143 32.4916C21.5143 32.4873 21.5144 32.4831 21.5144 32.4788C21.5196 30.7446 22.9347 29.3337 24.6691 29.3337C26.4009 29.3337 27.8161 30.7426 27.8236 32.4759L27.8239 32.4934C27.8213 34.2308 26.4071 35.6434 24.6691 35.6434ZM36.8125 17.8125H18.7324C18.1875 15.3322 15.9725 13.4702 13.3309 13.4702C10.6894 13.4702 8.47437 15.3322 7.92946 17.8125H1.1875C0.531703 17.8125 0 18.3442 0 19C0 19.6558 0.531703 20.1875 1.1875 20.1875H7.93005C8.47608 22.6665 10.694 24.5298 13.3309 24.5298C15.9693 24.5298 18.1863 22.6667 18.732 20.1875H36.8125C37.4683 20.1875 38 19.6558 38 19C38 18.3442 37.4683 17.8125 36.8125 17.8125ZM16.4857 18.9969C16.4857 19.0012 16.4856 19.0054 16.4856 19.0096C16.4804 20.7439 15.0653 22.1547 13.3309 22.1547C11.5991 22.1547 10.1839 20.7458 10.1764 19.0124L10.1761 18.9951C10.1787 17.2576 11.593 15.8452 13.3309 15.8452C15.0681 15.8452 16.4818 17.2564 16.4858 18.9926L16.4857 18.9969Z" fill="currentColor"/>
    </symbol>

    <symbol viewBox="0 0 11 6" id="sort-up-arrow" xmlns="http://www.w3.org/2000/svg">
        <path d="M6.04456 0.215873L10.7742 4.74173C11.0753 5.02962 11.0753 5.4964 10.7742 5.78416C10.4735 6.07195 9.98569 6.07195 9.68496 5.78416L5.49992 1.77948L1.31502 5.78405C1.01415 6.07183 0.526408 6.07183 0.225655 5.78405C-0.0752185 5.49626 -0.0752185 5.02951 0.225655 4.74161L4.95541 0.215756C5.10586 0.0718644 5.30283 2.45043e-07 5.4999 2.36429e-07C5.69706 2.27811e-07 5.89418 0.0720045 6.04456 0.215873Z" fill="currentColor"/>
    </symbol>

    <symbol viewBox="0 0 11 6" id="sort-down-arrow" xmlns="http://www.w3.org/2000/svg">
        <path d="M6.04456 5.78413L10.7742 1.25827C11.0753 0.970375 11.0753 0.503596 10.7742 0.215837C10.4735 -0.0719452 9.98569 -0.0719452 9.68496 0.215837L5.49992 4.22052L1.31502 0.215953C1.01415 -0.0718292 0.526408 -0.0718292 0.225655 0.215953C-0.0752185 0.503736 -0.0752185 0.970491 0.225655 1.25839L4.95541 5.78424C5.10586 5.92814 5.30283 6 5.4999 6C5.69706 6 5.89418 5.928 6.04456 5.78413Z" fill="currentColor"/>
    </symbol>

    <symbol viewBox="0 0 18 21" id="word-simple" xmlns="http://www.w3.org/2000/svg">
        <path fill-rule="evenodd" clip-rule="evenodd" d="M11.1564 2.282H16.6491C17.1836 2.282 17.6184 2.71679 17.6184 3.25131V17.4678C17.6184 18.0024 17.1837 18.4371 16.6491 18.4371H11.1564V19.7295C11.1564 19.8239 11.1151 19.9136 11.0434 19.975C10.9844 20.0255 10.9097 20.0526 10.8333 20.0526C10.8165 20.0526 10.8002 20.0514 10.7834 20.0487L0.990645 18.5186C0.51576 18.4446 0.170898 18.0418 0.170898 17.5609V3.15824C0.170898 2.67737 0.51576 2.27458 0.990645 2.20044L10.7834 0.670415C10.8768 0.656216 10.9715 0.682569 11.0434 0.744097C11.115 0.805474 11.1564 0.895211 11.1564 0.989567V2.282ZM10.5102 18.114V2.60509V1.3671L1.09034 2.8389C0.931919 2.86366 0.817078 2.99793 0.817078 3.1582V17.5609C0.817078 17.7212 0.931956 17.8554 1.09034 17.8801L10.5102 19.352V18.114ZM16.6491 17.7909C16.8274 17.7909 16.9722 17.6459 16.9722 17.4678V3.25127C16.9722 3.07316 16.8274 2.92818 16.6491 2.92818H11.1564V5.19011H14.7105C14.8891 5.19011 15.0336 5.33475 15.0336 5.51321C15.0336 5.69162 14.8891 5.8363 14.7105 5.8363H11.1564V7.12869H14.7105C14.8891 7.12869 15.0336 7.27337 15.0336 7.45178C15.0336 7.6302 14.8891 7.77487 14.7105 7.77487H11.1564V9.06727H14.7105C14.8891 9.06727 15.0336 9.21195 15.0336 9.39036C15.0336 9.56877 14.8891 9.71345 14.7105 9.71345H11.1564V11.0058H14.7105C14.8891 11.0058 15.0336 11.1505 15.0336 11.3289C15.0336 11.5074 14.8891 11.652 14.7105 11.652H11.1564V12.9444H14.7105C14.8891 12.9444 15.0336 13.0891 15.0336 13.2675C15.0336 13.4459 14.8891 13.5906 14.7105 13.5906H11.1564V14.883H14.7105C14.8891 14.883 15.0336 15.0277 15.0336 15.2061C15.0336 15.3845 14.8891 15.5292 14.7105 15.5292H11.1564V17.7909H16.6491ZM3.68017 13.5874C3.54261 13.5682 3.43311 13.4634 3.40755 13.327L2.43816 8.15739C2.40503 7.98212 2.52052 7.81333 2.69594 7.78035C2.8745 7.74691 3.04016 7.86319 3.07298 8.03846L3.86528 12.264L5.37445 9.24582C5.42999 9.13488 5.53915 9.05885 5.66853 9.06722C5.79288 9.06926 5.90488 9.14215 5.95694 9.25494L7.45604 12.5027L8.25276 7.72162C8.28211 7.54571 8.4484 7.4261 8.62447 7.45608C8.80053 7.48543 8.9195 7.65188 8.89016 7.82794L7.92085 13.6438C7.89752 13.7836 7.78583 13.8919 7.64509 13.9109C7.63089 13.9128 7.61639 13.9137 7.60219 13.9137C7.47754 13.9137 7.36206 13.8415 7.30875 13.726L5.65191 10.136L4.01401 13.412C3.95184 13.536 3.81867 13.6069 3.68017 13.5874Z" fill="currentColor"/>
    </symbol>

    <symbol viewBox="0 0 58 58" id="hammer" xmlns="http://www.w3.org/2000/svg">
        <path d="M49.7928 43.2098C50.4955 43.798 51.4019 44.0853 52.3151 44.0093C53.2284 43.9333 54.0748 43.5001 54.6706 42.8038L54.8156 42.6298C55.406 41.925 55.6935 41.0151 55.6153 40.099C55.537 39.1829 55.0994 38.3349 54.398 37.7404L34.2198 21.3496L36.5398 18.5598L36.6036 18.612C36.9623 18.9184 37.4194 19.0853 37.8912 19.0818C38.1834 19.0898 38.4737 19.0331 38.7414 18.9158C39.0091 18.7985 39.2476 18.6234 39.4398 18.4032L40.3968 17.2722C40.7367 16.8681 40.9026 16.3457 40.858 15.8195C40.8134 15.2933 40.5621 14.8062 40.159 14.465L29.8002 5.71282C29.6041 5.53727 29.3746 5.40311 29.1255 5.31839C28.8763 5.23368 28.6126 5.20015 28.3502 5.21982C28.0889 5.24159 27.8344 5.31479 27.6015 5.43523C27.3686 5.55568 27.1618 5.72097 26.993 5.92162L26.036 7.07582C25.866 7.27559 25.7374 7.50717 25.6577 7.75711C25.5781 8.00704 25.5489 8.27032 25.572 8.53162C25.6152 9.04752 25.8614 9.5252 26.2564 9.85982L17.6434 20.062C17.2407 19.7263 16.7215 19.5636 16.1992 19.6096C15.9393 19.6288 15.6859 19.6997 15.4538 19.8182C15.2217 19.9368 15.0157 20.1005 14.8478 20.2998L13.9198 21.4598C13.5788 21.8642 13.4118 22.3871 13.4553 22.9142C13.4988 23.4413 13.7492 23.9298 14.1518 24.2728L24.47 32.996C24.8272 33.3011 25.282 33.4679 25.7518 33.4658C26.0388 33.4642 26.3222 33.4007 26.5824 33.2796C26.8427 33.1584 27.0737 32.9826 27.2598 32.764L28.2168 31.604C28.5577 31.1997 28.7247 30.6768 28.6813 30.1497C28.6378 29.6225 28.3874 29.1341 27.9848 28.791L27.921 28.7388L30.241 25.9954L49.7928 43.2098ZM53.615 40.275C53.631 40.4636 53.6095 40.6534 53.5518 40.8336C53.4941 41.0138 53.4012 41.1807 53.2786 41.3248L53.1336 41.4988C52.8879 41.789 52.5381 41.971 52.1595 42.0057C51.7808 42.0404 51.4038 41.925 51.1094 41.6844L31.7142 24.6092L33.0598 23.0142L53.1104 39.2948C53.4001 39.5432 53.5812 39.895 53.615 40.275ZM28.501 7.24982L38.825 15.9846L37.9202 17.0924L33.3556 13.2528L27.5846 8.36922L28.501 7.24982ZM26.6798 30.3454L25.7692 31.459L15.4278 22.759L16.35 21.6338L26.6334 30.3338L26.6798 30.3454ZM19.1804 21.3612L27.7876 11.188L35.0086 17.2896L26.4014 27.4686L19.1804 21.3612ZM40.391 48.4298C40.3902 48.0013 40.305 47.5771 40.1401 47.1815C39.9752 46.786 39.734 46.4268 39.4301 46.1246C39.1263 45.8224 38.7658 45.583 38.3694 45.4203C37.973 45.2575 37.5483 45.1745 37.1198 45.176H35.7916V42.5602C35.7901 41.7752 35.4771 41.0228 34.9215 40.4682C34.3658 39.9137 33.6128 39.6022 32.8278 39.6022H9.73799C8.95295 39.6022 8.19997 39.9137 7.64431 40.4682C7.08866 41.0228 6.77573 41.7752 6.77419 42.5602V45.176H5.90999C5.04649 45.176 4.21828 45.5186 3.60715 46.1287C2.99603 46.7387 2.65193 47.5663 2.65039 48.4298V52.7798H40.391V48.4298ZM8.79259 42.5602C8.79259 42.3095 8.89219 42.069 9.06949 41.8917C9.24679 41.7144 9.48726 41.6148 9.73799 41.6148H32.8278C33.0785 41.6148 33.319 41.7144 33.4963 41.8917C33.6736 42.069 33.7732 42.3095 33.7732 42.5602V45.1702H8.79259V42.5602ZM38.3726 50.744H4.66879V48.424C4.66879 48.0948 4.79956 47.7791 5.03233 47.5464C5.2651 47.3136 5.5808 47.1828 5.90999 47.1828H37.1198C37.449 47.1828 37.7647 47.3136 37.9974 47.5464C38.2302 47.7791 38.361 48.0948 38.361 48.424L38.3726 50.744Z" fill="currentColor" />
    </symbol>

    <symbol viewBox="0 0 23 23" id="download" xmlns="http://www.w3.org/2000/svg">
        <path d="M11.5 17.0565L5.23843 10.7949L6.7843 9.2043L10.4 12.82V0.5H12.6V12.82L16.2157 9.2043L17.7616 10.7949L11.5 17.0565ZM3.15137 22.5C2.41046 22.5 1.78333 22.2433 1.27 21.73C0.756667 21.2167 0.5 20.5895 0.5 19.8486V15.8718H2.7V19.8486C2.7 19.9616 2.74706 20.065 2.84117 20.1588C2.93503 20.2529 3.03843 20.3 3.15137 20.3H19.8486C19.9616 20.3 20.065 20.2529 20.1588 20.1588C20.2529 20.065 20.3 19.9616 20.3 19.8486V15.8718H22.5V19.8486C22.5 20.5895 22.2433 21.2167 21.73 21.73C21.2167 22.2433 20.5895 22.5 19.8486 22.5H3.15137Z" fill="currentColor"/>
    </symbol>


    <symbol viewBox="" id="id" xmlns="http://www.w3.org/2000/svg">
        
    </symbol>
</svg>